<svg width="360" height="688" viewBox="0 0 360 688" fill="none" xmlns="http://www.w3.org/2000/svg">
<g clip-path="url(#clip0)">
<rect width="360" height="688" fill="white"/>
<g clip-path="url(#clip1)">
<rect width="360" height="548" fill="white"/>
<rect width="360" height="495" fill="url(#paint0_linear)"/>
<path d="M91.6875 134.4H37.6875C38.025 133.7 38.475 132.9 38.925 132.2C44.1 124.4 53.6625 119.1 64.6875 119.1C74.8125 119.1 83.8125 123.6 89.2125 130.5C90.225 131.7 91.0125 133 91.6875 134.4Z" fill="white"/>
<path d="M41.2883 134.4H14.7383C17.7758 130.8 22.6133 128.5 28.0133 128.5C32.2883 128.5 36.1133 129.9 39.0383 132.2C39.8258 132.9 40.6133 133.6 41.2883 134.4Z" fill="white"/>
<path d="M121.613 134.4H86.625C87.3 133 88.2 131.7 89.2125 130.6C92.7 126.8 98.1 124.3 104.062 124.3C111.937 124.2 118.688 128.4 121.613 134.4Z" fill="white"/>
<path d="M-17.3242 106.6H36.6758C36.3383 105.9 35.8883 105.1 35.4383 104.4C30.2633 96.5998 20.7008 91.2998 9.67578 91.2998C-0.449221 91.2998 -9.44922 95.7998 -14.8492 102.7C-15.8617 103.9 -16.6492 105.2 -17.3242 106.6Z" fill="white"/>
<path d="M354.15 91.3H408.15C407.813 90.6 407.363 89.8 406.913 89.1C401.738 81.3 392.175 76 381.15 76C371.025 76 362.025 80.5 356.625 87.4C355.613 88.7 354.825 90 354.15 91.3Z" fill="white"/>
<path d="M324.225 91.2999H359.212C358.537 89.9 357.637 88.6 356.625 87.5C353.137 83.7 347.737 81.2 341.775 81.2C333.9 81.2 327.15 85.2999 324.225 91.2999Z" fill="white"/>
<mask id="mask0" mask-type="alpha" maskUnits="userSpaceOnUse" x="-30" y="211" width="420" height="289">
<rect x="-30" y="211" width="420" height="288.75" fill="#C4C4C4"/>
</mask>
<g mask="url(#mask0)">
<path d="M184.306 451.872H99.9453V367.511L141.273 324.578L184.306 367.511V451.872Z" fill="#E1F6F8"/>
<path d="M379.009 283.952C379.21 282.347 379.31 280.742 379.21 279.137C378.608 265.997 367.975 255.163 354.834 254.361C339.687 253.458 327.048 265.395 327.048 280.441C327.048 281.745 327.149 282.949 327.349 284.153C328.954 294.986 326.145 306.02 319.324 314.547C313.105 322.271 309.494 332.202 309.795 343.035C310.497 366.207 329.757 384.965 353.029 385.065C377.103 385.165 396.563 365.705 396.563 341.731C396.563 331.399 392.952 321.97 386.934 314.447C380.012 305.92 377.504 294.786 379.009 283.952Z" fill="#E1F6F8"/>
<path d="M349.818 283.149V426.092" stroke="#BAE7EF" stroke-width="0.9539" stroke-miterlimit="10"/>
<path d="M338.283 298.196L349.819 309.732" stroke="#BAE7EF" stroke-width="0.9539" stroke-miterlimit="10"/>
<path d="M349.818 330.597L368.978 311.538" stroke="#BAE7EF" stroke-width="0.9539" stroke-miterlimit="10"/>
<path d="M349.819 350.558L325.645 326.383" stroke="#BAE7EF" stroke-width="0.9539" stroke-miterlimit="10"/>
<path d="M104.961 367.812L87.3059 314.948L33.74 282.146L-19.8258 314.948L-37.4805 367.812H-34.3708V452.173H101.851L101.751 367.812H104.961Z" fill="#E1F6F8"/>
<path d="M16.4858 351.762H-7.1875V388.676H16.4858V351.762Z" fill="white"/>
<path d="M68.8491 351.762H45.1758V388.676H68.8491V351.762Z" fill="white"/>
<path d="M4.75 351.762V388.978" stroke="#E1F6F8" stroke-width="1.0301" stroke-miterlimit="10"/>
<path d="M-7.1875 370.621H16.5861" stroke="#E1F6F8" stroke-width="1.0301" stroke-miterlimit="10"/>
<path d="M300.667 359.285C300.466 359.285 300.266 359.185 300.166 358.984L298.36 354.972C298.26 354.671 298.36 354.37 298.661 354.169C298.962 354.069 299.263 354.169 299.463 354.47L301.269 358.483C301.369 358.783 301.269 359.084 300.968 359.285C300.868 359.285 300.767 359.285 300.667 359.285Z" fill="#FAC47D"/>
<path d="M299.363 360.188C299.162 360.188 298.961 360.088 298.861 359.887L295.952 354.972C295.751 354.671 295.852 354.37 296.153 354.169C296.454 353.969 296.755 354.069 296.955 354.37L299.864 359.285C300.065 359.586 299.964 359.887 299.664 360.088C299.563 360.188 299.463 360.188 299.363 360.188Z" fill="#FAC47D"/>
<path d="M297.859 361.091C297.658 361.091 297.457 360.991 297.357 360.79L294.448 355.875C294.248 355.574 294.348 355.273 294.649 355.072C294.95 354.872 295.251 354.972 295.451 355.273L298.36 360.188C298.561 360.489 298.461 360.79 298.16 360.991C298.059 361.091 297.959 361.091 297.859 361.091Z" fill="#FAC47D"/>
<path d="M296.454 361.994C296.253 361.994 296.053 361.893 295.952 361.693L293.946 358.082C293.746 357.781 293.846 357.48 294.147 357.279C294.448 357.079 294.749 357.179 294.949 357.48L296.955 361.091C297.156 361.392 297.056 361.693 296.755 361.893C296.655 361.994 296.554 361.994 296.454 361.994Z" fill="#FAC47D"/>
<path d="M302.372 363.197L302.272 359.185L299.563 357.179L295.25 360.288L297.657 365.103L302.372 363.197Z" fill="#FAC47D"/>
<path d="M301.569 361.191C301.168 361.191 300.867 360.89 300.867 360.489V356.075C300.867 355.674 301.168 355.373 301.569 355.373C301.971 355.373 302.272 355.674 302.272 356.075V360.489C302.272 360.89 301.971 361.191 301.569 361.191Z" fill="#FAC47D"/>
<path d="M292.743 383.159L285.52 410.243C285.22 411.346 286.022 412.45 287.226 412.45C288.028 412.45 288.73 411.948 288.931 411.146L296.153 384.062C296.454 382.958 295.652 381.855 294.448 381.855C293.646 381.855 292.943 382.357 292.743 383.159Z" fill="#FF7254"/>
<path d="M269.972 400.111H389.341C390.846 400.111 391.949 401.516 391.548 403.02C391.247 404.023 390.344 404.726 389.341 404.726H269.972C268.467 404.726 267.363 403.321 267.765 401.817C267.965 400.814 268.968 400.111 269.972 400.111Z" fill="#FFB612"/>
<path d="M274.184 384.363H393.554C395.059 384.363 396.162 385.767 395.761 387.272C395.46 388.275 394.557 388.977 393.554 388.977H274.184C272.68 388.977 271.576 387.572 271.978 386.068C272.178 385.065 273.181 384.363 274.184 384.363Z" fill="#FFB612"/>
<path d="M272.079 392.287H391.449C392.953 392.287 394.057 393.691 393.655 395.196C393.354 396.199 392.452 396.901 391.449 396.901H272.079C270.574 396.901 269.471 395.497 269.872 393.992C270.073 392.989 271.076 392.287 272.079 392.287Z" fill="#FFB612"/>
<path d="M260.743 451.37H257.533L266.561 417.766H269.771L260.743 451.37Z" fill="#008FCD"/>
<path d="M294.749 451.37H297.858L288.83 417.766H285.721L294.749 451.37Z" fill="#008FCD"/>
<path d="M344.503 451.37H341.293L350.321 417.766H353.531L344.503 451.37Z" fill="#008FCD"/>
<path d="M386.633 414.456H254.524C252.719 414.456 251.314 413.051 251.314 411.246C251.314 409.44 252.719 408.036 254.524 408.036H386.633C388.439 408.036 389.843 409.44 389.843 411.246C389.843 413.051 388.439 414.456 386.633 414.456Z" fill="#FFB612"/>
<path d="M386.633 414.456H357.944C356.139 414.456 354.734 413.051 354.734 411.246C354.734 409.44 356.139 408.036 357.944 408.036H386.633C388.439 408.036 389.843 409.44 389.843 411.246C389.843 413.051 388.439 414.456 386.633 414.456Z" fill="#FF7254"/>
<path d="M377.104 414.456H262.75V417.766H377.104V414.456Z" fill="#008FCD"/>
<path d="M313.307 375.536L326.949 364.502L328.754 375.134C328.754 375.134 317.72 385.065 312.203 385.065C306.786 385.065 297.658 365.103 297.658 365.103L302.373 361.693L313.307 375.536Z" fill="#79D4E7"/>
<path d="M324.54 378.545L325.343 368.414L319.926 381.855C321.531 380.752 323.136 379.648 324.54 378.545Z" fill="#38BFDB"/>
<path d="M322.635 397.904H350.22L351.023 383.961L351.424 374.733C351.524 372.325 350.922 369.918 349.518 367.912C347.512 365.003 344.202 363.297 340.691 363.297H331.663C324.741 363.297 324.44 367.811 324.039 375.435L323.337 388.776L322.635 397.904Z" fill="#79D4E7"/>
<path d="M351.123 383.962L351.524 374.733C351.524 374.432 351.524 374.131 351.524 373.83C351.123 373.83 350.722 373.931 350.421 374.031C348.214 374.432 346.408 375.636 344.703 377.04C343.499 377.943 342.396 379.147 341.293 380.15C336.177 385.165 330.359 389.278 324.44 393.19C323.939 393.491 323.437 393.792 322.936 394.193L322.635 397.905H350.22L351.123 383.962Z" fill="#38BFDB"/>
<path d="M322.133 408.237L322.936 396.099C309.494 396.099 288.931 394.394 289.833 407.434C291.338 421.979 293.545 433.515 295.752 448.06L300.868 447.759C301.469 434.618 301.469 408.237 301.469 408.237H322.133Z" fill="black"/>
<path d="M335.173 408.237V396.099C321.23 396.099 305.381 394.595 305.381 407.435C306.886 421.98 309.092 433.515 311.299 448.06L316.415 447.759C317.017 434.619 317.017 408.237 317.017 408.237H335.173Z" fill="#004CBC"/>
<path d="M350.62 396.099C350.119 402.92 345.304 408.136 337.68 408.136H333.668V396.099H350.62Z" fill="#004CBC"/>
<path d="M335.273 352.464L337.38 352.565C339.487 352.665 341.292 350.96 341.292 348.853V347.449C341.392 344.139 338.784 341.43 335.474 341.33L335.273 352.464Z" fill="#FF7254"/>
<path d="M333.469 353.066L332.064 363.899L334.071 367.812L339.187 363.899L339.889 353.066H333.469Z" fill="#FAC47D"/>
<path d="M332.966 353.367L332.766 360.388C335.976 360.288 338.584 357.78 338.684 354.57V353.567L332.966 353.367Z" fill="#004CBC"/>
<path d="M332.266 361.793C335.776 361.191 338.685 358.182 338.685 354.972V353.868H333.369L332.266 361.793Z" fill="#42145F"/>
<path d="M333.668 360.389H333.869C337.179 360.489 339.988 357.881 339.988 354.571L340.189 347.449C340.289 344.138 337.681 341.33 334.371 341.33H334.17C330.86 341.229 328.051 343.837 328.051 347.148L327.85 354.27C327.75 357.48 330.358 360.288 333.668 360.389Z" fill="#FAC47D"/>
<path d="M340.088 352.364C341.14 352.364 341.993 351.51 341.993 350.458C341.993 349.405 341.14 348.552 340.088 348.552C339.035 348.552 338.182 349.405 338.182 350.458C338.182 351.51 339.035 352.364 340.088 352.364Z" fill="#FAC47D"/>
<path d="M337.881 350.759V352.564C337.881 352.966 337.681 353.266 337.48 353.567C336.878 354.169 335.975 354.169 335.474 353.567L334.571 352.564C334.27 352.263 333.969 352.163 333.568 352.163L329.255 352.063C328.553 352.063 327.951 352.665 327.85 353.367V354.27C327.75 357.68 330.458 360.389 333.769 360.489C337.179 360.589 339.888 357.881 339.988 354.571L340.088 348.652C338.985 348.552 337.881 349.555 337.881 350.759Z" fill="#FF7254"/>
<path d="M333.268 353.367C333.268 353.367 332.264 354.47 331.161 354.47C330.258 354.47 329.355 353.267 329.355 353.267L333.268 353.367Z" fill="#F6E4EB"/>
<path d="M330.058 345.643L337.481 345.843C337.782 345.843 338.083 346.144 338.083 346.445C338.083 347.649 338.986 348.552 340.19 348.652L340.29 346.245C340.39 343.636 338.284 341.43 335.575 341.329L330.76 341.229C329.356 341.229 328.253 342.332 328.253 343.737C328.152 344.74 328.955 345.542 330.058 345.643Z" fill="#FF7254"/>
<path d="M317.619 451.37H303.274C302.773 451.37 302.472 450.869 302.672 450.468L302.773 450.267C303.073 449.565 303.776 448.963 304.578 448.762L308.791 447.458L310.597 445.653C310.998 445.251 311.6 445.251 312.001 445.653C312.302 445.954 312.904 446.254 313.606 446.254C314.609 446.254 315.211 445.753 316.114 445.352C316.615 445.151 317.217 445.452 317.217 446.054L317.619 451.37Z" fill="#FF7254"/>
<path d="M301.77 451.37H287.526C287.024 451.37 286.724 450.869 286.924 450.468L287.024 450.267C287.325 449.565 288.028 448.963 288.83 448.762L293.043 447.458L294.849 445.653C295.25 445.251 295.852 445.251 296.253 445.653C296.554 445.954 297.156 446.254 297.858 446.254C298.861 446.254 299.463 445.753 300.366 445.352C300.867 445.151 301.469 445.452 301.469 446.054L301.77 451.37Z" fill="#FF7254"/>
<path d="M334.07 367.812L335.475 369.617L340.29 363.197L339.286 362.395L334.07 367.812Z" fill="white"/>
<path d="M334.071 367.812L332.165 363.198L331.764 369.216L334.071 367.812Z" fill="white"/>
<path d="M334.373 395.999H327.451L326.047 384.363H335.677L334.373 395.999Z" fill="white"/>
<path d="M335.475 386.269H326.247C325.545 386.269 325.043 385.767 325.043 385.065C325.043 384.363 325.545 383.861 326.247 383.861H335.475C336.177 383.861 336.679 384.363 336.679 385.065C336.679 385.767 336.177 386.269 335.475 386.269Z" fill="#004CBC"/>
<path d="M333.87 382.658H327.952C327.651 382.658 327.45 382.858 327.35 383.059L326.748 384.463H335.174L334.572 383.059C334.372 382.758 334.071 382.658 333.87 382.658Z" fill="#004CBC"/>
<path d="M337.582 390.682H331.964C330.861 390.682 330.059 391.585 330.059 392.588V394.394C330.059 395.297 330.761 395.999 331.664 395.999H337.983L337.582 390.682Z" fill="#FAC47D"/>
<path d="M350.019 368.414L359.147 388.977C359.448 389.579 359.549 390.281 359.549 390.983C359.549 393.792 357.342 395.999 354.533 395.999H336.678V389.679L350.621 388.977L342.696 373.63L350.019 368.414Z" fill="#79D4E7"/>
<path d="M67.6454 357.881C67.846 360.288 65.9401 360.89 65.3383 360.99C64.7364 361.091 64.2348 360.89 63.7333 360.589C62.2286 359.787 61.4261 355.975 59.9215 355.172C57.6143 353.969 54.8056 353.868 52.2979 354.47C51.4954 354.671 50.6929 354.872 49.8904 354.671C48.9876 354.47 48.3858 353.668 48.0848 352.765C47.8842 351.862 47.9845 350.959 48.2855 350.057C48.5864 349.154 49.9907 347.749 50.392 346.847C51.5957 343.536 50.1914 340.326 51.997 337.317C53.301 335.11 55.7084 333.606 58.3165 333.305C60.9246 333.004 63.5327 334.007 65.4386 335.712C66.4417 336.615 67.846 338.621 67.7457 339.925C67.6454 340.828 67.3445 341.931 66.9432 342.834C65.7395 345.342 64.937 348.05 64.7364 350.659C64.4355 352.765 67.4448 355.072 67.6454 357.881Z" fill="#79D4E7"/>
<path d="M78.6791 480.962C116.905 480.962 147.893 480.288 147.893 479.457C147.893 478.626 116.905 477.952 78.6791 477.952C40.4531 477.952 9.46484 478.626 9.46484 479.457C9.46484 480.288 40.4531 480.962 78.6791 480.962Z" fill="#E1F6F8"/>
<path fill-rule="evenodd" clip-rule="evenodd" d="M60.8241 349.555H59.4197C55.4073 349.555 53.3008 346.646 53.3008 343.236L53.4011 339.524C53.4011 336.615 56.0092 334.408 59.4197 334.408C63.4321 334.408 66.7424 336.816 66.943 340.728V343.637C66.8427 347.349 65.2377 349.555 60.8241 349.555Z" fill="#FFB612"/>
<path d="M60.5227 461.1L41.0625 391.384L57.8144 389.579L66.742 459.696L65.3376 462.505L60.5227 461.1Z" fill="#008FCD"/>
<path fill-rule="evenodd" clip-rule="evenodd" d="M64.9359 461.1C65.638 461.1 66.3402 460.298 66.5408 459.596C66.7414 459.094 67.3433 458.793 67.8449 459.094L71.6567 460.699L74.2647 462.003C75.4685 462.505 76.0703 463.608 76.1706 464.912C76.1706 465.313 75.8697 465.614 75.5688 465.614H62.2275C61.3247 465.614 60.6225 464.912 60.6225 464.11L60.4219 461.1H64.9359Z" fill="black"/>
<path d="M88.6094 447.86C88.6094 465.314 102.753 479.457 120.207 479.457C137.661 479.457 151.705 465.314 151.705 447.86C151.705 430.406 137.561 416.262 120.207 416.262C102.753 416.362 88.6094 430.406 88.6094 447.86ZM92.4212 447.86C92.4212 432.512 104.86 420.074 120.207 420.074C135.555 420.074 147.993 432.512 147.993 447.86C147.993 463.207 135.555 475.646 120.207 475.646C104.86 475.646 92.4212 463.207 92.4212 447.86Z" fill="#FFB612"/>
<path d="M-4.37891 447.86C-4.37891 465.314 9.76488 479.457 27.2189 479.457C44.673 479.457 58.7164 465.314 58.7164 447.86C58.7164 430.406 44.5726 416.262 27.2189 416.262C9.76488 416.362 -4.37891 430.406 -4.37891 447.86ZM-0.567106 447.86C-0.567106 432.512 11.8714 420.074 27.2189 420.074C42.5664 420.074 55.0049 432.512 55.0049 447.86C55.0049 463.207 42.5664 475.646 27.2189 475.646C11.8714 475.646 -0.567106 463.207 -0.567106 447.86Z" fill="#FFB612"/>
<path d="M56.8115 395.297L46.6801 395.798C39.5581 395.798 36.649 387.573 39.2571 379.849L60.8239 384.664C60.9242 384.764 60.6233 395.297 56.8115 395.297Z" fill="#008FCD"/>
<path d="M110.878 405.729H108.771C106.765 405.729 105.16 404.124 105.16 402.118C105.16 400.111 106.765 398.506 108.771 398.506H110.878V405.729Z" fill="#002783"/>
<path d="M107.67 401.817C107.268 401.416 106.566 401.416 106.165 401.817L102.955 405.227C103.356 405.93 103.657 406.431 103.958 407.133L107.77 403.321C108.171 402.92 108.171 402.218 107.67 401.817Z" fill="#002783"/>
<path d="M49.6895 401.215L66.5416 451.169L105.462 413.453" stroke="#002783" stroke-width="1.959" stroke-miterlimit="10"/>
<path d="M57.8147 395.898H42.8684C41.464 395.898 40.4609 397.002 40.4609 398.306V399.911C40.4609 401.716 41.8653 403.121 43.6709 403.121H45.2758C46.7805 403.121 48.2852 402.72 49.5892 402.017L52.6988 400.312C53.2004 400.011 53.7019 399.911 54.3038 399.911H57.2128C58.5168 399.911 59.6203 398.807 59.6203 397.503C59.6203 396.701 58.8178 395.898 57.8147 395.898Z" fill="black"/>
<path d="M67.4446 460.298L27.3204 453.978C24.311 453.577 22.0039 451.069 22.0039 447.96C22.0039 444.65 24.7123 441.941 28.0225 441.941H68.548C73.6638 441.941 77.7766 446.054 77.7766 451.17C77.7766 456.687 72.9617 461 67.4446 460.298Z" fill="#002783"/>
<path d="M60.9238 433.715H69.1493C73.0614 433.715 76.8732 432.211 79.8825 429.603L102.653 406.431" stroke="#002783" stroke-width="1.959" stroke-miterlimit="10"/>
<path d="M124.02 447.859L112.684 434.016L96.6348 389.579H99.945" stroke="#002783" stroke-width="1.959" stroke-miterlimit="10" stroke-linecap="round" stroke-linejoin="round"/>
<path d="M51.1935 405.127L27.4199 446.756" stroke="#002783" stroke-width="1.959" stroke-miterlimit="10"/>
<path d="M44.6738 416.562L40.1599 411.948H9.46484" stroke="#002783" stroke-width="1.959" stroke-miterlimit="10" stroke-linecap="round" stroke-linejoin="round"/>
<path d="M69.752 451.27L74.2659 439.333" stroke="#007BC7" stroke-width="1.052" stroke-miterlimit="10" stroke-linecap="round"/>
<path d="M77.7757 440.938H70.754C69.9515 440.938 69.3496 440.336 69.3496 439.534C69.3496 438.731 69.9515 438.129 70.754 438.129H77.7757C78.5782 438.129 79.18 438.731 79.18 439.534C79.18 440.236 78.4779 440.938 77.7757 440.938Z" fill="#008FCD"/>
<path d="M68.5472 468.022H61.5254C60.723 468.022 60.1211 467.42 60.1211 466.617C60.1211 465.815 60.723 465.213 61.5254 465.213H68.5472C69.3497 465.213 69.9515 465.815 69.9515 466.617C69.9515 467.42 69.3497 468.022 68.5472 468.022Z" fill="#008FCD"/>
<path d="M60.8228 384.764L45.375 395.899L75.1672 404.124L67.8446 434.619L74.6657 434.92L86.9036 406.03C89.311 399.811 88.2076 394.896 81.888 392.388L60.8228 384.764Z" fill="#008FCD"/>
<path d="M44.474 380.752C44.474 380.752 39.7594 390.382 52.3985 393.491L80.4855 400.914L71.3572 431.91" stroke="#0069D1" stroke-width="0.8337" stroke-miterlimit="10"/>
<path d="M68.5469 431.91H75.9699" stroke="#0069D1" stroke-width="0.8337" stroke-miterlimit="10"/>
<path fill-rule="evenodd" clip-rule="evenodd" d="M73.5641 434.518C74.2663 434.518 74.9685 433.716 75.1691 433.013C75.3697 432.512 75.9716 432.211 76.4731 432.512L78.9809 434.117L81.589 435.421C82.7927 435.922 83.3945 437.026 83.4949 438.33C83.4949 438.731 83.1939 439.032 82.893 439.032H69.5517C68.6489 439.032 67.9467 438.33 67.9467 437.527L67.7461 434.518H73.5641Z" fill="black"/>
<path d="M42.0656 377.843L34.743 376.338C31.533 375.536 29.5268 372.326 30.3293 369.116L33.4389 355.975C34.2414 352.765 37.4513 350.759 40.6613 351.561L46.9808 353.066C49.0874 353.568 50.2911 355.875 49.3883 357.881L42.0656 377.843Z" fill="#FF7254"/>
<path fill-rule="evenodd" clip-rule="evenodd" d="M39.3574 379.949L60.7236 384.664L61.2251 373.83C61.3254 374.332 67.1434 369.517 66.5416 366.307C64.4351 356.476 61.0245 352.865 56.5105 352.163C49.9903 351.26 48.4857 356.777 43.9717 371.924L39.3574 379.949Z" fill="#004CBC"/>
<path d="M61.5257 374.231C60.2217 373.028 60.322 372.426 60.021 372.225C59.0179 371.523 49.1875 363.097 49.1875 363.097C49.1875 363.097 53.4005 374.733 57.413 383.861L60.7232 384.764L61.5257 374.231Z" fill="black"/>
<path d="M88.209 447.859C88.209 430.205 102.553 415.86 120.208 415.86" stroke="#002783" stroke-width="2.1039" stroke-miterlimit="10" stroke-linecap="round"/>
<path d="M-4.7793 447.859C-4.7793 430.205 9.56511 415.86 27.2198 415.86C44.8744 415.86 59.2188 430.205 59.2188 447.859" stroke="#002783" stroke-width="1.959" stroke-miterlimit="10" stroke-linecap="round"/>
<path fill-rule="evenodd" clip-rule="evenodd" d="M91.3188 383.56L92.7232 382.959C93.8266 382.557 94.93 382.557 95.9331 383.159L99.444 386.269C99.8452 386.67 100.046 387.272 100.046 387.774C99.9455 388.877 98.8421 389.579 97.839 389.278L90.416 387.974L91.3188 383.56Z" fill="#FFB612"/>
<path d="M62.5292 364.601H60.9242V361.893C60.9242 358.482 58.1155 355.674 54.7049 355.674H51.1941C48.8869 355.674 46.6801 356.978 45.4764 358.984L45.3761 359.185L43.8714 359.787L43.2695 358.282L44.2726 357.881C45.7773 355.473 48.3854 354.069 51.1941 354.069H54.7049C59.0183 354.069 62.5292 357.58 62.5292 361.893V364.601Z" fill="#FF7254"/>
<path d="M63.031 365.404L59.8211 359.085C58.3164 356.176 54.8055 354.972 51.8965 356.477C48.6866 358.082 47.5832 362.194 49.5894 365.103L53.9027 371.423L63.031 365.404Z" fill="#004CBC"/>
<path d="M69.5508 376.438L62.9303 365.203L53.9023 371.523L60.3222 380.451C62.1278 382.858 64.7359 384.563 67.7452 385.165L91.0173 388.275L92.8228 383.059L69.5508 376.438Z" fill="#FFB612"/>
<path fill-rule="evenodd" clip-rule="evenodd" d="M62.7305 344.439L65.9404 344.339C65.9404 344.339 65.3385 345.643 64.0345 345.643C63.0314 345.643 62.7305 344.439 62.7305 344.439Z" fill="white"/>
<path d="M54.5039 343.837C54.5039 343.837 57.2123 336.715 60.9238 334.408C60.9238 334.408 62.4284 334.007 64.4346 335.812C64.4346 335.812 65.1368 336.314 65.839 337.317C66.3405 338.019 66.7418 339.223 66.8421 340.326C66.8421 340.326 66.4409 337.919 64.3343 337.518C61.4253 337.016 57.7138 340.627 54.5039 343.837Z" fill="#008FCD"/>
<path d="M60.8246 349.555C61.0252 349.555 56.5113 346.947 58.1163 339.624C58.9187 335.712 62.0283 334.408 62.0283 334.408C62.0283 334.408 53.8029 332.201 52.6995 339.524C51.6964 345.843 53.4017 350.458 60.8246 349.555Z" fill="#79D4E7"/>
<path fill-rule="evenodd" clip-rule="evenodd" d="M213.998 332.001C219.816 332.001 226.135 332.803 226.737 356.978H206.775C206.876 356.878 202.362 332.001 213.998 332.001Z" fill="black"/>
<path d="M216.306 499.118C242.621 499.118 263.953 498.445 263.953 497.614C263.953 496.783 242.621 496.109 216.306 496.109C189.991 496.109 168.658 496.783 168.658 497.614C168.658 498.445 189.991 499.118 216.306 499.118Z" fill="#E1F6F8"/>
<path fill-rule="evenodd" clip-rule="evenodd" d="M218.512 356.577L210.588 356.778L212.293 346.145L219.215 344.239L218.512 356.577Z" fill="#FF7254"/>
<path d="M215.804 351.06L211.09 353.567L211.692 349.956L215.804 351.06Z" fill="#F25A37"/>
<path fill-rule="evenodd" clip-rule="evenodd" d="M185.41 482.066L183.003 490.793L179.392 491.094C178.188 491.194 177.185 491.896 176.583 492.899C176.282 493.401 176.583 494.103 177.185 494.304L187.717 497.915C188.42 498.216 189.222 497.814 189.523 497.012L193.636 484.473L185.41 482.066Z" fill="#79D4E7"/>
<path fill-rule="evenodd" clip-rule="evenodd" d="M239.176 484.172L243.589 491.996L241.282 494.705C240.48 495.607 240.279 496.911 240.68 498.015C240.881 498.516 241.583 498.717 242.085 498.516L251.012 494.103L252.016 493.601C252.718 493.3 253.019 492.398 252.617 491.695L246.599 479.959L239.176 484.172Z" fill="#79D4E7"/>
<path fill-rule="evenodd" clip-rule="evenodd" d="M203.265 394.996L183.604 478.956C183.103 480.862 184.306 482.868 186.212 483.37L193.435 485.276C195.341 485.777 197.447 484.674 197.949 482.768L222.826 397.303L203.265 394.996Z" fill="black"/>
<path fill-rule="evenodd" clip-rule="evenodd" d="M207.578 395.899L213.797 440.035C214.299 443.245 215.402 446.455 217.007 449.264L234.261 483.47C235.364 485.677 238.073 486.379 240.079 485.075L245.796 481.564C247.602 480.46 248.304 478.254 247.401 476.348L232.054 442.744C232.054 442.744 231.352 425.29 230.349 410.544C229.947 403.924 228.142 397.203 225.534 395.096C219.114 389.98 207.578 395.899 207.578 395.899Z" fill="#004CBC"/>
<path fill-rule="evenodd" clip-rule="evenodd" d="M225.134 394.996H203.266L203.667 376.84C203.667 376.84 200.959 374.633 200.959 371.222C200.959 366.608 203.968 364.502 206.877 361.593C209.586 358.784 209.686 356.577 213.999 356.577C220.72 356.577 226.839 362.596 227.842 374.432C228.344 380.15 228.043 387.774 227.842 392.488C227.842 393.893 226.638 394.996 225.134 394.996Z" fill="#FFB612"/>
<path fill-rule="evenodd" clip-rule="evenodd" d="M212.595 370.32L203.366 388.877L203.266 394.996H210.889L216.306 389.479L212.595 370.32Z" fill="#FF9E12"/>
<path fill-rule="evenodd" clip-rule="evenodd" d="M195.04 407.936L192.131 411.547C191.73 412.049 191.73 412.851 192.232 413.353V413.453L192.131 413.754C191.931 414.055 192.031 414.456 192.232 414.757C192.532 415.058 193.034 415.058 193.335 414.857L193.536 414.757L193.937 415.058C194.238 415.259 194.739 415.359 195.04 415.158L195.241 415.058L195.542 415.158C195.943 415.359 196.445 415.259 196.746 414.958L202.263 410.143L197.247 405.328L195.04 407.936Z" fill="#FF7254"/>
<path fill-rule="evenodd" clip-rule="evenodd" d="M194.74 409.54L192.935 409.942C192.433 410.042 191.932 409.641 191.932 409.139C191.932 408.838 192.132 408.537 192.333 408.437L196.546 406.23L198.051 408.437L196.546 410.042L194.74 409.54Z" fill="#FF7254"/>
<path fill-rule="evenodd" clip-rule="evenodd" d="M210.086 358.081L210.487 354.972H219.014V358.783L210.086 358.081Z" fill="#FFB612"/>
<path d="M233.86 418.067L223.428 418.669C220.92 418.869 218.713 416.863 218.613 414.355L218.111 406.531C217.911 404.023 219.917 401.817 222.425 401.716L232.857 401.114C235.365 400.914 237.572 402.92 237.672 405.428L238.174 413.252C238.274 415.76 236.368 417.967 233.86 418.067Z" fill="#008FCD"/>
<path d="M218.412 404.224L222.224 408.738C222.926 409.641 224.13 410.143 225.233 410.042L231.854 409.641C233.158 409.541 234.361 408.738 234.963 407.534L237.07 403.021" stroke="#0069D1" stroke-width="1.0421" stroke-miterlimit="10" stroke-linecap="round"/>
<path d="M220.318 404.124C220.318 404.124 212.895 380.15 212.895 365.806L221.521 364.201L235.163 403.021" stroke="#008FCD" stroke-width="2.0842" stroke-miterlimit="10"/>
<path fill-rule="evenodd" clip-rule="evenodd" d="M223.128 362.596L220.319 390.181L200.959 412.149L194.539 406.532L209.786 386.369L211.893 362.395L223.128 362.596Z" fill="#FFB612"/>
<path fill-rule="evenodd" clip-rule="evenodd" d="M221.623 343.236C221.021 347.95 215.705 352.364 210.89 351.863C205.473 351.261 204.57 347.95 205.072 343.236C205.573 338.02 208.582 333.205 213.698 333.104C219.817 333.205 222.526 336.214 221.623 343.236Z" fill="#FF7254"/>
<path fill-rule="evenodd" clip-rule="evenodd" d="M213.597 333.205C213.296 333.205 213.095 333.205 212.895 333.205C212.895 333.506 214.8 335.411 215.302 337.418C216.405 341.631 213.998 355.173 217.408 356.878H220.418C220.418 356.878 221.521 344.74 221.822 343.135C222.725 336.013 219.816 333.205 213.597 333.205Z" fill="black"/>
<path d="M216.506 345.543C217.558 345.543 218.411 344.689 218.411 343.637C218.411 342.584 217.558 341.731 216.506 341.731C215.453 341.731 214.6 342.584 214.6 343.637C214.6 344.689 215.453 345.543 216.506 345.543Z" fill="#FF7254"/>
<path fill-rule="evenodd" clip-rule="evenodd" d="M214.099 333.205C213.798 333.205 213.397 333.205 212.995 333.205C212.694 333.205 212.393 333.205 212.093 333.305C211.992 333.305 211.992 333.305 211.892 333.305C211.691 333.305 211.39 333.405 211.19 333.405H211.089C209.585 333.806 208.682 333.907 206.676 337.016L216.105 341.129L216.707 333.706C216.205 333.506 215.603 333.405 215.002 333.305H214.901C214.701 333.305 214.4 333.205 214.099 333.205Z" fill="black"/>
<path d="M207.076 346.446C207.076 346.446 207.377 347.449 208.681 347.348C209.885 347.248 210.487 346.145 210.487 346.145" stroke="black" stroke-width="0.5246" stroke-miterlimit="10"/>
</g>
<rect x="50" y="214" width="260" height="16" rx="8" fill="#E3E3E3"/>
<rect x="90" y="170" width="180" height="20" rx="10" fill="#D0D0D0"/>
<rect x="100" y="242" width="160" height="16" rx="8" fill="#E3E3E3"/>
<circle opacity="0.05" cx="184" cy="112" r="48" fill="#34C759"/>
<ellipse opacity="0.1" cx="184" cy="112" rx="36" ry="36" fill="#34C759"/>
<path d="M208 112C208 125.255 197.255 136 184 136C170.745 136 160 125.255 160 112C160 98.7452 170.745 88 184 88C197.255 88 208 98.7452 208 112Z" fill="#34C759"/>
<path d="M173 112.696L180 119.61L195 104.793" stroke="white" stroke-width="3" stroke-linecap="round" stroke-linejoin="round"/>
<rect width="360" height="24" fill="#212121" fill-opacity="0.08"/>
<path fill-rule="evenodd" clip-rule="evenodd" d="M316 7H306V17H316V7ZM324 12C324 9.23858 326.239 7 329 7C331.761 7 334 9.23858 334 12C334 14.7614 331.761 17 329 17C326.239 17 324 14.7614 324 12ZM346 17L352 7H340L346 17Z" fill="black" fill-opacity="0.12"/>
</g>
<rect width="360" height="512" transform="translate(0 548)" fill="white"/>
<rect width="360" height="74" transform="translate(0 548)" fill="white"/>
<rect x="16" y="552" width="32" height="32" rx="16" fill="#3472F6"/>
<path d="M28 566C28 565.558 28.3582 565.2 28.8 565.2H32V566.8H28.8C28.3582 566.8 28 566.442 28 566Z" fill="white"/>
<rect x="28" y="575.6" width="8" height="1.6" rx="0.8" fill="white"/>
<rect x="29.5996" y="565.2" width="4.8" height="12" rx="1" fill="white"/>
<ellipse cx="31.7992" cy="561" rx="2.6" ry="2.6" fill="white"/>
<rect x="72" y="554" width="129" height="12" rx="6" fill="#DDDDDD"/>
<rect x="72" y="574" width="200" height="12" rx="6" fill="#EEEEEE"/>
<rect x="72" y="594" width="160" height="12" rx="6" fill="#EEEEEE"/>
<rect y="606" width="16" height="16" fill="white"/>
<line x1="72" y1="621.5" x2="360" y2="621.5" stroke="#EEEEEE"/>
<rect width="360" height="74" transform="translate(0 638)" fill="white"/>
<rect x="16" y="642" width="32" height="32" rx="16" fill="#34C759"/>
<path fill-rule="evenodd" clip-rule="evenodd" d="M30.4379 651.2H25.9992C24.6739 651.2 23.5996 652.274 23.5996 653.6V663.998C23.5996 665.323 24.6739 666.397 25.9992 666.397H36.3975C37.7227 666.397 38.7971 665.323 38.7971 663.998V659.558H36.7971V663.998C36.7971 664.219 36.6182 664.397 36.3975 664.397H25.9992C25.7785 664.397 25.5996 664.219 25.5996 663.998V653.6C25.5996 653.379 25.7785 653.2 25.9992 653.2H30.4379V651.2Z" fill="white"/>
<path fill-rule="evenodd" clip-rule="evenodd" d="M32.7988 649.6H40.3976V657.199H38.7978V652.331L28.9652 662.164L27.834 661.033L37.6667 651.2H32.7988V649.6Z" fill="white"/>
<rect x="72" y="644" width="129" height="12" rx="6" fill="#DDDDDD"/>
<rect x="72" y="664" width="200" height="12" rx="6" fill="#EEEEEE"/>
<rect x="72" y="684" width="160" height="12" rx="6" fill="#EEEEEE"/>
</g>
<defs>
<linearGradient id="paint0_linear" x1="180" y1="0" x2="180" y2="495" gradientUnits="userSpaceOnUse">
<stop stop-color="#EEF7F9"/>
<stop offset="1" stop-color="white"/>
</linearGradient>
<clipPath id="clip0">
<rect width="360" height="688" fill="white"/>
</clipPath>
<clipPath id="clip1">
<rect width="360" height="548" fill="white"/>
</clipPath>
</defs>
</svg>
