<svg width="16" height="16" viewBox="0 0 16 16" fill="none" xmlns="http://www.w3.org/2000/svg">
<path fill-rule="evenodd" clip-rule="evenodd" d="M8 16C12.4183 16 16 12.4183 16 8C16 3.58172 12.4183 0 8 0C3.58172 0 0 3.58172 0 8C0 12.4183 3.58172 16 8 16ZM7.05121 3.99869C7.02336 3.4556 7.4562 3 8 3C8.5438 3 8.97664 3.4556 8.94879 3.99869L8.70081 8.83421C8.68168 9.20731 8.37359 9.5 8 9.5C7.62641 9.5 7.31832 9.20731 7.29919 8.83421L7.05121 3.99869ZM9 11.5C9 12.0523 8.55228 12.5 8 12.5C7.44772 12.5 7 12.0523 7 11.5C7 10.9477 7.44772 10.5 8 10.5C8.55228 10.5 9 10.9477 9 11.5Z" fill="#ED395A"/>
</svg>
