<svg width="30" height="30" viewBox="0 0 30 30" fill="none" xmlns="http://www.w3.org/2000/svg">
<g clip-path="url(#clip0)">
<path d="M25.9091 1.36329L1.36358 25.9088C0.610461 26.6619 0.610461 27.8829 1.36358 28.6361C2.11669 29.3892 3.33774 29.3892 4.09085 28.6361L28.6363 4.09057C29.3895 3.33745 29.3895 2.11641 28.6363 1.36329C27.8832 0.610174 26.6622 0.610176 25.9091 1.36329Z" fill="black"/>
<path d="M4.09085 1.36398C3.33774 0.61086 2.11669 0.61086 1.36358 1.36398C0.610461 2.11709 0.610461 3.33814 1.36358 4.09125L25.9091 28.6367C26.6622 29.3899 27.8832 29.3899 28.6363 28.6367C29.3895 27.8836 29.3895 26.6626 28.6363 25.9095L4.09085 1.36398Z" fill="black"/>
</g>
<defs>
<clipPath id="clip0">
<rect width="30" height="30" fill="white"/>
</clipPath>
</defs>
</svg>
