<svg width="360" height="688" viewBox="0 0 360 688" fill="none" xmlns="http://www.w3.org/2000/svg">
<g clip-path="url(#clip0)">
<path d="M360 0H0V688H360V0Z" fill="white"/>
<path d="M360 0H0V548H360V0Z" fill="white"/>
<path d="M360 0H0V495H360V0Z" fill="url(#paint0_linear)"/>
<path d="M91.6875 134.4H37.6875C38.025 133.7 38.475 132.9 38.925 132.2C44.1 124.4 53.6625 119.1 64.6875 119.1C74.8125 119.1 83.8125 123.6 89.2125 130.5C90.225 131.7 91.0125 133 91.6875 134.4Z" fill="white"/>
<path d="M41.2883 134.4H14.7383C17.7758 130.8 22.6133 128.5 28.0133 128.5C32.2883 128.5 36.1133 129.9 39.0383 132.2C39.8258 132.9 40.6133 133.6 41.2883 134.4Z" fill="white"/>
<path d="M121.613 134.4H86.625C87.3 133 88.2 131.7 89.2125 130.6C92.7 126.8 98.1 124.3 104.062 124.3C111.937 124.2 118.688 128.4 121.613 134.4Z" fill="white"/>
<path d="M-17.3242 106.6H36.6758C36.3383 105.9 35.8883 105.1 35.4383 104.4C30.2633 96.5998 20.7008 91.2998 9.67576 91.2998C-0.449238 91.2998 -9.44924 95.7998 -14.8492 102.7C-15.8617 103.9 -16.6492 105.2 -17.3242 106.6Z" fill="white"/>
<path d="M354.15 91.3H408.15C407.813 90.6 407.363 89.8 406.913 89.1C401.738 81.3 392.175 76 381.15 76C371.025 76 362.025 80.5 356.625 87.4C355.613 88.7 354.825 90 354.15 91.3Z" fill="white"/>
<path d="M324.225 91.3001H359.212C358.537 89.9002 357.637 88.6002 356.625 87.5002C353.137 83.7002 347.737 81.2002 341.775 81.2002C333.9 81.2002 327.15 85.3001 324.225 91.3001Z" fill="white"/>
<mask id="mask0" mask-type="alpha" maskUnits="userSpaceOnUse" x="-30" y="0" width="420" height="500">
<path d="M390 0H-30V499.75H390V0Z" fill="#C4C4C4"/>
</mask>
<g mask="url(#mask0)">
<path d="M184.306 451.871H99.9453V367.51L141.273 324.577L184.306 367.51V451.871Z" fill="#E1F6F8"/>
<path d="M379.009 283.952C379.21 282.347 379.31 280.742 379.21 279.137C378.608 265.997 367.975 255.163 354.834 254.361C339.687 253.458 327.048 265.395 327.048 280.441C327.048 281.745 327.149 282.949 327.349 284.153C328.954 294.986 326.145 306.02 319.324 314.547C313.105 322.271 309.494 332.202 309.795 343.035C310.497 366.207 329.757 384.965 353.029 385.065C377.103 385.165 396.563 365.705 396.563 341.731C396.563 331.399 392.952 321.97 386.934 314.447C380.012 305.92 377.504 294.786 379.009 283.952Z" fill="#E1F6F8"/>
<path d="M349.818 283.148V426.091" stroke="#BAE7EF" stroke-width="0.9539" stroke-miterlimit="10"/>
<path d="M338.283 298.195L349.819 309.731" stroke="#BAE7EF" stroke-width="0.9539" stroke-miterlimit="10"/>
<path d="M349.818 330.596L368.978 311.537" stroke="#BAE7EF" stroke-width="0.9539" stroke-miterlimit="10"/>
<path d="M349.819 350.558L325.645 326.383" stroke="#BAE7EF" stroke-width="0.9539" stroke-miterlimit="10"/>
<path d="M104.961 367.812L87.3059 314.948L33.74 282.146L-19.8258 314.948L-37.4805 367.812H-34.3708V452.173H101.851L101.751 367.812H104.961Z" fill="#E1F6F8"/>
<path d="M16.4858 351.762H-7.1875V388.676H16.4858V351.762Z" fill="white"/>
<path d="M68.8491 351.762H45.1758V388.676H68.8491V351.762Z" fill="white"/>
<path d="M4.75 351.762V388.978" stroke="#E1F6F8" stroke-width="1.0301" stroke-miterlimit="10"/>
<path d="M-7.1875 370.62H16.5861" stroke="#E1F6F8" stroke-width="1.0301" stroke-miterlimit="10"/>
<path d="M300.667 359.284C300.466 359.284 300.266 359.184 300.166 358.983L298.36 354.971C298.26 354.67 298.36 354.369 298.661 354.168C298.962 354.068 299.263 354.168 299.463 354.469L301.269 358.482C301.369 358.782 301.269 359.083 300.968 359.284C300.868 359.284 300.767 359.284 300.667 359.284Z" fill="#FAC47D"/>
<path d="M299.363 360.187C299.162 360.187 298.961 360.087 298.861 359.886L295.952 354.971C295.751 354.67 295.852 354.369 296.153 354.168C296.454 353.968 296.755 354.068 296.955 354.369L299.864 359.284C300.065 359.585 299.964 359.886 299.664 360.087C299.563 360.187 299.463 360.187 299.363 360.187Z" fill="#FAC47D"/>
<path d="M297.859 361.091C297.658 361.091 297.457 360.991 297.357 360.79L294.448 355.875C294.248 355.574 294.348 355.273 294.649 355.072C294.95 354.872 295.251 354.972 295.451 355.273L298.36 360.188C298.561 360.489 298.461 360.79 298.16 360.991C298.059 361.091 297.959 361.091 297.859 361.091Z" fill="#FAC47D"/>
<path d="M296.454 361.994C296.253 361.994 296.053 361.893 295.952 361.693L293.946 358.082C293.746 357.781 293.846 357.48 294.147 357.279C294.448 357.079 294.749 357.179 294.949 357.48L296.955 361.091C297.156 361.392 297.056 361.693 296.755 361.893C296.655 361.994 296.554 361.994 296.454 361.994Z" fill="#FAC47D"/>
<path d="M302.372 363.197L302.272 359.185L299.563 357.179L295.25 360.288L297.657 365.103L302.372 363.197Z" fill="#FAC47D"/>
<path d="M301.569 361.191C301.168 361.191 300.867 360.89 300.867 360.489V356.075C300.867 355.674 301.168 355.373 301.569 355.373C301.971 355.373 302.272 355.674 302.272 356.075V360.489C302.272 360.89 301.971 361.191 301.569 361.191Z" fill="#FAC47D"/>
<path d="M292.743 383.158L285.52 410.242C285.22 411.345 286.022 412.449 287.226 412.449C288.028 412.449 288.73 411.947 288.931 411.145L296.153 384.061C296.454 382.957 295.652 381.854 294.448 381.854C293.646 381.854 292.943 382.356 292.743 383.158Z" fill="#FF7254"/>
<path d="M269.972 400.11H389.341C390.846 400.11 391.949 401.515 391.548 403.019C391.247 404.022 390.344 404.725 389.341 404.725H269.972C268.467 404.725 267.363 403.32 267.765 401.816C267.965 400.813 268.968 400.11 269.972 400.11Z" fill="#FFB612"/>
<path d="M274.184 384.362H393.554C395.059 384.362 396.162 385.766 395.761 387.271C395.46 388.274 394.557 388.976 393.554 388.976H274.184C272.68 388.976 271.576 387.571 271.978 386.067C272.178 385.064 273.181 384.362 274.184 384.362Z" fill="#FFB612"/>
<path d="M272.079 392.286H391.449C392.953 392.286 394.057 393.69 393.655 395.195C393.354 396.198 392.452 396.9 391.449 396.9H272.079C270.574 396.9 269.471 395.496 269.872 393.991C270.073 392.988 271.076 392.286 272.079 392.286Z" fill="#FFB612"/>
<path d="M260.743 451.37H257.533L266.561 417.766H269.771L260.743 451.37Z" fill="#008FCD"/>
<path d="M294.749 451.37H297.858L288.83 417.766H285.721L294.749 451.37Z" fill="#008FCD"/>
<path d="M344.503 451.37H341.293L350.321 417.766H353.531L344.503 451.37Z" fill="#008FCD"/>
<path d="M386.633 414.455H254.524C252.719 414.455 251.314 413.05 251.314 411.245C251.314 409.439 252.719 408.035 254.524 408.035H386.633C388.439 408.035 389.843 409.439 389.843 411.245C389.843 413.05 388.439 414.455 386.633 414.455Z" fill="#FFB612"/>
<path d="M386.633 414.455H357.944C356.139 414.455 354.734 413.05 354.734 411.245C354.734 409.439 356.139 408.035 357.944 408.035H386.633C388.439 408.035 389.843 409.439 389.843 411.245C389.843 413.05 388.439 414.455 386.633 414.455Z" fill="#FF7254"/>
<path d="M377.104 414.455H262.75V417.765H377.104V414.455Z" fill="#008FCD"/>
<path d="M313.307 375.535L326.949 364.501L328.754 375.133C328.754 375.133 317.72 385.064 312.203 385.064C306.786 385.064 297.658 365.102 297.658 365.102L302.373 361.692L313.307 375.535Z" fill="#79D4E7"/>
<path d="M324.54 378.545L325.343 368.414L319.926 381.855C321.531 380.752 323.136 379.648 324.54 378.545Z" fill="#38BFDB"/>
<path d="M322.635 397.904H350.22L351.023 383.961L351.424 374.733C351.524 372.325 350.922 369.918 349.518 367.912C347.512 365.003 344.202 363.297 340.691 363.297H331.663C324.741 363.297 324.44 367.811 324.039 375.435L323.337 388.776L322.635 397.904Z" fill="#79D4E7"/>
<path d="M351.123 383.961L351.524 374.732C351.524 374.431 351.524 374.13 351.524 373.829C351.123 373.829 350.722 373.93 350.421 374.03C348.214 374.431 346.408 375.635 344.703 377.039C343.499 377.942 342.396 379.146 341.293 380.149C336.177 385.164 330.359 389.277 324.44 393.189C323.939 393.49 323.437 393.791 322.936 394.192L322.635 397.904H350.22L351.123 383.961Z" fill="#38BFDB"/>
<path d="M322.133 408.237L322.936 396.099C309.494 396.099 288.931 394.394 289.833 407.434C291.338 421.979 293.545 433.515 295.752 448.06L300.868 447.759C301.469 434.618 301.469 408.237 301.469 408.237H322.133Z" fill="black"/>
<path d="M335.173 408.236V396.098C321.23 396.098 305.381 394.594 305.381 407.434C306.886 421.979 309.092 433.514 311.299 448.059L316.415 447.758C317.017 434.618 317.017 408.236 317.017 408.236H335.173Z" fill="#004CBC"/>
<path d="M350.62 396.099C350.119 402.92 345.304 408.136 337.68 408.136H333.668V396.099H350.62Z" fill="#004CBC"/>
<path d="M335.273 352.463L337.38 352.564C339.487 352.664 341.292 350.959 341.292 348.852V347.448C341.392 344.138 338.784 341.429 335.474 341.329L335.273 352.463Z" fill="#FF7254"/>
<path d="M333.469 353.065L332.064 363.898L334.071 367.811L339.187 363.898L339.889 353.065H333.469Z" fill="#FAC47D"/>
<path d="M332.966 353.366L332.766 360.387C335.976 360.287 338.584 357.779 338.684 354.569V353.566L332.966 353.366Z" fill="#004CBC"/>
<path d="M332.266 361.792C335.776 361.19 338.685 358.181 338.685 354.971V353.867H333.369L332.266 361.792Z" fill="#42145F"/>
<path d="M333.668 360.389H333.869C337.179 360.489 339.988 357.881 339.988 354.571L340.189 347.449C340.289 344.138 337.681 341.33 334.371 341.33H334.17C330.86 341.229 328.051 343.837 328.051 347.148L327.85 354.27C327.75 357.48 330.358 360.288 333.668 360.389Z" fill="#FAC47D"/>
<path d="M340.088 352.364C341.14 352.364 341.993 351.51 341.993 350.458C341.993 349.405 341.14 348.552 340.088 348.552C339.035 348.552 338.182 349.405 338.182 350.458C338.182 351.51 339.035 352.364 340.088 352.364Z" fill="#FAC47D"/>
<path d="M337.881 350.758V352.563C337.881 352.965 337.681 353.265 337.48 353.566C336.878 354.168 335.975 354.168 335.474 353.566L334.571 352.563C334.27 352.262 333.969 352.162 333.568 352.162L329.255 352.062C328.553 352.062 327.951 352.664 327.85 353.366V354.269C327.75 357.679 330.458 360.388 333.769 360.488C337.179 360.588 339.888 357.88 339.988 354.57L340.088 348.651C338.985 348.551 337.881 349.554 337.881 350.758Z" fill="#FF7254"/>
<path d="M333.268 353.367C333.268 353.367 332.264 354.47 331.161 354.47C330.258 354.47 329.355 353.267 329.355 353.267L333.268 353.367Z" fill="#F6E4EB"/>
<path d="M330.058 345.643L337.481 345.842C337.782 345.842 338.083 346.144 338.083 346.445C338.083 347.649 338.986 348.552 340.19 348.652L340.29 346.245C340.39 343.636 338.284 341.43 335.575 341.329L330.76 341.229C329.356 341.229 328.253 342.332 328.253 343.737C328.152 344.74 328.955 345.542 330.058 345.643Z" fill="#FF7254"/>
<path d="M317.619 451.369H303.274C302.773 451.369 302.472 450.868 302.672 450.467L302.773 450.266C303.073 449.564 303.776 448.962 304.578 448.761L308.791 447.457L310.597 445.652C310.998 445.25 311.6 445.25 312.001 445.652C312.302 445.953 312.904 446.253 313.606 446.253C314.609 446.253 315.211 445.752 316.114 445.351C316.615 445.15 317.217 445.451 317.217 446.053L317.619 451.369Z" fill="#FF7254"/>
<path d="M301.77 451.369H287.526C287.024 451.369 286.724 450.868 286.924 450.467L287.024 450.266C287.325 449.564 288.028 448.962 288.83 448.761L293.043 447.457L294.849 445.652C295.25 445.25 295.852 445.25 296.253 445.652C296.554 445.953 297.156 446.253 297.858 446.253C298.861 446.253 299.463 445.752 300.366 445.351C300.867 445.15 301.469 445.451 301.469 446.053L301.77 451.369Z" fill="#FF7254"/>
<path d="M334.07 367.812L335.475 369.617L340.29 363.197L339.286 362.395L334.07 367.812Z" fill="white"/>
<path d="M334.071 367.811L332.165 363.197L331.764 369.215L334.071 367.811Z" fill="white"/>
<path d="M334.373 395.998H327.451L326.047 384.362H335.677L334.373 395.998Z" fill="white"/>
<path d="M335.475 386.268H326.247C325.545 386.268 325.043 385.766 325.043 385.064C325.043 384.362 325.545 383.86 326.247 383.86H335.475C336.177 383.86 336.679 384.362 336.679 385.064C336.679 385.766 336.177 386.268 335.475 386.268Z" fill="#004CBC"/>
<path d="M333.87 382.657H327.952C327.651 382.657 327.45 382.857 327.35 383.058L326.748 384.462H335.174L334.572 383.058C334.372 382.757 334.071 382.657 333.87 382.657Z" fill="#004CBC"/>
<path d="M337.582 390.682H331.964C330.861 390.682 330.059 391.585 330.059 392.588V394.394C330.059 395.297 330.761 395.999 331.664 395.999H337.983L337.582 390.682Z" fill="#FAC47D"/>
<path d="M350.019 368.414L359.147 388.977C359.448 389.579 359.549 390.281 359.549 390.983C359.549 393.792 357.342 395.999 354.533 395.999H336.678V389.679L350.621 388.977L342.696 373.63L350.019 368.414Z" fill="#79D4E7"/>
<path d="M67.6454 357.881C67.846 360.288 65.9401 360.89 65.3383 360.99C64.7364 361.091 64.2348 360.89 63.7333 360.589C62.2286 359.787 61.4261 355.975 59.9215 355.172C57.6143 353.969 54.8056 353.868 52.2979 354.47C51.4954 354.671 50.6929 354.872 49.8904 354.671C48.9876 354.47 48.3858 353.668 48.0848 352.765C47.8842 351.862 47.9845 350.959 48.2855 350.057C48.5864 349.154 49.9907 347.749 50.392 346.847C51.5957 343.536 50.1914 340.326 51.997 337.317C53.301 335.11 55.7084 333.606 58.3165 333.305C60.9246 333.004 63.5327 334.007 65.4386 335.712C66.4417 336.615 67.846 338.621 67.7457 339.925C67.6454 340.828 67.3445 341.931 66.9432 342.834C65.7395 345.342 64.937 348.05 64.7364 350.659C64.4355 352.765 67.4448 355.072 67.6454 357.881Z" fill="#79D4E7"/>
<path d="M78.6791 480.961C116.905 480.961 147.893 480.287 147.893 479.456C147.893 478.625 116.905 477.951 78.6791 477.951C40.4531 477.951 9.46484 478.625 9.46484 479.456C9.46484 480.287 40.4531 480.961 78.6791 480.961Z" fill="#E1F6F8"/>
<path fill-rule="evenodd" clip-rule="evenodd" d="M60.8241 349.554H59.4197C55.4073 349.554 53.3008 346.645 53.3008 343.235L53.4011 339.523C53.4011 336.614 56.0092 334.407 59.4197 334.407C63.4321 334.407 66.7424 336.815 66.943 340.727V343.636C66.8427 347.348 65.2377 349.554 60.8241 349.554Z" fill="#FFB612"/>
<path d="M60.5227 461.099L41.0625 391.383L57.8144 389.578L66.742 459.695L65.3376 462.504L60.5227 461.099Z" fill="#008FCD"/>
<path fill-rule="evenodd" clip-rule="evenodd" d="M64.9359 461.1C65.638 461.1 66.3402 460.298 66.5408 459.596C66.7414 459.094 67.3433 458.793 67.8449 459.094L71.6567 460.699L74.2647 462.003C75.4685 462.505 76.0703 463.608 76.1706 464.912C76.1706 465.313 75.8697 465.614 75.5688 465.614H62.2275C61.3247 465.614 60.6225 464.912 60.6225 464.11L60.4219 461.1H64.9359Z" fill="black"/>
<path d="M88.6094 447.86C88.6094 465.314 102.753 479.457 120.207 479.457C137.661 479.457 151.705 465.314 151.705 447.86C151.705 430.406 137.561 416.262 120.207 416.262C102.753 416.362 88.6094 430.406 88.6094 447.86ZM92.4212 447.86C92.4212 432.512 104.86 420.074 120.207 420.074C135.555 420.074 147.993 432.512 147.993 447.86C147.993 463.207 135.555 475.646 120.207 475.646C104.86 475.646 92.4212 463.207 92.4212 447.86Z" fill="#FFB612"/>
<path d="M-4.37891 447.86C-4.37891 465.314 9.76488 479.457 27.2189 479.457C44.673 479.457 58.7164 465.314 58.7164 447.86C58.7164 430.406 44.5726 416.262 27.2189 416.262C9.76488 416.362 -4.37891 430.406 -4.37891 447.86ZM-0.567102 447.86C-0.567102 432.512 11.8714 420.074 27.2189 420.074C42.5664 420.074 55.0049 432.512 55.0049 447.86C55.0049 463.207 42.5664 475.646 27.2189 475.646C11.8714 475.646 -0.567102 463.207 -0.567102 447.86Z" fill="#FFB612"/>
<path d="M56.8115 395.297L46.6801 395.798C39.5581 395.798 36.649 387.573 39.2571 379.849L60.8239 384.664C60.9242 384.764 60.6233 395.297 56.8115 395.297Z" fill="#008FCD"/>
<path d="M110.878 405.729H108.771C106.765 405.729 105.16 404.124 105.16 402.118C105.16 400.111 106.765 398.506 108.771 398.506H110.878V405.729Z" fill="#002783"/>
<path d="M107.67 401.816C107.268 401.415 106.566 401.415 106.165 401.816L102.955 405.226C103.356 405.929 103.657 406.43 103.958 407.132L107.77 403.32C108.171 402.919 108.171 402.217 107.67 401.816Z" fill="#002783"/>
<path d="M49.6895 401.215L66.5416 451.169L105.462 413.453" stroke="#002783" stroke-width="1.959" stroke-miterlimit="10"/>
<path d="M57.8147 395.897H42.8684C41.464 395.897 40.4609 397.001 40.4609 398.305V399.91C40.4609 401.715 41.8653 403.12 43.6709 403.12H45.2758C46.7805 403.12 48.2852 402.719 49.5892 402.016L52.6988 400.311C53.2004 400.01 53.7019 399.91 54.3038 399.91H57.2128C58.5168 399.91 59.6203 398.806 59.6203 397.502C59.6203 396.7 58.8178 395.897 57.8147 395.897Z" fill="black"/>
<path d="M67.4446 460.297L27.3204 453.977C24.311 453.576 22.0039 451.068 22.0039 447.959C22.0039 444.649 24.7123 441.94 28.0225 441.94H68.548C73.6638 441.94 77.7766 446.053 77.7766 451.169C77.7766 456.686 72.9617 460.999 67.4446 460.297Z" fill="#002783"/>
<path d="M60.9238 433.715H69.1493C73.0614 433.715 76.8732 432.211 79.8825 429.603L102.653 406.431" stroke="#002783" stroke-width="1.959" stroke-miterlimit="10"/>
<path d="M124.02 447.858L112.684 434.015L96.6348 389.578H99.945" stroke="#002783" stroke-width="1.959" stroke-miterlimit="10" stroke-linecap="round" stroke-linejoin="round"/>
<path d="M51.1935 405.127L27.4199 446.756" stroke="#002783" stroke-width="1.959" stroke-miterlimit="10"/>
<path d="M44.6738 416.561L40.1599 411.947H9.46484" stroke="#002783" stroke-width="1.959" stroke-miterlimit="10" stroke-linecap="round" stroke-linejoin="round"/>
<path d="M69.752 451.27L74.2659 439.333" stroke="#007BC7" stroke-width="1.052" stroke-miterlimit="10" stroke-linecap="round"/>
<path d="M77.7757 440.938H70.754C69.9515 440.938 69.3496 440.336 69.3496 439.534C69.3496 438.731 69.9515 438.129 70.754 438.129H77.7757C78.5782 438.129 79.18 438.731 79.18 439.534C79.18 440.236 78.4779 440.938 77.7757 440.938Z" fill="#008FCD"/>
<path d="M68.5473 468.022H61.5255C60.7231 468.022 60.1212 467.42 60.1212 466.617C60.1212 465.815 60.7231 465.213 61.5255 465.213H68.5473C69.3498 465.213 69.9516 465.815 69.9516 466.617C69.9516 467.42 69.3498 468.022 68.5473 468.022Z" fill="#008FCD"/>
<path d="M60.8228 384.764L45.375 395.899L75.1672 404.124L67.8446 434.619L74.6657 434.92L86.9036 406.03C89.311 399.811 88.2076 394.896 81.888 392.388L60.8228 384.764Z" fill="#008FCD"/>
<path d="M44.4741 380.752C44.4741 380.752 39.7595 390.382 52.3986 393.491L80.4855 400.914L71.3573 431.91" stroke="#0069D1" stroke-width="0.8337" stroke-miterlimit="10"/>
<path d="M68.5469 431.909H75.9699" stroke="#0069D1" stroke-width="0.8337" stroke-miterlimit="10"/>
<path fill-rule="evenodd" clip-rule="evenodd" d="M73.5642 434.518C74.2664 434.518 74.9686 433.716 75.1692 433.013C75.3698 432.512 75.9717 432.211 76.4732 432.512L78.981 434.117L81.5891 435.421C82.7928 435.922 83.3946 437.026 83.495 438.33C83.495 438.731 83.194 439.032 82.8931 439.032H69.5518C68.649 439.032 67.9468 438.33 67.9468 437.527L67.7462 434.518H73.5642Z" fill="black"/>
<path d="M42.0656 377.843L34.743 376.338C31.533 375.536 29.5268 372.326 30.3293 369.116L33.4389 355.975C34.2414 352.765 37.4513 350.759 40.6613 351.561L46.9808 353.066C49.0874 353.568 50.2911 355.875 49.3883 357.881L42.0656 377.843Z" fill="#FF7254"/>
<path fill-rule="evenodd" clip-rule="evenodd" d="M39.3574 379.949L60.7236 384.664L61.2251 373.83C61.3254 374.332 67.1434 369.517 66.5416 366.307C64.4351 356.476 61.0245 352.865 56.5105 352.163C49.9903 351.26 48.4857 356.777 43.9717 371.924L39.3574 379.949Z" fill="#004CBC"/>
<path d="M61.5257 374.231C60.2217 373.028 60.322 372.426 60.021 372.225C59.0179 371.523 49.1875 363.097 49.1875 363.097C49.1875 363.097 53.4005 374.733 57.413 383.861L60.7232 384.764L61.5257 374.231Z" fill="black"/>
<path d="M88.209 447.858C88.209 430.204 102.553 415.859 120.208 415.859" stroke="#002783" stroke-width="2.1039" stroke-miterlimit="10" stroke-linecap="round"/>
<path d="M-4.7793 447.858C-4.7793 430.204 9.56511 415.859 27.2198 415.859C44.8744 415.859 59.2188 430.204 59.2188 447.858" stroke="#002783" stroke-width="1.959" stroke-miterlimit="10" stroke-linecap="round"/>
<path fill-rule="evenodd" clip-rule="evenodd" d="M91.3188 383.56L92.7232 382.959C93.8266 382.557 94.93 382.557 95.9331 383.159L99.444 386.269C99.8452 386.67 100.046 387.272 100.046 387.774C99.9455 388.877 98.8421 389.579 97.839 389.278L90.416 387.974L91.3188 383.56Z" fill="#FFB612"/>
<path d="M62.5292 364.6H60.9242V361.892C60.9242 358.481 58.1155 355.673 54.7049 355.673H51.1941C48.8869 355.673 46.6801 356.977 45.4764 358.983L45.3761 359.184L43.8714 359.786L43.2695 358.281L44.2726 357.88C45.7773 355.472 48.3854 354.068 51.1941 354.068H54.7049C59.0183 354.068 62.5292 357.579 62.5292 361.892V364.6Z" fill="#FF7254"/>
<path d="M63.031 365.404L59.8211 359.085C58.3164 356.176 54.8055 354.972 51.8965 356.477C48.6866 358.082 47.5832 362.194 49.5894 365.103L53.9027 371.423L63.031 365.404Z" fill="#004CBC"/>
<path d="M69.5508 376.437L62.9303 365.202L53.9023 371.522L60.3222 380.45C62.1278 382.857 64.7359 384.562 67.7452 385.164L91.0173 388.274L92.8228 383.058L69.5508 376.437Z" fill="#FFB612"/>
<path fill-rule="evenodd" clip-rule="evenodd" d="M62.7305 344.439L65.9404 344.339C65.9404 344.339 65.3385 345.643 64.0345 345.643C63.0314 345.643 62.7305 344.439 62.7305 344.439Z" fill="white"/>
<path d="M54.5039 343.836C54.5039 343.836 57.2123 336.714 60.9238 334.407C60.9238 334.407 62.4284 334.006 64.4346 335.811C64.4346 335.811 65.1368 336.313 65.839 337.316C66.3405 338.018 66.7418 339.222 66.8421 340.325C66.8421 340.325 66.4409 337.918 64.3343 337.517C61.4253 337.015 57.7138 340.626 54.5039 343.836Z" fill="#008FCD"/>
<path d="M60.8246 349.555C61.0252 349.555 56.5113 346.947 58.1163 339.624C58.9187 335.712 62.0283 334.408 62.0283 334.408C62.0283 334.408 53.8029 332.201 52.6995 339.524C51.6964 345.843 53.4017 350.458 60.8246 349.555Z" fill="#79D4E7"/>
<path fill-rule="evenodd" clip-rule="evenodd" d="M213.998 332.001C219.816 332.001 226.135 332.803 226.737 356.978H206.775C206.876 356.878 202.362 332.001 213.998 332.001Z" fill="black"/>
<path d="M216.306 499.117C242.621 499.117 263.953 498.444 263.953 497.613C263.953 496.782 242.621 496.108 216.306 496.108C189.991 496.108 168.658 496.782 168.658 497.613C168.658 498.444 189.991 499.117 216.306 499.117Z" fill="#E1F6F8"/>
<path fill-rule="evenodd" clip-rule="evenodd" d="M218.512 356.576L210.588 356.777L212.293 346.144L219.215 344.238L218.512 356.576Z" fill="#FF7254"/>
<path d="M215.804 351.059L211.09 353.566L211.692 349.955L215.804 351.059Z" fill="#F25A37"/>
<path fill-rule="evenodd" clip-rule="evenodd" d="M185.41 482.065L183.003 490.792L179.392 491.093C178.188 491.193 177.185 491.895 176.583 492.898C176.282 493.4 176.583 494.102 177.185 494.303L187.717 497.914C188.42 498.215 189.222 497.813 189.523 497.011L193.636 484.472L185.41 482.065Z" fill="#79D4E7"/>
<path fill-rule="evenodd" clip-rule="evenodd" d="M239.176 484.172L243.589 491.996L241.282 494.705C240.48 495.607 240.279 496.911 240.68 498.015C240.881 498.516 241.583 498.717 242.085 498.516L251.012 494.103L252.016 493.601C252.718 493.3 253.019 492.398 252.617 491.695L246.599 479.959L239.176 484.172Z" fill="#79D4E7"/>
<path fill-rule="evenodd" clip-rule="evenodd" d="M203.265 394.995L183.604 478.955C183.103 480.861 184.306 482.867 186.212 483.369L193.435 485.275C195.341 485.776 197.447 484.673 197.949 482.767L222.826 397.302L203.265 394.995Z" fill="black"/>
<path fill-rule="evenodd" clip-rule="evenodd" d="M207.578 395.898L213.797 440.034C214.299 443.244 215.402 446.454 217.007 449.263L234.261 483.469C235.364 485.676 238.073 486.378 240.079 485.074L245.796 481.563C247.602 480.459 248.304 478.253 247.401 476.347L232.054 442.743C232.054 442.743 231.352 425.289 230.349 410.543C229.947 403.923 228.142 397.202 225.534 395.095C219.114 389.979 207.578 395.898 207.578 395.898Z" fill="#004CBC"/>
<path fill-rule="evenodd" clip-rule="evenodd" d="M225.134 394.995H203.266L203.667 376.839C203.667 376.839 200.959 374.632 200.959 371.221C200.959 366.607 203.968 364.501 206.877 361.592C209.586 358.783 209.686 356.576 213.999 356.576C220.72 356.576 226.839 362.595 227.842 374.431C228.344 380.149 228.043 387.773 227.842 392.487C227.842 393.892 226.638 394.995 225.134 394.995Z" fill="#FFB612"/>
<path fill-rule="evenodd" clip-rule="evenodd" d="M212.595 370.319L203.366 388.876L203.266 394.995H210.889L216.306 389.478L212.595 370.319Z" fill="#FF9E12"/>
<path fill-rule="evenodd" clip-rule="evenodd" d="M195.04 407.935L192.131 411.546C191.73 412.048 191.73 412.85 192.232 413.352V413.452L192.131 413.753C191.931 414.054 192.031 414.455 192.232 414.756C192.532 415.057 193.034 415.057 193.335 414.856L193.536 414.756L193.937 415.057C194.238 415.258 194.739 415.358 195.04 415.157L195.241 415.057L195.542 415.157C195.943 415.358 196.445 415.258 196.746 414.957L202.263 410.142L197.247 405.327L195.04 407.935Z" fill="#FF7254"/>
<path fill-rule="evenodd" clip-rule="evenodd" d="M194.74 409.539L192.935 409.941C192.433 410.041 191.932 409.64 191.932 409.138C191.932 408.837 192.132 408.536 192.333 408.436L196.546 406.229L198.051 408.436L196.546 410.041L194.74 409.539Z" fill="#FF7254"/>
<path fill-rule="evenodd" clip-rule="evenodd" d="M210.086 358.081L210.487 354.972H219.014V358.783L210.086 358.081Z" fill="#FFB612"/>
<path d="M233.86 418.066L223.428 418.668C220.92 418.868 218.713 416.862 218.613 414.354L218.111 406.53C217.911 404.022 219.917 401.816 222.425 401.715L232.857 401.113C235.365 400.913 237.572 402.919 237.672 405.427L238.174 413.251C238.274 415.759 236.368 417.966 233.86 418.066Z" fill="#008FCD"/>
<path d="M218.412 404.224L222.224 408.738C222.926 409.641 224.13 410.143 225.233 410.042L231.854 409.641C233.158 409.541 234.361 408.738 234.963 407.534L237.07 403.021" stroke="#0069D1" stroke-width="1.0421" stroke-miterlimit="10" stroke-linecap="round"/>
<path d="M220.318 404.123C220.318 404.123 212.895 380.149 212.895 365.805L221.521 364.2L235.163 403.02" stroke="#008FCD" stroke-width="2.0842" stroke-miterlimit="10"/>
<path fill-rule="evenodd" clip-rule="evenodd" d="M223.128 362.596L220.319 390.181L200.959 412.149L194.539 406.532L209.786 386.369L211.893 362.395L223.128 362.596Z" fill="#FFB612"/>
<path fill-rule="evenodd" clip-rule="evenodd" d="M221.623 343.236C221.021 347.95 215.705 352.364 210.89 351.863C205.473 351.261 204.57 347.95 205.072 343.236C205.573 338.02 208.582 333.205 213.698 333.104C219.817 333.205 222.526 336.214 221.623 343.236Z" fill="#FF7254"/>
<path fill-rule="evenodd" clip-rule="evenodd" d="M213.597 333.204C213.296 333.204 213.095 333.204 212.895 333.204C212.895 333.505 214.8 335.41 215.302 337.417C216.405 341.63 213.998 355.172 217.408 356.877H220.418C220.418 356.877 221.521 344.739 221.822 343.134C222.725 336.012 219.816 333.204 213.597 333.204Z" fill="black"/>
<path d="M216.506 345.542C217.558 345.542 218.411 344.688 218.411 343.636C218.411 342.583 217.558 341.73 216.506 341.73C215.453 341.73 214.6 342.583 214.6 343.636C214.6 344.688 215.453 345.542 216.506 345.542Z" fill="#FF7254"/>
<path fill-rule="evenodd" clip-rule="evenodd" d="M214.099 333.204C213.798 333.204 213.397 333.204 212.995 333.204C212.694 333.204 212.393 333.204 212.093 333.304C211.992 333.304 211.992 333.304 211.892 333.304C211.691 333.304 211.39 333.404 211.19 333.404H211.089C209.585 333.805 208.682 333.906 206.676 337.015L216.105 341.128L216.707 333.705C216.205 333.505 215.603 333.404 215.002 333.304H214.901C214.701 333.304 214.4 333.204 214.099 333.204Z" fill="black"/>
<path d="M207.076 346.446C207.076 346.446 207.377 347.449 208.681 347.348C209.885 347.248 210.487 346.145 210.487 346.145" stroke="black" stroke-width="0.5246" stroke-miterlimit="10"/>
<path d="M302 214H58C53.5817 214 50 217.582 50 222C50 226.418 53.5817 230 58 230H302C306.418 230 310 226.418 310 222C310 217.582 306.418 214 302 214Z" fill="#E3E3E3"/>
<path d="M260 170H100C94.4772 170 90 174.477 90 180C90 185.523 94.4772 190 100 190H260C265.523 190 270 185.523 270 180C270 174.477 265.523 170 260 170Z" fill="#D0D0D0"/>
<path d="M252 242H108C103.582 242 100 245.582 100 250C100 254.418 103.582 258 108 258H252C256.418 258 260 254.418 260 250C260 245.582 256.418 242 252 242Z" fill="#E3E3E3"/>
<path opacity="0.05" d="M184 160C210.51 160 232 138.51 232 112C232 85.4903 210.51 64 184 64C157.49 64 136 85.4903 136 112C136 138.51 157.49 160 184 160Z" fill="#34C759"/>
<path opacity="0.1" d="M184 148C203.882 148 220 131.882 220 112C220 92.1177 203.882 76 184 76C164.118 76 148 92.1177 148 112C148 131.882 164.118 148 184 148Z" fill="#34C759"/>
<path d="M208 112C208 125.255 197.255 136 184 136C170.745 136 160 125.255 160 112C160 98.7452 170.745 88 184 88C197.255 88 208 98.7452 208 112Z" fill="#34C759"/>
<path d="M173 112.696L180 119.61L195 104.793" stroke="white" stroke-width="3" stroke-linecap="round" stroke-linejoin="round"/>
<path d="M360 0H0V24H360V0Z" fill="#212121" fill-opacity="0.08"/>
<path fill-rule="evenodd" clip-rule="evenodd" d="M316 7H306V17H316V7ZM324 12C324 9.23858 326.239 7 329 7C331.761 7 334 9.23858 334 12C334 14.7614 331.761 17 329 17C326.239 17 324 14.7614 324 12ZM346 17L352 7H340L346 17Z" fill="black" fill-opacity="0.12"/>
</g>
<path d="M360 548H0V1060H360V548Z" fill="white"/>
<path d="M360 548H0V622H360V548Z" fill="white"/>
<path d="M48 568C48 559.163 40.8366 552 32 552C23.1634 552 16 559.163 16 568C16 576.837 23.1634 584 32 584C40.8366 584 48 576.837 48 568Z" fill="#3472F6"/>
<path d="M28 566C28 565.558 28.3582 565.2 28.8 565.2H32V566.8H28.8C28.3582 566.8 28 566.442 28 566Z" fill="white"/>
<path d="M35.2 575.6H28.8C28.3582 575.6 28 575.958 28 576.4C28 576.841 28.3582 577.2 28.8 577.2H35.2C35.6418 577.2 36 576.841 36 576.4C36 575.958 35.6418 575.6 35.2 575.6Z" fill="white"/>
<path d="M33.3996 565.2H30.5996C30.0473 565.2 29.5996 565.648 29.5996 566.2V576.2C29.5996 576.752 30.0473 577.2 30.5996 577.2H33.3996C33.9519 577.2 34.3996 576.752 34.3996 576.2V566.2C34.3996 565.648 33.9519 565.2 33.3996 565.2Z" fill="white"/>
<path d="M31.7992 563.6C33.2352 563.6 34.3992 562.436 34.3992 561C34.3992 559.564 33.2352 558.4 31.7992 558.4C30.3633 558.4 29.1992 559.564 29.1992 561C29.1992 562.436 30.3633 563.6 31.7992 563.6Z" fill="white"/>
<path d="M195 554H78C74.6863 554 72 556.686 72 560C72 563.314 74.6863 566 78 566H195C198.314 566 201 563.314 201 560C201 556.686 198.314 554 195 554Z" fill="#DDDDDD"/>
<path d="M266 574H78C74.6863 574 72 576.686 72 580C72 583.314 74.6863 586 78 586H266C269.314 586 272 583.314 272 580C272 576.686 269.314 574 266 574Z" fill="#EEEEEE"/>
<path d="M226 594H78C74.6863 594 72 596.686 72 600C72 603.314 74.6863 606 78 606H226C229.314 606 232 603.314 232 600C232 596.686 229.314 594 226 594Z" fill="#EEEEEE"/>
<path d="M16 606H0V622H16V606Z" fill="white"/>
<path d="M72 621.5H360" stroke="#EEEEEE"/>
<path d="M360 638H0V712H360V638Z" fill="white"/>
<rect x="16" y="642" width="32" height="32" rx="16" fill="#38BEDA"/>
<path d="M33.3833 648.868L33.3834 648.868L33.8814 650.858C33.946 651.116 34.1348 651.326 34.385 651.416C34.5837 651.488 34.7783 651.569 34.9683 651.658C35.2094 651.771 35.4911 651.757 35.7195 651.62L37.4789 650.564L37.4789 650.564C37.7222 650.418 38.0335 650.457 38.2341 650.657L39.3423 651.765C39.5429 651.966 39.5812 652.277 39.4353 652.521L39.4352 652.521L38.3798 654.28C38.2428 654.509 38.2284 654.79 38.3415 655.031C38.4305 655.221 38.5112 655.415 38.5831 655.614C38.6737 655.864 38.8827 656.052 39.1407 656.117L41.1312 656.616L41.1317 656.616C41.4069 656.685 41.6 656.932 41.6 657.216V658.783C41.6 659.067 41.4069 659.314 41.1317 659.383L41.1316 659.383L39.054 659.903C38.8104 659.964 38.6095 660.135 38.5115 660.367C38.4447 660.524 38.3716 660.68 38.2923 660.832C38.1643 661.079 38.1733 661.374 38.3162 661.612L39.4352 663.478L39.4353 663.479C39.5812 663.722 39.5429 664.033 39.3423 664.234L38.2341 665.342C38.0335 665.543 37.7222 665.581 37.4789 665.435L37.4787 665.435L35.4886 664.242C35.2577 664.103 34.9725 664.09 34.73 664.207C34.6217 664.259 34.5123 664.309 34.4019 664.357C34.1723 664.455 34.0019 664.655 33.9413 664.898L33.3833 667.131C33.3833 667.131 33.3833 667.131 33.3833 667.131C33.3145 667.407 33.0672 667.6 32.7836 667.6H31.2163C30.9327 667.6 30.6854 667.407 30.6166 667.131L30.6165 667.131L30.1693 665.346C30.0993 665.067 29.8844 664.846 29.6068 664.769C29.3204 664.69 29.0456 664.591 28.7829 664.475C28.5448 664.369 28.2701 664.386 28.0467 664.52L26.5211 665.435L26.521 665.435C26.2778 665.581 25.9664 665.543 25.7659 665.342L24.6576 664.234C24.4571 664.033 24.4187 663.722 24.5647 663.479L24.5648 663.478L25.5485 661.838C25.6791 661.62 25.6986 661.353 25.6009 661.119C25.5048 660.888 25.4194 660.649 25.3453 660.404C25.2639 660.134 25.0467 659.927 24.7734 659.859L22.8682 659.383C22.8682 659.383 22.8682 659.383 22.8681 659.383C22.593 659.314 22.4 659.067 22.4 658.783V657.216C22.4 656.932 22.593 656.685 22.8682 656.616L22.8684 656.616L24.8586 656.118C25.1168 656.054 25.3259 655.865 25.4165 655.615C25.4886 655.416 25.5693 655.221 25.6584 655.031C25.7715 654.79 25.7572 654.509 25.6202 654.28L24.5647 652.521L24.5647 652.521C24.4187 652.277 24.4571 651.966 24.6576 651.765L25.7659 650.657C25.9664 650.457 26.2778 650.418 26.521 650.564L26.5211 650.564L28.2805 651.62C28.5089 651.757 28.7905 651.771 29.0317 651.658C29.2216 651.569 29.4162 651.488 29.615 651.416C29.8652 651.326 30.0539 651.116 30.1185 650.858L30.6166 648.868L30.6166 648.868C30.6854 648.593 30.9327 648.4 31.2163 648.4H32.7836C33.0673 648.4 33.3145 648.593 33.3833 648.868Z" stroke="white" stroke-width="1.6" stroke-linejoin="round"/>
<path d="M35.2 658C35.2 656.224 33.7751 654.8 32 654.8C30.2248 654.8 28.8 656.224 28.8 658C28.8 659.775 30.2248 661.2 32 661.2C33.7751 661.2 35.2 659.775 35.2 658Z" stroke="white" stroke-width="1.6" stroke-linejoin="round"/>
<path d="M195 644H78C74.6863 644 72 646.686 72 650C72 653.314 74.6863 656 78 656H195C198.314 656 201 653.314 201 650C201 646.686 198.314 644 195 644Z" fill="#DDDDDD"/>
<path d="M266 664H78C74.6863 664 72 666.686 72 670C72 673.314 74.6863 676 78 676H266C269.314 676 272 673.314 272 670C272 666.686 269.314 664 266 664Z" fill="#EEEEEE"/>
<path d="M226 684H78C74.6863 684 72 686.686 72 690C72 693.314 74.6863 696 78 696H226C229.314 696 232 693.314 232 690C232 686.686 229.314 684 226 684Z" fill="#EEEEEE"/>
</g>
<defs>
<linearGradient id="paint0_linear" x1="180" y1="0" x2="180" y2="495" gradientUnits="userSpaceOnUse">
<stop stop-color="#EEF7F9"/>
<stop offset="1" stop-color="white"/>
</linearGradient>
<clipPath id="clip0">
<rect width="360" height="688" fill="white"/>
</clipPath>
</defs>
</svg>
