<svg width="360" height="688" viewBox="0 0 360 688" fill="none" xmlns="http://www.w3.org/2000/svg">
<g clip-path="url(#clip0)">
<path d="M360 0H0V688H360V0Z" fill="white"/>
<path d="M360 -349H0V199H360V-349Z" fill="white"/>
<path d="M360 -349H0V146H360V-349Z" fill="url(#paint0_linear)"/>
<mask id="mask0" mask-type="alpha" maskUnits="userSpaceOnUse" x="-30" y="-138" width="420" height="289">
<path d="M390 -138H-30V150.75H390V-138Z" fill="#C4C4C4"/>
</mask>
<g mask="url(#mask0)">
<path d="M184.306 102.872H99.9453V18.511L141.273 -24.4219L184.306 18.511V102.872Z" fill="#E1F6F8"/>
<path d="M379.009 -65.0478C379.21 -66.6528 379.31 -68.2578 379.21 -69.8628C378.608 -83.0035 367.975 -93.837 354.834 -94.6395C339.687 -95.5423 327.048 -83.6053 327.048 -68.5587C327.048 -67.2547 327.149 -66.051 327.349 -64.8472C328.954 -54.0137 326.145 -42.9795 319.324 -34.4531C313.105 -26.7292 309.494 -16.7985 309.795 -5.9649C310.497 17.2068 329.757 35.9649 353.029 36.0652C377.103 36.1655 396.563 16.7053 396.563 -7.26893C396.563 -17.601 392.952 -27.0302 386.934 -34.5534C380.012 -43.0798 377.504 -54.2143 379.009 -65.0478Z" fill="#E1F6F8"/>
<path d="M349.818 -65.8496V77.093" stroke="#BAE7EF" stroke-width="0.9539" stroke-miterlimit="10"/>
<path d="M349.819 1.55766L325.645 -22.6172" stroke="#BAE7EF" stroke-width="0.9539" stroke-miterlimit="10"/>
<path d="M104.961 18.8117L87.3059 -34.0519L33.74 -66.8535L-19.8258 -34.0519L-37.4805 18.8117H-34.3708V103.173H101.851L101.751 18.8117H104.961Z" fill="#E1F6F8"/>
<path d="M16.4858 2.76172H-7.1875V39.676H16.4858V2.76172Z" fill="white"/>
<path d="M68.8491 2.76172H45.1758V39.676H68.8491V2.76172Z" fill="white"/>
<path d="M4.75 2.76172V39.9769" stroke="#E1F6F8" stroke-width="1.0301" stroke-miterlimit="10"/>
<path d="M-7.1875 21.6211H16.5861" stroke="#E1F6F8" stroke-width="1.0301" stroke-miterlimit="10"/>
<path d="M300.667 10.2863C300.466 10.2863 300.266 10.186 300.166 9.98534L298.36 5.97291C298.26 5.67198 298.36 5.37106 298.661 5.17043C298.962 5.07012 299.263 5.17042 299.463 5.47135L301.269 9.48378C301.369 9.78472 301.269 10.0857 300.968 10.2863C300.868 10.2863 300.767 10.2863 300.667 10.2863Z" fill="#FAC47D"/>
<path d="M299.363 11.1875C299.162 11.1875 298.961 11.0871 298.861 10.8865L295.952 5.9713C295.751 5.67037 295.852 5.36945 296.153 5.16883C296.454 4.96821 296.755 5.0685 296.955 5.36943L299.864 10.2847C300.065 10.5856 299.964 10.8865 299.664 11.0871C299.563 11.1875 299.463 11.1875 299.363 11.1875Z" fill="#FAC47D"/>
<path d="M297.859 12.0918C297.658 12.0918 297.457 11.9915 297.357 11.7909L294.448 6.8756C294.248 6.57466 294.348 6.27375 294.649 6.07312C294.95 5.8725 295.251 5.97283 295.451 6.27376L298.36 11.189C298.561 11.4899 298.461 11.7908 298.16 11.9915C298.059 12.0918 297.959 12.0918 297.859 12.0918Z" fill="#FAC47D"/>
<path d="M296.454 12.9948C296.253 12.9948 296.053 12.8945 295.952 12.6938L293.946 9.08264C293.746 8.78171 293.846 8.48079 294.147 8.28016C294.448 8.07954 294.749 8.17984 294.949 8.48077L296.955 12.092C297.156 12.3929 297.056 12.6938 296.755 12.8944C296.655 12.9948 296.554 12.9948 296.454 12.9948Z" fill="#FAC47D"/>
<path d="M302.372 14.1983L302.272 10.1859L299.563 8.17969L295.25 11.2893L297.657 16.1042L302.372 14.1983Z" fill="#FAC47D"/>
<path d="M301.569 12.1911C301.168 12.1911 300.867 11.8901 300.867 11.4889V7.07523C300.867 6.67399 301.168 6.37305 301.569 6.37305C301.971 6.37305 302.272 6.67399 302.272 7.07523V11.4889C302.272 11.8901 301.971 12.1911 301.569 12.1911Z" fill="#FAC47D"/>
<path d="M292.743 34.1595L285.52 61.2434C285.22 62.3468 286.022 63.4502 287.226 63.4502C288.028 63.4502 288.73 62.9486 288.931 62.1462L296.153 35.0623C296.454 33.9589 295.652 32.8555 294.448 32.8555C293.646 32.8555 292.943 33.357 292.743 34.1595Z" fill="#FF7254"/>
<path d="M269.972 51.1113H389.341C390.846 51.1113 391.949 52.5157 391.548 54.0203C391.247 55.0234 390.344 55.7256 389.341 55.7256H269.972C268.467 55.7256 267.363 54.3213 267.765 52.8166C267.965 51.8135 268.968 51.1113 269.972 51.1113Z" fill="#FFB612"/>
<path d="M274.184 35.3633H393.554C395.059 35.3633 396.162 36.7676 395.761 38.2723C395.46 39.2754 394.557 39.9776 393.554 39.9776H274.184C272.68 39.9776 271.576 38.5732 271.978 37.0686C272.178 36.0655 273.181 35.3633 274.184 35.3633Z" fill="#FFB612"/>
<path d="M272.079 43.2871H391.449C392.953 43.2871 394.057 44.6915 393.655 46.1961C393.354 47.1992 392.452 47.9014 391.449 47.9014H272.079C270.574 47.9014 269.471 46.497 269.872 44.9924C270.073 43.9893 271.076 43.2871 272.079 43.2871Z" fill="#FFB612"/>
<path d="M260.743 102.37H257.533L266.561 68.7656H269.771L260.743 102.37Z" fill="#008FCD"/>
<path d="M294.749 102.37H297.858L288.83 68.7656H285.721L294.749 102.37Z" fill="#008FCD"/>
<path d="M344.503 102.37H341.293L350.321 68.7656H353.531L344.503 102.37Z" fill="#008FCD"/>
<path d="M386.633 65.4551H254.524C252.719 65.4551 251.314 64.0508 251.314 62.2452C251.314 60.4396 252.719 59.0352 254.524 59.0352H386.633C388.439 59.0352 389.843 60.4396 389.843 62.2452C389.843 64.0508 388.439 65.4551 386.633 65.4551Z" fill="#FFB612"/>
<path d="M386.633 65.4551H357.944C356.139 65.4551 354.734 64.0508 354.734 62.2452C354.734 60.4396 356.139 59.0352 357.944 59.0352H386.633C388.439 59.0352 389.843 60.4396 389.843 62.2452C389.843 64.0508 388.439 65.4551 386.633 65.4551Z" fill="#FF7254"/>
<path d="M377.104 65.4551H262.75V68.7653H377.104V65.4551Z" fill="#008FCD"/>
<path d="M313.307 26.5362L326.949 15.5021L328.754 26.135C328.754 26.135 317.72 36.0657 312.203 36.0657C306.786 36.0657 297.658 16.1039 297.658 16.1039L302.373 12.6934L313.307 26.5362Z" fill="#79D4E7"/>
<path d="M324.54 29.5455L325.343 19.4141L319.926 32.8557C321.531 31.7523 323.136 30.6489 324.54 29.5455Z" fill="#38BFDB"/>
<path d="M322.635 48.904H350.22L351.023 34.9608L351.424 25.7323C351.524 23.3248 350.922 20.9173 349.518 18.9111C347.512 16.0021 344.202 14.2969 340.691 14.2969H331.663C324.741 14.2969 324.44 18.8108 324.039 26.4344L323.337 39.7757L322.635 48.904Z" fill="#79D4E7"/>
<path d="M351.123 34.9614L351.524 25.7329C351.524 25.4319 351.524 25.131 351.524 24.8301C351.123 24.8301 350.722 24.9304 350.421 25.0307C348.214 25.4319 346.408 26.6357 344.703 28.04C343.499 28.9428 342.396 30.1465 341.293 31.1496C336.177 36.1652 330.359 40.2779 324.44 44.19C323.939 44.491 323.437 44.7919 322.936 45.1931L322.635 48.9046H350.22L351.123 34.9614Z" fill="#38BFDB"/>
<path d="M322.133 59.2363L322.936 47.0987C309.494 47.0987 288.931 45.3934 289.833 58.4338C291.338 72.9788 293.545 84.5145 295.752 99.0596L300.868 98.7586C301.469 85.6179 301.469 59.2363 301.469 59.2363H322.133Z" fill="black"/>
<path d="M335.173 59.2367V47.0992C321.23 47.0992 305.381 45.5945 305.381 58.4343C306.886 72.9793 309.092 84.515 311.299 99.06L316.415 98.7591C317.017 85.6184 317.017 59.2367 317.017 59.2367H335.173Z" fill="#004CBC"/>
<path d="M350.62 47.0996C350.119 53.9207 345.304 59.1369 337.68 59.1369H333.668V47.0996H350.62Z" fill="#004CBC"/>
<path d="M335.273 3.46457L337.38 3.56488C339.487 3.66519 341.292 1.9599 341.292 -0.146624V-1.55097C341.392 -4.86122 338.784 -7.56961 335.474 -7.66992L335.273 3.46457Z" fill="#FF7254"/>
<path d="M333.469 4.06641L332.064 14.8999L334.071 18.8121L339.187 14.8999L339.889 4.06641H333.469Z" fill="#FAC47D"/>
<path d="M332.966 4.36719L332.766 11.3889C335.976 11.2886 338.584 8.78087 338.684 5.57093V4.56782L332.966 4.36719Z" fill="#004CBC"/>
<path d="M332.266 12.7937C335.776 12.1919 338.685 9.18251 338.685 5.97257V4.86914H333.369L332.266 12.7937Z" fill="#42145F"/>
<path d="M333.668 11.39H333.869C337.179 11.4903 339.988 8.88217 339.988 5.57192L340.189 -1.55013C340.289 -4.86038 337.681 -7.66908 334.371 -7.66908H334.17C330.86 -7.76939 328.051 -5.1613 328.051 -1.85105L327.85 5.271C327.75 8.48094 330.358 11.2896 333.668 11.39Z" fill="#FAC47D"/>
<path d="M340.088 3.36452C341.14 3.36452 341.993 2.51123 341.993 1.45863C341.993 0.406027 341.14 -0.447266 340.088 -0.447266C339.035 -0.447266 338.182 0.406027 338.182 1.45863C338.182 2.51123 339.035 3.36452 340.088 3.36452Z" fill="#FAC47D"/>
<path d="M337.881 1.75994V3.56552C337.881 3.96676 337.681 4.26769 337.48 4.56862C336.878 5.17049 335.975 5.17049 335.474 4.56862L334.571 3.56552C334.27 3.26459 333.969 3.16428 333.568 3.16428L329.255 3.06396C328.553 3.06396 327.951 3.66582 327.85 4.36799V5.27081C327.75 8.68136 330.458 11.3898 333.769 11.4901C337.179 11.5904 339.888 8.88197 339.988 5.57173L340.088 -0.346589C338.985 -0.446899 337.881 0.556212 337.881 1.75994Z" fill="#FF7254"/>
<path d="M333.268 4.36787C333.268 4.36787 332.264 5.47129 331.161 5.47129C330.258 5.47129 329.355 4.26758 329.355 4.26758L333.268 4.36787Z" fill="#F6E4EB"/>
<path d="M317.619 102.369H303.274C302.773 102.369 302.472 101.868 302.672 101.467L302.773 101.266C303.073 100.564 303.776 99.9622 304.578 99.7615L308.791 98.4574L310.597 96.6519C310.998 96.2507 311.6 96.2507 312.001 96.6519C312.302 96.9528 312.904 97.2538 313.606 97.2538C314.609 97.2538 315.211 96.7522 316.114 96.351C316.615 96.1504 317.217 96.4513 317.217 97.0532L317.619 102.369Z" fill="#FF7254"/>
<path d="M301.77 102.369H287.526C287.024 102.369 286.724 101.868 286.924 101.467L287.024 101.266C287.325 100.564 288.028 99.9622 288.83 99.7615L293.043 98.4574L294.849 96.6519C295.25 96.2507 295.852 96.2507 296.253 96.6519C296.554 96.9528 297.156 97.2538 297.858 97.2538C298.861 97.2538 299.463 96.7522 300.366 96.351C300.867 96.1504 301.469 96.4513 301.469 97.0532L301.77 102.369Z" fill="#FF7254"/>
<path d="M334.07 18.8113L335.475 20.6169L340.29 14.197L339.286 13.3945L334.07 18.8113Z" fill="white"/>
<path d="M334.071 18.8116L332.165 14.1973L331.764 20.2159L334.071 18.8116Z" fill="white"/>
<path d="M334.373 46.9993H327.451L326.047 35.3633H335.677L334.373 46.9993Z" fill="white"/>
<path d="M335.475 37.2688H326.247C325.545 37.2688 325.043 36.7672 325.043 36.065C325.043 35.3629 325.545 34.8613 326.247 34.8613H335.475C336.177 34.8613 336.679 35.3629 336.679 36.065C336.679 36.7672 336.177 37.2688 335.475 37.2688Z" fill="#004CBC"/>
<path d="M333.87 33.6582H327.952C327.651 33.6582 327.45 33.8588 327.35 34.0595L326.748 35.4638H335.174L334.572 34.0595C334.372 33.7585 334.071 33.6582 333.87 33.6582Z" fill="#004CBC"/>
<path d="M337.582 41.6816H331.964C330.861 41.6816 330.059 42.5844 330.059 43.5875V45.3931C330.059 46.2959 330.761 46.9981 331.664 46.9981H337.983L337.582 41.6816Z" fill="#FAC47D"/>
<path d="M350.019 19.4141L359.147 39.9777C359.448 40.5796 359.549 41.2818 359.549 41.9839C359.549 44.7926 357.342 46.9995 354.533 46.9995H336.678V40.6799L350.621 39.9777L342.696 24.6302L350.019 19.4141Z" fill="#79D4E7"/>
<path d="M67.6454 8.88108C67.846 11.2885 65.9401 11.8904 65.3383 11.9907C64.7364 12.091 64.2348 11.8904 63.7333 11.5895C62.2286 10.787 61.4261 6.9752 59.9215 6.17271C57.6143 4.96898 54.8056 4.86866 52.2979 5.47053C51.4954 5.67115 50.6929 5.87178 49.8904 5.67116C48.9876 5.47054 48.3858 4.66806 48.0848 3.76526C47.8842 2.86247 47.9845 1.95966 48.2855 1.05687C48.5864 0.154073 49.9907 -1.25029 50.392 -2.15308C51.5957 -5.46333 50.1914 -8.67327 51.997 -11.6826C53.301 -13.8894 55.7084 -15.3941 58.3165 -15.695C60.9246 -15.9959 63.5327 -14.9928 65.4386 -13.2875C66.4417 -12.3847 67.846 -10.3785 67.7457 -9.07451C67.6454 -8.17171 67.3445 -7.0683 66.9432 -6.16551C65.7395 -3.65774 64.937 -0.949337 64.7364 1.65874C64.4355 3.76526 67.4448 6.07238 67.6454 8.88108Z" fill="#79D4E7"/>
<path d="M78.6791 131.962C116.905 131.962 147.893 131.288 147.893 130.457C147.893 129.626 116.905 128.953 78.6791 128.953C40.4531 128.953 9.46484 129.626 9.46484 130.457C9.46484 131.288 40.4531 131.962 78.6791 131.962Z" fill="#E1F6F8"/>
<path fill-rule="evenodd" clip-rule="evenodd" d="M60.8241 0.555083H59.4197C55.4073 0.555083 53.3008 -2.35391 53.3008 -5.76447L53.4011 -9.47597C53.4011 -12.385 56.0092 -14.5918 59.4197 -14.5918C63.4321 -14.5918 66.7424 -12.1843 66.943 -8.27223V-5.36323C66.8427 -1.65174 65.2377 0.555083 60.8241 0.555083Z" fill="#FFB612"/>
<path d="M60.5227 112.102L41.0625 42.3857L57.8144 40.5801L66.742 110.697L65.3376 113.506L60.5227 112.102Z" fill="#008FCD"/>
<path fill-rule="evenodd" clip-rule="evenodd" d="M64.9359 112.101C65.638 112.101 66.3402 111.298 66.5408 110.596C66.7414 110.095 67.3433 109.794 67.8449 110.095L71.6567 111.7L74.2647 113.004C75.4685 113.505 76.0703 114.609 76.1706 115.913C76.1706 116.314 75.8697 116.615 75.5688 116.615H62.2275C61.3247 116.615 60.6225 115.913 60.6225 115.11L60.4219 112.101H64.9359Z" fill="black"/>
<path d="M88.6094 98.8595C88.6094 116.314 102.753 130.457 120.207 130.457C137.661 130.457 151.705 116.314 151.705 98.8595C151.705 81.4055 137.561 67.2617 120.207 67.2617C102.753 67.362 88.6094 81.4055 88.6094 98.8595ZM92.4212 98.8595C92.4212 83.512 104.86 71.0735 120.207 71.0735C135.555 71.0735 147.993 83.512 147.993 98.8595C147.993 114.207 135.555 126.646 120.207 126.646C104.86 126.646 92.4212 114.207 92.4212 98.8595Z" fill="#FFB612"/>
<path d="M-4.37891 98.8595C-4.37891 116.314 9.76488 130.457 27.2189 130.457C44.673 130.457 58.7164 116.314 58.7164 98.8595C58.7164 81.4055 44.5726 67.2617 27.2189 67.2617C9.76488 67.362 -4.37891 81.4055 -4.37891 98.8595ZM-0.567102 98.8595C-0.567102 83.512 11.8714 71.0735 27.2189 71.0735C42.5664 71.0735 55.0049 83.512 55.0049 98.8595C55.0049 114.207 42.5664 126.646 27.2189 126.646C11.8714 126.646 -0.567102 114.207 -0.567102 98.8595Z" fill="#FFB612"/>
<path d="M56.8115 46.2974L46.6801 46.799C39.5581 46.799 36.649 38.5735 39.2571 30.8496L60.8239 35.6645C60.9242 35.7648 60.6233 46.2974 56.8115 46.2974Z" fill="#008FCD"/>
<path d="M110.878 56.7302H108.771C106.765 56.7302 105.16 55.1252 105.16 53.119C105.16 51.1128 106.765 49.5078 108.771 49.5078H110.878V56.7302Z" fill="#002783"/>
<path d="M107.67 52.8165C107.268 52.4153 106.566 52.4153 106.165 52.8165L102.955 56.2271C103.356 56.9293 103.657 57.4308 103.958 58.133L107.77 54.3212C108.171 53.92 108.171 53.2178 107.67 52.8165Z" fill="#002783"/>
<path d="M49.6896 52.2148L66.5417 102.169L105.462 64.4527" stroke="#002783" stroke-width="1.959" stroke-miterlimit="10"/>
<path d="M57.8147 46.8984H42.8684C41.464 46.8984 40.4609 48.0018 40.4609 49.3059V50.9109C40.4609 52.7164 41.8653 54.1208 43.6709 54.1208H45.2758C46.7805 54.1208 48.2852 53.7195 49.5892 53.0174L52.6988 51.3121C53.2004 51.0112 53.7019 50.9109 54.3038 50.9109H57.2128C58.5168 50.9109 59.6203 49.8074 59.6203 48.5034C59.6203 47.7009 58.8178 46.8984 57.8147 46.8984Z" fill="black"/>
<path d="M67.4446 111.298L27.3204 104.979C24.311 104.577 22.0039 102.07 22.0039 98.96C22.0039 95.6498 24.7123 92.9414 28.0225 92.9414H68.548C73.6638 92.9414 77.7766 97.0541 77.7766 102.17C77.7766 107.687 72.9617 112 67.4446 111.298Z" fill="#002783"/>
<path d="M60.9238 84.716H69.1493C73.0614 84.716 76.8732 83.2113 79.8825 80.6033L102.653 57.4316" stroke="#002783" stroke-width="1.959" stroke-miterlimit="10"/>
<path d="M124.02 98.8606L112.684 85.0177L96.6348 40.5801H99.945" stroke="#002783" stroke-width="1.959" stroke-miterlimit="10" stroke-linecap="round" stroke-linejoin="round"/>
<path d="M51.1935 56.127L27.4199 97.7558" stroke="#002783" stroke-width="1.959" stroke-miterlimit="10"/>
<path d="M44.6738 67.5635L40.1599 62.9492H9.46484" stroke="#002783" stroke-width="1.959" stroke-miterlimit="10" stroke-linecap="round" stroke-linejoin="round"/>
<path d="M69.7521 102.271L74.266 90.334" stroke="#007BC7" stroke-width="1.052" stroke-miterlimit="10" stroke-linecap="round"/>
<path d="M77.7757 91.9376H70.754C69.9515 91.9376 69.3496 91.3358 69.3496 90.5333C69.3496 89.7308 69.9515 89.1289 70.754 89.1289H77.7757C78.5782 89.1289 79.18 89.7308 79.18 90.5333C79.18 91.2355 78.4779 91.9376 77.7757 91.9376Z" fill="#008FCD"/>
<path d="M68.5472 119.022H61.5254C60.723 119.022 60.1211 118.42 60.1211 117.618C60.1211 116.815 60.723 116.213 61.5254 116.213H68.5472C69.3497 116.213 69.9515 116.815 69.9515 117.618C69.9515 118.42 69.3497 119.022 68.5472 119.022Z" fill="#008FCD"/>
<path d="M60.8228 35.7656L45.375 46.9001L75.1672 55.1256L67.8446 85.62L74.6657 85.9209L86.9036 57.0315C89.311 50.8122 88.2076 45.897 81.888 43.3893L60.8228 35.7656Z" fill="#008FCD"/>
<path d="M44.474 31.752C44.474 31.752 39.7594 41.3817 52.3985 44.4914L80.4855 51.9144L71.3572 82.9103" stroke="#0069D1" stroke-width="0.8337" stroke-miterlimit="10"/>
<path d="M68.5469 82.9102H75.9699" stroke="#0069D1" stroke-width="0.8337" stroke-miterlimit="10"/>
<path fill-rule="evenodd" clip-rule="evenodd" d="M73.5641 85.5189C74.2663 85.5189 74.9685 84.7164 75.1691 84.0142C75.3697 83.5127 75.9716 83.2117 76.4731 83.5127L78.9809 85.1176L81.589 86.4217C82.7927 86.9232 83.3945 88.0266 83.4949 89.3307C83.4949 89.7319 83.1939 90.0328 82.893 90.0328H69.5517C68.6489 90.0328 67.9467 89.3307 67.9467 88.5282L67.7461 85.5189H73.5641Z" fill="black"/>
<path d="M42.0656 28.8431L34.743 27.3384C31.533 26.536 29.5268 23.326 30.3293 20.1161L33.4389 6.97538C34.2414 3.76544 37.4513 1.75923 40.6613 2.56172L46.9808 4.06638C49.0874 4.56793 50.2911 6.87506 49.3883 8.88127L42.0656 28.8431Z" fill="#FF7254"/>
<path fill-rule="evenodd" clip-rule="evenodd" d="M39.3574 30.9505L60.7236 35.6651L61.2251 24.8316C61.3254 25.3331 67.1434 20.5182 66.5416 17.3083C64.4351 7.47779 61.0245 3.86661 56.5105 3.16444C49.9903 2.26164 48.4857 7.7787 43.9717 22.9256L39.3574 30.9505Z" fill="#004CBC"/>
<path d="M61.5257 25.2321C60.2217 24.0284 60.322 23.4266 60.021 23.2259C59.0179 22.5238 49.1875 14.0977 49.1875 14.0977C49.1875 14.0977 53.4005 25.7337 57.413 34.862L60.7232 35.7648L61.5257 25.2321Z" fill="black"/>
<path d="M88.209 98.8603C88.209 81.2057 102.553 66.8613 120.208 66.8613" stroke="#002783" stroke-width="2.1039" stroke-miterlimit="10" stroke-linecap="round"/>
<path d="M-4.7793 98.8603C-4.7793 81.2057 9.56511 66.8613 27.2198 66.8613C44.8744 66.8613 59.2188 81.2057 59.2188 98.8603" stroke="#002783" stroke-width="1.959" stroke-miterlimit="10" stroke-linecap="round"/>
<path fill-rule="evenodd" clip-rule="evenodd" d="M91.3188 34.5612L92.7232 33.9593C93.8266 33.5581 94.93 33.5581 95.9331 34.16L99.444 37.2696C99.8452 37.6708 100.046 38.2727 100.046 38.7743C99.9455 39.8777 98.8421 40.5799 97.839 40.2789L90.416 38.9749L91.3188 34.5612Z" fill="#FFB612"/>
<path d="M62.5292 15.6029H60.9242V12.8945C60.9242 9.48395 58.1155 6.67528 54.7049 6.67528H51.1941C48.8869 6.67528 46.6801 7.9793 45.4764 9.98551L45.3761 10.1862L43.8714 10.788L43.2695 9.28336L44.2726 8.88209C45.7773 6.47464 48.3854 5.07031 51.1941 5.07031H54.7049C59.0183 5.07031 62.5292 8.58116 62.5292 12.8945V15.6029Z" fill="#FF7254"/>
<path d="M63.031 16.4041L59.8211 10.0845C58.3164 7.17554 54.8055 5.97181 51.8965 7.47646C48.6866 9.08143 47.5832 13.1942 49.5894 16.1032L53.9027 22.4227L63.031 16.4041Z" fill="#004CBC"/>
<path d="M69.5508 27.4379L62.9303 16.2031L53.9023 22.5227L60.3222 31.4503C62.1278 33.8578 64.7359 35.563 67.7452 36.1649L91.0173 39.2745L92.8228 34.0584L69.5508 27.4379Z" fill="#FFB612"/>
<path d="M60.8246 0.554696C61.0252 0.554696 56.5113 -2.05337 58.1163 -9.37604C58.9187 -13.2882 62.0283 -14.5922 62.0283 -14.5922C62.0283 -14.5922 53.8029 -16.799 52.6995 -9.47636C51.6964 -3.15679 53.4017 1.45749 60.8246 0.554696Z" fill="#79D4E7"/>
<path fill-rule="evenodd" clip-rule="evenodd" d="M213.998 -16.998C219.816 -16.998 226.135 -16.1955 226.737 7.97924H206.775C206.876 7.87894 202.362 -16.998 213.998 -16.998Z" fill="black"/>
<path d="M216.306 150.118C242.621 150.118 263.953 149.445 263.953 148.614C263.953 147.783 242.621 147.109 216.306 147.109C189.991 147.109 168.658 147.783 168.658 148.614C168.658 149.445 189.991 150.118 216.306 150.118Z" fill="#E1F6F8"/>
<path fill-rule="evenodd" clip-rule="evenodd" d="M218.512 7.57646L210.588 7.7771L212.293 -2.85583L219.215 -4.76172L218.512 7.57646Z" fill="#FF7254"/>
<path d="M215.804 2.06046L211.09 4.56822L211.692 0.957031L215.804 2.06046Z" fill="#F25A37"/>
<path fill-rule="evenodd" clip-rule="evenodd" d="M185.41 133.066L183.003 141.793L179.392 142.094C178.188 142.194 177.185 142.896 176.583 143.899C176.282 144.401 176.583 145.103 177.185 145.304L187.717 148.915C188.42 149.216 189.222 148.814 189.523 148.012L193.636 135.473L185.41 133.066Z" fill="#79D4E7"/>
<path fill-rule="evenodd" clip-rule="evenodd" d="M239.176 135.172L243.589 142.996L241.282 145.705C240.48 146.607 240.279 147.911 240.68 149.015C240.881 149.516 241.583 149.717 242.085 149.516L251.012 145.103L252.016 144.601C252.718 144.3 253.019 143.398 252.617 142.695L246.599 130.959L239.176 135.172Z" fill="#79D4E7"/>
<path fill-rule="evenodd" clip-rule="evenodd" d="M203.265 45.9961L183.604 129.956C183.103 131.862 184.306 133.868 186.212 134.37L193.435 136.276C195.341 136.777 197.447 135.674 197.949 133.768L222.826 48.3033L203.265 45.9961Z" fill="black"/>
<path fill-rule="evenodd" clip-rule="evenodd" d="M207.578 46.899L213.797 91.0356C214.299 94.2456 215.402 97.4555 217.007 100.264L234.261 134.47C235.364 136.677 238.073 137.379 240.079 136.075L245.796 132.564C247.602 131.461 248.304 129.254 247.401 127.348L232.054 93.744C232.054 93.744 231.352 76.2899 230.349 61.5443C229.947 54.9238 228.142 48.203 225.534 46.0965C219.114 40.9806 207.578 46.899 207.578 46.899Z" fill="#004CBC"/>
<path fill-rule="evenodd" clip-rule="evenodd" d="M225.134 45.9971H203.266L203.667 27.8409C203.667 27.8409 200.959 25.6341 200.959 22.2235C200.959 17.6092 203.968 15.5027 206.877 12.5937C209.586 9.78496 209.686 7.57812 213.999 7.57812C220.72 7.57812 226.839 13.5968 227.842 25.4334C228.344 31.1511 228.043 38.7747 227.842 43.4893C227.842 44.8937 226.638 45.9971 225.134 45.9971Z" fill="#FFB612"/>
<path fill-rule="evenodd" clip-rule="evenodd" d="M212.595 21.3203L203.366 39.8778L203.266 45.9967H210.889L216.306 40.4796L212.595 21.3203Z" fill="#FF9E12"/>
<path fill-rule="evenodd" clip-rule="evenodd" d="M195.04 58.9362L192.131 62.5474C191.73 63.0489 191.73 63.8514 192.232 64.353V64.4533L192.131 64.7542C191.931 65.0552 192.031 65.4564 192.232 65.7573C192.532 66.0583 193.034 66.0583 193.335 65.8577L193.536 65.7573L193.937 66.0583C194.238 66.2589 194.739 66.3592 195.04 66.1586L195.241 66.0583L195.542 66.1586C195.943 66.3592 196.445 66.2589 196.746 65.958L202.263 61.143L197.247 56.3281L195.04 58.9362Z" fill="#FF7254"/>
<path fill-rule="evenodd" clip-rule="evenodd" d="M194.74 60.5407L192.935 60.942C192.433 61.0423 191.932 60.641 191.932 60.1395C191.932 59.8385 192.132 59.5376 192.333 59.4373L196.546 57.2305L198.051 59.4373L196.546 61.0423L194.74 60.5407Z" fill="#FF7254"/>
<path fill-rule="evenodd" clip-rule="evenodd" d="M210.086 9.08228L210.487 5.97266H219.014V9.78446L210.086 9.08228Z" fill="#FFB612"/>
<path d="M233.86 69.0679L223.428 69.6697C220.92 69.8704 218.713 67.8642 218.613 65.3564L218.111 57.5322C217.911 55.0244 219.917 52.8176 222.425 52.7173L232.857 52.1154C235.365 51.9148 237.572 53.921 237.672 56.4288L238.174 64.253C238.274 66.7607 236.368 68.9676 233.86 69.0679Z" fill="#008FCD"/>
<path d="M218.412 55.2252L222.224 59.7392C222.926 60.642 224.13 61.1436 225.233 61.0433L231.854 60.642C233.158 60.5417 234.361 59.7392 234.963 58.5355L237.07 54.0215" stroke="#0069D1" stroke-width="1.0421" stroke-miterlimit="10" stroke-linecap="round"/>
<path d="M220.318 55.1248C220.318 55.1248 212.895 31.1506 212.895 16.8062L221.521 15.2012L235.163 54.0213" stroke="#008FCD" stroke-width="2.0842" stroke-miterlimit="10"/>
<path fill-rule="evenodd" clip-rule="evenodd" d="M223.128 13.5952L220.319 41.1806L200.959 63.1486L194.539 57.5312L209.786 37.3688L211.893 13.3945L223.128 13.5952Z" fill="#FFB612"/>
<path fill-rule="evenodd" clip-rule="evenodd" d="M221.623 -5.76316C221.021 -1.04857 215.705 3.36508 210.89 2.86352C205.473 2.26166 204.57 -1.04857 205.072 -5.76316C205.573 -10.9793 208.582 -15.7942 213.698 -15.8945C219.817 -15.7942 222.526 -12.7849 221.623 -5.76316Z" fill="#FF7254"/>
<path fill-rule="evenodd" clip-rule="evenodd" d="M213.597 -15.7949C213.296 -15.7949 213.095 -15.7949 212.895 -15.7949C212.895 -15.494 214.8 -13.5881 215.302 -11.5819C216.405 -7.36886 213.998 6.17306 217.408 7.87834H220.418C220.418 7.87834 221.521 -4.25922 221.822 -5.86419C222.725 -12.9862 219.816 -15.7949 213.597 -15.7949Z" fill="black"/>
</g>
<path d="M360 199H0V635H360V199Z" fill="white"/>
<path d="M360 199H0V273H360V199Z" fill="white"/>
<path d="M48 219C48 210.163 40.8366 203 32 203C23.1634 203 16 210.163 16 219C16 227.837 23.1634 235 32 235C40.8366 235 48 227.837 48 219Z" fill="#3472F6"/>
<path d="M28 216.999C28 216.557 28.3582 216.199 28.8 216.199H32V217.799H28.8C28.3582 217.799 28 217.441 28 216.999Z" fill="white"/>
<path d="M35.2 226.6H28.8C28.3582 226.6 28 226.958 28 227.4C28 227.841 28.3582 228.2 28.8 228.2H35.2C35.6418 228.2 36 227.841 36 227.4C36 226.958 35.6418 226.6 35.2 226.6Z" fill="white"/>
<path d="M33.3996 216.199H30.5996C30.0473 216.199 29.5996 216.647 29.5996 217.199V227.199C29.5996 227.752 30.0473 228.199 30.5996 228.199H33.3996C33.9519 228.199 34.3996 227.752 34.3996 227.199V217.199C34.3996 216.647 33.9519 216.199 33.3996 216.199Z" fill="white"/>
<path d="M31.7992 214.6C33.2352 214.6 34.3992 213.436 34.3992 212C34.3992 210.564 33.2352 209.4 31.7992 209.4C30.3633 209.4 29.1992 210.564 29.1992 212C29.1992 213.436 30.3633 214.6 31.7992 214.6Z" fill="white"/>
<path d="M195 205H78C74.6863 205 72 207.686 72 211C72 214.314 74.6863 217 78 217H195C198.314 217 201 214.314 201 211C201 207.686 198.314 205 195 205Z" fill="#DDDDDD"/>
<path d="M266 225H78C74.6863 225 72 227.686 72 231C72 234.314 74.6863 237 78 237H266C269.314 237 272 234.314 272 231C272 227.686 269.314 225 266 225Z" fill="#EEEEEE"/>
<path d="M226 245H78C74.6863 245 72 247.686 72 251C72 254.314 74.6863 257 78 257H226C229.314 257 232 254.314 232 251C232 247.686 229.314 245 226 245Z" fill="#EEEEEE"/>
<path d="M16 257H0V273H16V257Z" fill="white"/>
<path d="M72 272.5H360" stroke="#EEEEEE"/>
<path d="M360 289H0V363H360V289Z" fill="white"/>
<rect x="16" y="293" width="32" height="32" rx="16" fill="#38BEDA"/>
<path d="M33.3833 299.868L33.3834 299.868L33.8814 301.858C33.946 302.116 34.1348 302.326 34.385 302.416C34.5837 302.488 34.7783 302.569 34.9683 302.658C35.2094 302.771 35.4911 302.757 35.7195 302.62L37.4789 301.564L37.4789 301.564C37.7222 301.418 38.0335 301.457 38.2341 301.657L39.3423 302.765C39.5429 302.966 39.5812 303.277 39.4353 303.521L39.4352 303.521L38.3798 305.28C38.2428 305.509 38.2284 305.79 38.3415 306.031C38.4305 306.221 38.5112 306.415 38.5831 306.614C38.6737 306.864 38.8827 307.052 39.1407 307.117L41.1312 307.616L41.1317 307.616C41.4069 307.685 41.6 307.932 41.6 308.216V309.783C41.6 310.067 41.4069 310.314 41.1317 310.383L41.1316 310.383L39.054 310.903C38.8104 310.964 38.6095 311.135 38.5115 311.367C38.4447 311.524 38.3716 311.68 38.2923 311.832C38.1643 312.079 38.1733 312.374 38.3162 312.612L39.4352 314.478L39.4353 314.479C39.5812 314.722 39.5429 315.033 39.3423 315.234L38.2341 316.342C38.0335 316.543 37.7222 316.581 37.4789 316.435L37.4787 316.435L35.4886 315.242C35.2577 315.103 34.9725 315.09 34.7299 315.207C34.6217 315.259 34.5123 315.309 34.4019 315.357C34.1723 315.455 34.0019 315.655 33.9413 315.898L33.3833 318.131C33.3145 318.407 33.0673 318.6 32.7836 318.6H31.2163C30.9327 318.6 30.6854 318.407 30.6166 318.131L30.6165 318.131L30.1693 316.346C30.0993 316.067 29.8844 315.846 29.6068 315.769C29.3204 315.69 29.0456 315.591 28.7829 315.475C28.5448 315.369 28.2701 315.386 28.0467 315.52L26.5211 316.435L26.521 316.435C26.2778 316.581 25.9664 316.543 25.7659 316.342L24.6576 315.234C24.4571 315.033 24.4187 314.722 24.5647 314.479L24.5648 314.478L25.5485 312.838C25.6791 312.62 25.6986 312.353 25.6009 312.119C25.5048 311.888 25.4194 311.649 25.3453 311.404C25.2639 311.134 25.0467 310.927 24.7734 310.859L22.8682 310.383C22.593 310.314 22.4 310.067 22.4 309.783V308.216C22.4 307.932 22.593 307.685 22.8682 307.616L22.8684 307.616L24.8586 307.118C25.1168 307.054 25.3259 306.865 25.4165 306.615C25.4886 306.416 25.5693 306.221 25.6584 306.031C25.7715 305.79 25.7572 305.509 25.6202 305.28L24.5647 303.521L24.5647 303.521C24.4187 303.277 24.4571 302.966 24.6576 302.765L25.7659 301.657C25.9664 301.457 26.2778 301.418 26.521 301.564L26.5211 301.564L28.2805 302.62C28.5089 302.757 28.7905 302.771 29.0317 302.658C29.2216 302.569 29.4162 302.488 29.615 302.416C29.8652 302.326 30.0539 302.116 30.1185 301.858L30.6166 299.868L30.6166 299.868C30.6854 299.593 30.9327 299.4 31.2163 299.4H32.7836C33.0673 299.4 33.3145 299.593 33.3833 299.868Z" stroke="white" stroke-width="1.6" stroke-linejoin="round"/>
<path d="M35.2 309C35.2 307.224 33.7751 305.8 32 305.8C30.2248 305.8 28.8 307.224 28.8 309C28.8 310.775 30.2248 312.2 32 312.2C33.7751 312.2 35.2 310.775 35.2 309Z" stroke="white" stroke-width="1.6" stroke-linejoin="round"/>
<path d="M195 295H78C74.6863 295 72 297.686 72 301C72 304.314 74.6863 307 78 307H195C198.314 307 201 304.314 201 301C201 297.686 198.314 295 195 295Z" fill="#DDDDDD"/>
<path d="M266 315H78C74.6863 315 72 317.686 72 321C72 324.314 74.6863 327 78 327H266C269.314 327 272 324.314 272 321C272 317.686 269.314 315 266 315Z" fill="#EEEEEE"/>
<path d="M226 335H78C74.6863 335 72 337.686 72 341C72 344.314 74.6863 347 78 347H226C229.314 347 232 344.314 232 341C232 337.686 229.314 335 226 335Z" fill="#EEEEEE"/>
<path d="M16 347H0V363H16V347Z" fill="white"/>
<path d="M72 362.5H360" stroke="#EEEEEE"/>
<path d="M360 379H0V453H360V379Z" fill="white"/>
<path d="M48 399C48 407.837 40.8366 415 32 415C23.1634 415 16 407.837 16 399C16 390.163 23.1634 383 32 383C40.8366 383 48 390.163 48 399Z" fill="#ED395A"/>
<path d="M32 409.4C32.1565 409.4 32.401 409.34 32.6455 409.209C38.2103 406.211 40 404.712 40 401.1V393.515C40 392.478 39.5697 392.146 38.7482 391.794C37.6039 391.311 33.9462 389.943 32.8117 389.541C32.5477 389.45 32.2738 389.4 32 389.4C31.7262 389.4 31.4523 389.46 31.198 389.541C30.0538 389.923 26.3961 391.321 25.2518 391.794C24.4401 392.136 24 392.478 24 393.515V401.1C24 404.712 25.8875 406.04 31.3545 409.209C31.6088 409.35 31.8435 409.4 32 409.4Z" fill="white"/>
<path d="M30.7344 394.064C30.6973 393.34 31.2744 392.732 31.9994 392.732C32.7245 392.732 33.3016 393.34 33.2645 394.064L32.9339 400.511C32.9084 401.009 32.4976 401.399 31.9994 401.399C31.5013 401.399 31.0905 401.009 31.065 400.511L30.7344 394.064Z" fill="#ED395A"/>
<path d="M31.9993 405.399C32.7357 405.399 33.3327 404.802 33.3327 404.066C33.3327 403.329 32.7357 402.732 31.9993 402.732C31.263 402.732 30.666 403.329 30.666 404.066C30.666 404.802 31.263 405.399 31.9993 405.399Z" fill="#ED395A"/>
<path d="M195 385H78C74.6863 385 72 387.686 72 391C72 394.314 74.6863 397 78 397H195C198.314 397 201 394.314 201 391C201 387.686 198.314 385 195 385Z" fill="#DDDDDD"/>
<path d="M266 405H78C74.6863 405 72 407.686 72 411C72 414.314 74.6863 417 78 417H266C269.314 417 272 414.314 272 411C272 407.686 269.314 405 266 405Z" fill="#EEEEEE"/>
<path d="M226 425H78C74.6863 425 72 427.686 72 431C72 434.314 74.6863 437 78 437H226C229.314 437 232 434.314 232 431C232 427.686 229.314 425 226 425Z" fill="#EEEEEE"/>
<path d="M16 437H0V453H16V437Z" fill="white"/>
<path d="M72 452.5H360" stroke="#EEEEEE"/>
<path d="M360 469H0V543H360V469Z" fill="white"/>
<path d="M48 489C48 480.163 40.8366 473 32 473C23.1634 473 16 480.163 16 489C16 497.837 23.1634 505 32 505C40.8366 505 48 497.837 48 489Z" fill="#D753C9"/>
<path fill-rule="evenodd" clip-rule="evenodd" d="M30 481.401H27.6V495.401C27.6 496.064 28.1373 496.601 28.8 496.601C29.4627 496.601 30 496.064 30 495.401V481.401ZM26 479.801V495.401C26 496.947 27.2536 498.201 28.8 498.201C30.3464 498.201 31.6 496.947 31.6 495.401V479.801H26Z" fill="white"/>
<path d="M25.1992 480.601C25.1992 480.159 25.5574 479.801 25.9992 479.801H31.5992C32.041 479.801 32.3992 480.159 32.3992 480.601C32.3992 481.043 32.041 481.401 31.5992 481.401H25.9992C25.5574 481.401 25.1992 481.043 25.1992 480.601Z" fill="white"/>
<path d="M26.3984 485.1C26.3984 484.824 26.6223 484.6 26.8984 484.6H28.8984C29.1746 484.6 29.3984 484.824 29.3984 485.1C29.3984 485.376 29.1746 485.6 28.8984 485.6H26.8984C26.6223 485.6 26.3984 485.376 26.3984 485.1Z" fill="white"/>
<path d="M26.3984 488.1C26.3984 487.824 26.6223 487.6 26.8984 487.6H27.8984C28.1746 487.6 28.3984 487.824 28.3984 488.1C28.3984 488.376 28.1746 488.6 27.8984 488.6H26.8984C26.6223 488.6 26.3984 488.376 26.3984 488.1Z" fill="white"/>
<path d="M36.7988 485.401C35.6943 485.401 34.7988 484.147 34.7988 482.601C34.7988 481.055 35.6943 479.801 36.7988 479.801C37.9034 479.801 38.7988 481.055 38.7988 482.601C38.7988 484.147 37.9034 485.401 36.7988 485.401Z" fill="white"/>
<path fill-rule="evenodd" clip-rule="evenodd" d="M35.998 486.199V491.799H37.598V486.199H35.998Z" fill="white"/>
<path d="M36.7988 498.2C35.6943 498.2 34.7988 496.946 34.7988 495.4C34.7988 493.854 35.6943 492.6 36.7988 492.6C37.9034 492.6 38.7988 493.854 38.7988 495.4C38.7988 496.946 37.9034 498.2 36.7988 498.2Z" fill="white"/>
<path d="M195 475H78C74.6863 475 72 477.686 72 481C72 484.314 74.6863 487 78 487H195C198.314 487 201 484.314 201 481C201 477.686 198.314 475 195 475Z" fill="#DDDDDD"/>
<path d="M266 495H78C74.6863 495 72 497.686 72 501C72 504.314 74.6863 507 78 507H266C269.314 507 272 504.314 272 501C272 497.686 269.314 495 266 495Z" fill="#EEEEEE"/>
<path d="M226 515H78C74.6863 515 72 517.686 72 521C72 524.314 74.6863 527 78 527H226C229.314 527 232 524.314 232 521C232 517.686 229.314 515 226 515Z" fill="#EEEEEE"/>
<path d="M16 527H0V543H16V527Z" fill="white"/>
<path d="M72 542.5H360" stroke="#EEEEEE"/>
<path d="M360 559H0V635H360V559Z" fill="white"/>
<path d="M45.8541 586.999C41.4366 594.65 31.6527 597.272 24.0013 592.854C16.3499 588.437 13.7284 578.653 18.1459 571.001C22.5634 563.35 32.3473 560.728 39.9987 565.146C47.6501 569.563 50.2716 579.347 45.8541 586.999Z" fill="#F26437"/>
<path d="M32.0005 584.007C34.9822 584.007 37.3994 581.59 37.3994 578.608C37.3994 575.626 34.9822 573.209 32.0005 573.209C29.0187 573.209 26.6016 575.626 26.6016 578.608C26.6016 581.59 29.0187 584.007 32.0005 584.007Z" stroke="white" stroke-width="2"/>
<path d="M32.0001 570.201C32.8836 570.201 33.5999 569.485 33.5999 568.602C33.5999 567.718 32.8836 567.002 32.0001 567.002C31.1166 567.002 30.4004 567.718 30.4004 568.602C30.4004 569.485 31.1166 570.201 32.0001 570.201Z" fill="white"/>
<path d="M32.0001 590.998C32.8836 590.998 33.5999 590.282 33.5999 589.399C33.5999 588.515 32.8836 587.799 32.0001 587.799C31.1166 587.799 30.4004 588.515 30.4004 589.399C30.4004 590.282 31.1166 590.998 32.0001 590.998Z" fill="white"/>
<path d="M23.2014 579C23.2014 578.116 22.4852 577.4 21.6017 577.4C20.7182 577.4 20.002 578.116 20.002 579C20.002 579.883 20.7182 580.6 21.6017 580.6C22.4852 580.6 23.2014 579.883 23.2014 579Z" fill="white"/>
<path d="M43.9983 579C43.9983 578.116 43.2821 577.4 42.3986 577.4C41.5151 577.4 40.7988 578.116 40.7988 579C40.7988 579.883 41.5151 580.6 42.3986 580.6C43.2821 580.6 43.9983 579.883 43.9983 579Z" fill="white"/>
<path d="M24.0017 585.399C24.0017 586.282 24.7179 586.998 25.6014 586.998C26.4849 586.998 27.2012 586.282 27.2012 585.399C27.2012 584.515 26.4849 583.799 25.6014 583.799C24.7179 583.799 24.0017 584.515 24.0017 585.399Z" fill="white"/>
<path d="M36.7986 572.602C36.7986 573.485 37.5148 574.201 38.3983 574.201C39.2818 574.201 39.998 573.485 39.998 572.602C39.998 571.718 39.2818 571.002 38.3983 571.002C37.5148 571.002 36.7986 571.718 36.7986 572.602Z" fill="white"/>
<path d="M38.4005 586.998C39.284 586.998 40.0002 586.282 40.0002 585.399C40.0002 584.515 39.284 583.799 38.4005 583.799C37.517 583.799 36.8008 584.515 36.8008 585.399C36.8008 586.282 37.517 586.998 38.4005 586.998Z" fill="white"/>
<path d="M25.6017 574.201C26.4852 574.201 27.2014 573.485 27.2014 572.602C27.2014 571.718 26.4852 571.002 25.6017 571.002C24.7182 571.002 24.002 571.718 24.002 572.602C24.002 573.485 24.7182 574.201 25.6017 574.201Z" fill="white"/>
<path d="M31.1995 584.207H32.7992V588.206H31.1995V584.207Z" fill="white"/>
<path d="M31.1995 569.809H32.7992V573.809H31.1995V569.809Z" fill="white"/>
<path d="M26.8001 578.207V579.807H22.8008V578.207H26.8001Z" fill="white"/>
<path d="M41.1977 578.207V579.807H37.1984V578.207H41.1977Z" fill="white"/>
<path d="M27.7573 582.119L28.8885 583.25L26.0606 586.078L24.9294 584.947L27.7573 582.119Z" fill="white"/>
<path d="M37.938 571.938L39.0691 573.068L36.2412 575.896L35.11 574.766L37.938 571.938Z" fill="white"/>
<path d="M35.1101 583.249L36.2412 582.117L39.0692 584.945L37.938 586.077L35.1101 583.249Z" fill="white"/>
<path d="M24.9293 573.068L26.0605 571.938L28.8885 574.766L27.7573 575.896L24.9293 573.068Z" fill="white"/>
<path d="M81.875 574.523C81.4635 575.06 80.8932 575.466 80.1641 575.742C79.4349 576.018 78.6068 576.156 77.6797 576.156C76.7266 576.156 75.8828 575.94 75.1484 575.508C74.4141 575.076 73.8464 574.458 73.4453 573.656C73.0495 572.849 72.8438 571.909 72.8281 570.836V569.945C72.8281 568.227 73.2396 566.885 74.0625 565.922C74.8854 564.953 76.0339 564.469 77.5078 564.469C78.7734 564.469 79.7786 564.781 80.5234 565.406C81.2682 566.031 81.7161 566.932 81.8672 568.109H79.9297C79.7109 566.74 78.9167 566.055 77.5469 566.055C76.6615 566.055 75.987 566.375 75.5234 567.016C75.0651 567.651 74.8281 568.586 74.8125 569.82V570.695C74.8125 571.924 75.0703 572.88 75.5859 573.562C76.1068 574.24 76.8281 574.578 77.75 574.578C78.7604 574.578 79.4792 574.349 79.9062 573.891V571.664H77.5625V570.164H81.875V574.523ZM92.9156 574.523C92.5042 575.06 91.9339 575.466 91.2047 575.742C90.4755 576.018 89.6474 576.156 88.7203 576.156C87.7672 576.156 86.9234 575.94 86.1891 575.508C85.4547 575.076 84.887 574.458 84.4859 573.656C84.0901 572.849 83.8844 571.909 83.8687 570.836V569.945C83.8687 568.227 84.2802 566.885 85.1031 565.922C85.926 564.953 87.0745 564.469 88.5484 564.469C89.8141 564.469 90.8193 564.781 91.5641 565.406C92.3089 566.031 92.7568 566.932 92.9078 568.109H90.9703C90.7516 566.74 89.9573 566.055 88.5875 566.055C87.7021 566.055 87.0276 566.375 86.5641 567.016C86.1057 567.651 85.8687 568.586 85.8531 569.82V570.695C85.8531 571.924 86.1109 572.88 86.6266 573.562C87.1474 574.24 87.8687 574.578 88.7906 574.578C89.801 574.578 90.5198 574.349 90.9469 573.891V571.664H88.6031V570.164H92.9156V574.523ZM95.2375 576V564.625H98.5969C99.6021 564.625 100.493 564.849 101.269 565.297C102.05 565.745 102.654 566.38 103.081 567.203C103.508 568.026 103.722 568.969 103.722 570.031V570.602C103.722 571.68 103.506 572.628 103.073 573.445C102.646 574.263 102.034 574.893 101.237 575.336C100.446 575.779 99.537 576 98.5109 576H95.2375ZM97.2141 566.219V574.422H98.5031C99.5396 574.422 100.334 574.099 100.886 573.453C101.443 572.802 101.727 571.87 101.737 570.656V570.023C101.737 568.789 101.469 567.846 100.933 567.195C100.396 566.544 99.6177 566.219 98.5969 566.219H97.2141ZM109.341 571.93H105.239V570.398H109.341V571.93ZM115.795 573.703C115.795 573.365 115.655 573.107 115.373 572.93C115.097 572.753 114.636 572.596 113.991 572.461C113.345 572.326 112.806 572.154 112.373 571.945C111.426 571.487 110.952 570.823 110.952 569.953C110.952 569.224 111.259 568.615 111.873 568.125C112.488 567.635 113.269 567.391 114.217 567.391C115.228 567.391 116.043 567.641 116.662 568.141C117.287 568.641 117.6 569.289 117.6 570.086H115.702C115.702 569.721 115.566 569.419 115.295 569.18C115.024 568.935 114.665 568.812 114.217 568.812C113.801 568.812 113.459 568.909 113.194 569.102C112.933 569.294 112.803 569.552 112.803 569.875C112.803 570.167 112.926 570.393 113.17 570.555C113.415 570.716 113.91 570.88 114.655 571.047C115.399 571.208 115.983 571.404 116.405 571.633C116.832 571.857 117.147 572.128 117.35 572.445C117.558 572.763 117.662 573.148 117.662 573.602C117.662 574.362 117.347 574.979 116.717 575.453C116.087 575.922 115.261 576.156 114.241 576.156C113.548 576.156 112.931 576.031 112.389 575.781C111.847 575.531 111.426 575.188 111.123 574.75C110.821 574.312 110.67 573.841 110.67 573.336H112.514C112.54 573.784 112.709 574.13 113.022 574.375C113.334 574.615 113.748 574.734 114.264 574.734C114.764 574.734 115.144 574.641 115.405 574.453C115.665 574.26 115.795 574.01 115.795 573.703ZM121.492 576H119.594V564H121.492V576ZM127.439 576.156C126.236 576.156 125.259 575.779 124.509 575.023C123.765 574.263 123.392 573.253 123.392 571.992V571.758C123.392 570.914 123.554 570.161 123.877 569.5C124.205 568.833 124.663 568.315 125.252 567.945C125.84 567.576 126.496 567.391 127.22 567.391C128.371 567.391 129.259 567.758 129.884 568.492C130.515 569.227 130.83 570.266 130.83 571.609V572.375H125.306C125.364 573.073 125.595 573.625 126.002 574.031C126.413 574.438 126.929 574.641 127.548 574.641C128.418 574.641 129.127 574.289 129.673 573.586L130.697 574.562C130.358 575.068 129.905 575.461 129.338 575.742C128.775 576.018 128.142 576.156 127.439 576.156ZM127.213 568.914C126.692 568.914 126.27 569.096 125.947 569.461C125.629 569.826 125.426 570.333 125.338 570.984H128.955V570.844C128.913 570.208 128.744 569.729 128.447 569.406C128.15 569.078 127.739 568.914 127.213 568.914ZM137.581 575.172C137.024 575.828 136.232 576.156 135.206 576.156C134.29 576.156 133.594 575.888 133.12 575.352C132.652 574.815 132.417 574.039 132.417 573.023V567.547H134.316V573C134.316 574.073 134.761 574.609 135.652 574.609C136.573 574.609 137.196 574.279 137.519 573.617V567.547H139.417V576H137.628L137.581 575.172ZM143.88 565.492V567.547H145.372V568.953H143.88V573.672C143.88 573.995 143.942 574.229 144.067 574.375C144.197 574.516 144.427 574.586 144.755 574.586C144.973 574.586 145.195 574.56 145.419 574.508V575.977C144.986 576.096 144.57 576.156 144.169 576.156C142.71 576.156 141.981 575.352 141.981 573.742V568.953H140.591V567.547H141.981V565.492H143.88ZM150.702 576.156C149.498 576.156 148.522 575.779 147.772 575.023C147.027 574.263 146.655 573.253 146.655 571.992V571.758C146.655 570.914 146.816 570.161 147.139 569.5C147.467 568.833 147.926 568.315 148.514 567.945C149.103 567.576 149.759 567.391 150.483 567.391C151.634 567.391 152.522 567.758 153.147 568.492C153.777 569.227 154.092 570.266 154.092 571.609V572.375H148.569C148.626 573.073 148.858 573.625 149.264 574.031C149.676 574.438 150.191 574.641 150.811 574.641C151.681 574.641 152.389 574.289 152.936 573.586L153.959 574.562C153.621 575.068 153.168 575.461 152.6 575.742C152.037 576.018 151.405 576.156 150.702 576.156ZM150.475 568.914C149.954 568.914 149.532 569.096 149.209 569.461C148.892 569.826 148.689 570.333 148.6 570.984H152.217V570.844C152.176 570.208 152.006 569.729 151.709 569.406C151.412 569.078 151.001 568.914 150.475 568.914ZM157.742 576H155.844V564H157.742V576ZM163.745 571.711C163.745 570.409 164.047 569.365 164.652 568.578C165.256 567.786 166.066 567.391 167.081 567.391C167.977 567.391 168.701 567.703 169.253 568.328V564H171.152V576H169.433L169.339 575.125C168.771 575.812 168.014 576.156 167.066 576.156C166.076 576.156 165.274 575.758 164.659 574.961C164.05 574.164 163.745 573.081 163.745 571.711ZM165.644 571.875C165.644 572.734 165.808 573.406 166.136 573.891C166.469 574.37 166.941 574.609 167.55 574.609C168.326 574.609 168.894 574.263 169.253 573.57V569.961C168.904 569.284 168.342 568.945 167.566 568.945C166.951 568.945 166.477 569.19 166.144 569.68C165.81 570.164 165.644 570.896 165.644 571.875ZM172.927 571.695C172.927 570.867 173.091 570.122 173.419 569.461C173.747 568.794 174.208 568.284 174.802 567.93C175.395 567.57 176.078 567.391 176.848 567.391C177.989 567.391 178.914 567.758 179.622 568.492C180.335 569.227 180.721 570.201 180.778 571.414L180.786 571.859C180.786 572.693 180.624 573.438 180.302 574.094C179.984 574.75 179.526 575.258 178.927 575.617C178.333 575.977 177.645 576.156 176.864 576.156C175.671 576.156 174.716 575.76 173.997 574.969C173.283 574.172 172.927 573.112 172.927 571.789V571.695ZM174.825 571.859C174.825 572.729 175.005 573.411 175.364 573.906C175.723 574.396 176.223 574.641 176.864 574.641C177.505 574.641 178.002 574.391 178.356 573.891C178.716 573.391 178.895 572.659 178.895 571.695C178.895 570.841 178.71 570.164 178.341 569.664C177.976 569.164 177.479 568.914 176.848 568.914C176.229 568.914 175.736 569.161 175.372 569.656C175.007 570.146 174.825 570.88 174.825 571.859ZM182.186 571.695C182.186 570.867 182.35 570.122 182.678 569.461C183.006 568.794 183.467 568.284 184.061 567.93C184.655 567.57 185.337 567.391 186.108 567.391C187.248 567.391 188.173 567.758 188.881 568.492C189.595 569.227 189.98 570.201 190.037 571.414L190.045 571.859C190.045 572.693 189.884 573.438 189.561 574.094C189.243 574.75 188.785 575.258 188.186 575.617C187.592 575.977 186.905 576.156 186.123 576.156C184.931 576.156 183.975 575.76 183.256 574.969C182.543 574.172 182.186 573.112 182.186 571.789V571.695ZM184.084 571.859C184.084 572.729 184.264 573.411 184.623 573.906C184.983 574.396 185.483 574.641 186.123 574.641C186.764 574.641 187.261 574.391 187.616 573.891C187.975 573.391 188.155 572.659 188.155 571.695C188.155 570.841 187.97 570.164 187.6 569.664C187.235 569.164 186.738 568.914 186.108 568.914C185.488 568.914 184.996 569.161 184.631 569.656C184.267 570.146 184.084 570.88 184.084 571.859ZM196.227 569.281C195.977 569.24 195.719 569.219 195.453 569.219C194.583 569.219 193.997 569.552 193.695 570.219V576H191.797V567.547H193.609L193.656 568.492C194.115 567.758 194.75 567.391 195.562 567.391C195.833 567.391 196.057 567.427 196.234 567.5L196.227 569.281ZM197.088 571.711C197.088 570.398 197.395 569.352 198.009 568.57C198.629 567.784 199.449 567.391 200.47 567.391C201.434 567.391 202.192 567.727 202.744 568.398L202.83 567.547H204.541V575.742C204.541 576.852 204.194 577.727 203.502 578.367C202.814 579.008 201.884 579.328 200.713 579.328C200.093 579.328 199.486 579.198 198.892 578.938C198.304 578.682 197.856 578.346 197.548 577.93L198.447 576.789C199.03 577.482 199.749 577.828 200.603 577.828C201.233 577.828 201.731 577.656 202.095 577.312C202.46 576.974 202.642 576.474 202.642 575.812V575.242C202.095 575.852 201.366 576.156 200.455 576.156C199.465 576.156 198.655 575.763 198.025 574.977C197.4 574.19 197.088 573.102 197.088 571.711ZM198.978 571.875C198.978 572.724 199.15 573.393 199.494 573.883C199.843 574.367 200.324 574.609 200.939 574.609C201.705 574.609 202.272 574.281 202.642 573.625V569.906C202.283 569.266 201.72 568.945 200.955 568.945C200.33 568.945 199.843 569.193 199.494 569.688C199.15 570.182 198.978 570.911 198.978 571.875ZM210.37 576.156C209.167 576.156 208.191 575.779 207.441 575.023C206.696 574.263 206.323 573.253 206.323 571.992V571.758C206.323 570.914 206.485 570.161 206.808 569.5C207.136 568.833 207.594 568.315 208.183 567.945C208.771 567.576 209.428 567.391 210.152 567.391C211.303 567.391 212.191 567.758 212.816 568.492C213.446 569.227 213.761 570.266 213.761 571.609V572.375H208.238C208.295 573.073 208.527 573.625 208.933 574.031C209.344 574.438 209.86 574.641 210.48 574.641C211.349 574.641 212.058 574.289 212.605 573.586L213.628 574.562C213.29 575.068 212.836 575.461 212.269 575.742C211.706 576.018 211.073 576.156 210.37 576.156ZM210.144 568.914C209.623 568.914 209.201 569.096 208.878 569.461C208.56 569.826 208.357 570.333 208.269 570.984H211.886V570.844C211.844 570.208 211.675 569.729 211.378 569.406C211.081 569.078 210.67 568.914 210.144 568.914ZM218.262 573.594L220.052 567.547H222.012L219.083 576H217.434L214.481 567.547H216.45L218.262 573.594ZM226.967 576.156C225.764 576.156 224.788 575.779 224.038 575.023C223.293 574.263 222.92 573.253 222.92 571.992V571.758C222.92 570.914 223.082 570.161 223.405 569.5C223.733 568.833 224.191 568.315 224.78 567.945C225.368 567.576 226.024 567.391 226.748 567.391C227.899 567.391 228.788 567.758 229.413 568.492C230.043 569.227 230.358 570.266 230.358 571.609V572.375H224.834C224.892 573.073 225.123 573.625 225.53 574.031C225.941 574.438 226.457 574.641 227.077 574.641C227.946 574.641 228.655 574.289 229.202 573.586L230.225 574.562C229.886 575.068 229.433 575.461 228.866 575.742C228.303 576.018 227.67 576.156 226.967 576.156ZM226.741 568.914C226.22 568.914 225.798 569.096 225.475 569.461C225.157 569.826 224.954 570.333 224.866 570.984H228.483V570.844C228.441 570.208 228.272 569.729 227.975 569.406C227.678 569.078 227.267 568.914 226.741 568.914ZM233.75 567.547L233.805 568.523C234.43 567.768 235.25 567.391 236.266 567.391C238.026 567.391 238.922 568.398 238.953 570.414V576H237.055V570.523C237.055 569.987 236.938 569.591 236.703 569.336C236.474 569.076 236.096 568.945 235.57 568.945C234.805 568.945 234.234 569.292 233.859 569.984V576H231.961V567.547H233.75Z" fill="black"/>
<path d="M266 587H78C74.6863 587 72 589.686 72 593C72 596.314 74.6863 599 78 599H266C269.314 599 272 596.314 272 593C272 589.686 269.314 587 266 587Z" fill="#EEEEEE"/>
<path d="M226 607H78C74.6863 607 72 609.686 72 613C72 616.314 74.6863 619 78 619H226C229.314 619 232 616.314 232 613C232 609.686 229.314 607 226 607Z" fill="#EEEEEE"/>
<path d="M16 619H0V635H16V619Z" fill="white"/>
<path d="M360 0H0V24H360V0Z" fill="#212121" fill-opacity="0.08"/>
<path fill-rule="evenodd" clip-rule="evenodd" d="M316 7H306V17H316V7ZM324 12C324 9.23858 326.239 7 329 7C331.761 7 334 9.23858 334 12C334 14.7614 331.761 17 329 17C326.239 17 324 14.7614 324 12ZM346 17L352 7H340L346 17Z" fill="black" fill-opacity="0.12"/>
<path fill-rule="evenodd" clip-rule="evenodd" d="M360 0H0V688H360V0ZM13 548C10.2386 548 8 550.239 8 553V640C8 642.761 10.2386 645 13 645H347C349.761 645 352 642.761 352 640V553C352 550.239 349.761 548 347 548H13Z" fill="black" fill-opacity="0.2"/>
<path d="M347 549.5H13C11.067 549.5 9.5 551.067 9.5 553V640C9.5 641.933 11.067 643.5 13 643.5H347C348.933 643.5 350.5 641.933 350.5 640V553C350.5 551.067 348.933 549.5 347 549.5Z" stroke="#0047FF" stroke-width="3"/>
</g>
<defs>
<linearGradient id="paint0_linear" x1="180" y1="-349" x2="180" y2="146" gradientUnits="userSpaceOnUse">
<stop stop-color="#EEF7F9"/>
<stop offset="1" stop-color="white"/>
</linearGradient>
<clipPath id="clip0">
<rect width="360" height="688" fill="white"/>
</clipPath>
</defs>
</svg>
