<svg width="360" height="688" viewBox="0 0 360 688" fill="none" xmlns="http://www.w3.org/2000/svg">
<g clip-path="url(#clip0)">
<rect width="360" height="688" fill="white"/>
<g clip-path="url(#clip1)">
<rect width="360" height="920" fill="white"/>
<path d="M68.3438 435.154C67.8294 435.825 67.1165 436.333 66.2051 436.678C65.2936 437.023 64.2585 437.195 63.0996 437.195C61.9082 437.195 60.8535 436.925 59.9355 436.385C59.0176 435.844 58.3079 435.073 57.8066 434.07C57.3118 433.061 57.0547 431.886 57.0352 430.545V429.432C57.0352 427.283 57.5495 425.607 58.5781 424.402C59.6068 423.191 61.0423 422.586 62.8848 422.586C64.4668 422.586 65.7233 422.977 66.6543 423.758C67.5853 424.539 68.1452 425.665 68.334 427.137H65.9121C65.6387 425.424 64.6458 424.568 62.9336 424.568C61.8268 424.568 60.9837 424.969 60.4043 425.77C59.8314 426.564 59.5352 427.732 59.5156 429.275V430.369C59.5156 431.906 59.8379 433.1 60.4824 433.953C61.1335 434.799 62.0352 435.223 63.1875 435.223C64.4505 435.223 65.349 434.936 65.8828 434.363V431.58H62.9531V429.705H68.3438V435.154ZM75.6324 437.195C74.1285 437.195 72.9078 436.723 71.9703 435.779C71.0393 434.829 70.5738 433.566 70.5738 431.99V431.697C70.5738 430.643 70.7757 429.702 71.1793 428.875C71.5895 428.042 72.1624 427.394 72.898 426.932C73.6337 426.469 74.454 426.238 75.359 426.238C76.7978 426.238 77.9078 426.697 78.6891 427.615C79.4768 428.533 79.8707 429.832 79.8707 431.512V432.469H72.9664C73.038 433.341 73.3277 434.031 73.8355 434.539C74.3499 435.047 74.9944 435.301 75.7691 435.301C76.8564 435.301 77.7418 434.861 78.4254 433.982L79.7047 435.203C79.2815 435.835 78.7151 436.326 78.0055 436.678C77.3023 437.023 76.5113 437.195 75.6324 437.195ZM75.3492 428.143C74.6982 428.143 74.1708 428.37 73.7672 428.826C73.3701 429.282 73.1161 429.917 73.0055 430.73H77.527V430.555C77.4749 429.76 77.2633 429.161 76.8922 428.758C76.5211 428.348 76.0068 428.143 75.3492 428.143ZM86.5246 437.195C85.0207 437.195 83.8 436.723 82.8625 435.779C81.9315 434.829 81.466 433.566 81.466 431.99V431.697C81.466 430.643 81.6678 429.702 82.0715 428.875C82.4816 428.042 83.0546 427.394 83.7902 426.932C84.5259 426.469 85.3462 426.238 86.2512 426.238C87.69 426.238 88.8 426.697 89.5812 427.615C90.369 428.533 90.7629 429.832 90.7629 431.512V432.469H83.8586C83.9302 433.341 84.2199 434.031 84.7277 434.539C85.2421 435.047 85.8866 435.301 86.6613 435.301C87.7486 435.301 88.634 434.861 89.3176 433.982L90.5969 435.203C90.1737 435.835 89.6073 436.326 88.8977 436.678C88.1945 437.023 87.4035 437.195 86.5246 437.195ZM86.2414 428.143C85.5904 428.143 85.063 428.37 84.6594 428.826C84.2622 429.282 84.0083 429.917 83.8977 430.73H88.4191V430.555C88.3671 429.76 88.1555 429.161 87.7844 428.758C87.4133 428.348 86.899 428.143 86.2414 428.143ZM93.5984 437V428.191H91.9871V426.434H93.5984V425.467C93.5984 424.295 93.924 423.39 94.575 422.752C95.226 422.114 96.1375 421.795 97.3094 421.795C97.726 421.795 98.1688 421.854 98.6375 421.971L98.5789 423.826C98.3185 423.774 98.0158 423.748 97.6707 423.748C96.5379 423.748 95.9715 424.331 95.9715 425.496V426.434H98.1199V428.191H95.9715V437H93.5984ZM104.689 431.639C104.689 430.011 105.067 428.706 105.822 427.723C106.577 426.733 107.59 426.238 108.859 426.238C109.979 426.238 110.884 426.629 111.574 427.41V422H113.947V437H111.799L111.682 435.906C110.972 436.766 110.025 437.195 108.84 437.195C107.603 437.195 106.6 436.697 105.832 435.701C105.07 434.705 104.689 433.351 104.689 431.639ZM107.062 431.844C107.062 432.918 107.268 433.758 107.678 434.363C108.094 434.962 108.684 435.262 109.445 435.262C110.415 435.262 111.125 434.829 111.574 433.963V429.451C111.138 428.605 110.435 428.182 109.465 428.182C108.697 428.182 108.104 428.488 107.688 429.1C107.271 429.705 107.062 430.62 107.062 431.844ZM121.226 437.195C119.722 437.195 118.502 436.723 117.564 435.779C116.633 434.829 116.168 433.566 116.168 431.99V431.697C116.168 430.643 116.369 429.702 116.773 428.875C117.183 428.042 117.756 427.394 118.492 426.932C119.227 426.469 120.048 426.238 120.953 426.238C122.392 426.238 123.502 426.697 124.283 427.615C125.071 428.533 125.464 429.832 125.464 431.512V432.469H118.56C118.632 433.341 118.921 434.031 119.429 434.539C119.944 435.047 120.588 435.301 121.363 435.301C122.45 435.301 123.336 434.861 124.019 433.982L125.298 435.203C124.875 435.835 124.309 436.326 123.599 436.678C122.896 437.023 122.105 437.195 121.226 437.195ZM120.943 428.143C120.292 428.143 119.765 428.37 119.361 428.826C118.964 429.282 118.71 429.917 118.599 430.73H123.121V430.555C123.069 429.76 122.857 429.161 122.486 428.758C122.115 428.348 121.601 428.143 120.943 428.143ZM129.999 435.105H135.624V437H127.05V435.447L132.411 428.348H127.148V426.434H135.419V427.938L129.999 435.105ZM142.171 437.195C140.667 437.195 139.446 436.723 138.509 435.779C137.578 434.829 137.112 433.566 137.112 431.99V431.697C137.112 430.643 137.314 429.702 137.718 428.875C138.128 428.042 138.701 427.394 139.436 426.932C140.172 426.469 140.992 426.238 141.897 426.238C143.336 426.238 144.446 426.697 145.227 427.615C146.015 428.533 146.409 429.832 146.409 431.512V432.469H139.505C139.576 433.341 139.866 434.031 140.374 434.539C140.888 435.047 141.533 435.301 142.307 435.301C143.395 435.301 144.28 434.861 144.964 433.982L146.243 435.203C145.82 435.835 145.253 436.326 144.544 436.678C143.841 437.023 143.05 437.195 142.171 437.195ZM141.887 428.143C141.236 428.143 140.709 428.37 140.305 428.826C139.908 429.282 139.654 429.917 139.544 430.73H144.065V430.555C144.013 429.76 143.802 429.161 143.43 428.758C143.059 428.348 142.545 428.143 141.887 428.143ZM164.668 435.154C164.154 435.825 163.441 436.333 162.529 436.678C161.618 437.023 160.583 437.195 159.424 437.195C158.232 437.195 157.178 436.925 156.26 436.385C155.342 435.844 154.632 435.073 154.131 434.07C153.636 433.061 153.379 431.886 153.359 430.545V429.432C153.359 427.283 153.874 425.607 154.902 424.402C155.931 423.191 157.367 422.586 159.209 422.586C160.791 422.586 162.048 422.977 162.979 423.758C163.91 424.539 164.469 425.665 164.658 427.137H162.236C161.963 425.424 160.97 424.568 159.258 424.568C158.151 424.568 157.308 424.969 156.729 425.77C156.156 426.564 155.859 427.732 155.84 429.275V430.369C155.84 431.906 156.162 433.1 156.807 433.953C157.458 434.799 158.359 435.223 159.512 435.223C160.775 435.223 161.673 434.936 162.207 434.363V431.58H159.277V429.705H164.668V435.154ZM178.431 435.154C177.917 435.825 177.204 436.333 176.293 436.678C175.381 437.023 174.346 437.195 173.187 437.195C171.996 437.195 170.941 436.925 170.023 436.385C169.105 435.844 168.395 435.073 167.894 434.07C167.399 433.061 167.142 431.886 167.123 430.545V429.432C167.123 427.283 167.637 425.607 168.666 424.402C169.694 423.191 171.13 422.586 172.972 422.586C174.554 422.586 175.811 422.977 176.742 423.758C177.673 424.539 178.233 425.665 178.421 427.137H176C175.726 425.424 174.733 424.568 173.021 424.568C171.914 424.568 171.071 424.969 170.492 425.77C169.919 426.564 169.623 427.732 169.603 429.275V430.369C169.603 431.906 169.925 433.1 170.57 433.953C171.221 434.799 172.123 435.223 173.275 435.223C174.538 435.223 175.436 434.936 175.97 434.363V431.58H173.041V429.705H178.431V435.154ZM181.296 437V422.781H185.495C186.752 422.781 187.865 423.061 188.835 423.621C189.812 424.181 190.567 424.975 191.101 426.004C191.635 427.033 191.902 428.211 191.902 429.539V430.252C191.902 431.6 191.631 432.785 191.091 433.807C190.557 434.829 189.792 435.617 188.796 436.17C187.807 436.723 186.67 437 185.388 437H181.296ZM183.767 424.773V435.027H185.378C186.674 435.027 187.667 434.624 188.357 433.816C189.053 433.003 189.408 431.837 189.421 430.32V429.529C189.421 427.986 189.086 426.808 188.415 425.994C187.745 425.18 186.771 424.773 185.495 424.773H183.767ZM198.887 431.912H193.761V429.998H198.887V431.912ZM206.918 434.129C206.918 433.706 206.743 433.383 206.391 433.162C206.046 432.941 205.47 432.745 204.663 432.576C203.855 432.407 203.181 432.192 202.641 431.932C201.456 431.359 200.864 430.529 200.864 429.441C200.864 428.53 201.248 427.768 202.016 427.156C202.784 426.544 203.761 426.238 204.946 426.238C206.209 426.238 207.228 426.551 208.002 427.176C208.784 427.801 209.174 428.611 209.174 429.607H206.801C206.801 429.152 206.632 428.774 206.293 428.475C205.955 428.169 205.506 428.016 204.946 428.016C204.425 428.016 203.998 428.136 203.666 428.377C203.341 428.618 203.178 428.94 203.178 429.344C203.178 429.708 203.331 429.992 203.637 430.193C203.943 430.395 204.562 430.6 205.493 430.809C206.424 431.01 207.153 431.255 207.68 431.541C208.214 431.821 208.608 432.16 208.862 432.557C209.122 432.954 209.252 433.436 209.252 434.002C209.252 434.952 208.858 435.724 208.071 436.316C207.283 436.902 206.251 437.195 204.975 437.195C204.109 437.195 203.338 437.039 202.661 436.727C201.983 436.414 201.456 435.984 201.079 435.438C200.701 434.891 200.512 434.301 200.512 433.67H202.817C202.849 434.23 203.061 434.663 203.452 434.969C203.842 435.268 204.36 435.418 205.004 435.418C205.629 435.418 206.105 435.301 206.43 435.066C206.756 434.826 206.918 434.513 206.918 434.129ZM214.002 437H211.629V422H214.002V437ZM221.398 437.195C219.894 437.195 218.673 436.723 217.736 435.779C216.805 434.829 216.339 433.566 216.339 431.99V431.697C216.339 430.643 216.541 429.702 216.945 428.875C217.355 428.042 217.928 427.394 218.664 426.932C219.399 426.469 220.22 426.238 221.125 426.238C222.563 426.238 223.673 426.697 224.455 427.615C225.242 428.533 225.636 429.832 225.636 431.512V432.469H218.732C218.804 433.341 219.093 434.031 219.601 434.539C220.115 435.047 220.76 435.301 221.535 435.301C222.622 435.301 223.507 434.861 224.191 433.982L225.47 435.203C225.047 435.835 224.481 436.326 223.771 436.678C223.068 437.023 222.277 437.195 221.398 437.195ZM221.115 428.143C220.464 428.143 219.936 428.37 219.533 428.826C219.136 429.282 218.882 429.917 218.771 430.73H223.293V430.555C223.24 429.76 223.029 429.161 222.658 428.758C222.287 428.348 221.772 428.143 221.115 428.143ZM234.038 435.965C233.342 436.785 232.352 437.195 231.07 437.195C229.924 437.195 229.055 436.86 228.462 436.189C227.876 435.519 227.583 434.549 227.583 433.279V426.434H229.956V433.25C229.956 434.591 230.513 435.262 231.626 435.262C232.779 435.262 233.557 434.848 233.96 434.021V426.434H236.333V437H234.097L234.038 435.965ZM241.874 423.865V426.434H243.739V428.191H241.874V434.09C241.874 434.493 241.952 434.786 242.108 434.969C242.271 435.145 242.557 435.232 242.968 435.232C243.241 435.232 243.518 435.2 243.798 435.135V436.971C243.257 437.12 242.736 437.195 242.235 437.195C240.412 437.195 239.501 436.189 239.501 434.178V428.191H237.762V426.434H239.501V423.865H241.874ZM250.364 437.195C248.86 437.195 247.639 436.723 246.702 435.779C245.771 434.829 245.305 433.566 245.305 431.99V431.697C245.305 430.643 245.507 429.702 245.911 428.875C246.321 428.042 246.894 427.394 247.629 426.932C248.365 426.469 249.185 426.238 250.09 426.238C251.529 426.238 252.639 426.697 253.42 427.615C254.208 428.533 254.602 429.832 254.602 431.512V432.469H247.698C247.769 433.341 248.059 434.031 248.567 434.539C249.081 435.047 249.726 435.301 250.5 435.301C251.588 435.301 252.473 434.861 253.157 433.982L254.436 435.203C254.013 435.835 253.446 436.326 252.737 436.678C252.034 437.023 251.243 437.195 250.364 437.195ZM250.08 428.143C249.429 428.143 248.902 428.37 248.498 428.826C248.101 429.282 247.847 429.917 247.737 430.73H252.258V430.555C252.206 429.76 251.995 429.161 251.623 428.758C251.252 428.348 250.738 428.143 250.08 428.143ZM259.127 437H256.754V422H259.127V437ZM266.556 431.639C266.556 430.011 266.933 428.706 267.689 427.723C268.444 426.733 269.456 426.238 270.726 426.238C271.846 426.238 272.751 426.629 273.441 427.41V422H275.814V437H273.665L273.548 435.906C272.838 436.766 271.891 437.195 270.706 437.195C269.469 437.195 268.467 436.697 267.698 435.701C266.937 434.705 266.556 433.351 266.556 431.639ZM268.929 431.844C268.929 432.918 269.134 433.758 269.544 434.363C269.961 434.962 270.55 435.262 271.312 435.262C272.282 435.262 272.991 434.829 273.441 433.963V429.451C273.004 428.605 272.301 428.182 271.331 428.182C270.563 428.182 269.971 428.488 269.554 429.1C269.137 429.705 268.929 430.62 268.929 431.844ZM277.995 431.619C277.995 430.584 278.2 429.653 278.61 428.826C279.02 427.993 279.596 427.355 280.339 426.912C281.081 426.463 281.934 426.238 282.897 426.238C284.323 426.238 285.479 426.697 286.364 427.615C287.256 428.533 287.738 429.751 287.809 431.268L287.819 431.824C287.819 432.866 287.617 433.797 287.214 434.617C286.817 435.438 286.244 436.072 285.495 436.521C284.753 436.971 283.893 437.195 282.917 437.195C281.426 437.195 280.231 436.701 279.333 435.711C278.441 434.715 277.995 433.39 277.995 431.736V431.619ZM280.368 431.824C280.368 432.911 280.593 433.764 281.042 434.383C281.491 434.995 282.116 435.301 282.917 435.301C283.718 435.301 284.339 434.988 284.782 434.363C285.231 433.738 285.456 432.824 285.456 431.619C285.456 430.551 285.225 429.705 284.762 429.08C284.307 428.455 283.685 428.143 282.897 428.143C282.123 428.143 281.507 428.452 281.052 429.07C280.596 429.682 280.368 430.6 280.368 431.824ZM289.532 431.619C289.532 430.584 289.737 429.653 290.147 428.826C290.557 427.993 291.133 427.355 291.875 426.912C292.618 426.463 293.47 426.238 294.434 426.238C295.86 426.238 297.015 426.697 297.901 427.615C298.793 428.533 299.274 429.751 299.346 431.268L299.356 431.824C299.356 432.866 299.154 433.797 298.75 434.617C298.353 435.438 297.78 436.072 297.032 436.521C296.289 436.971 295.43 437.195 294.454 437.195C292.963 437.195 291.768 436.701 290.87 435.711C289.978 434.715 289.532 433.39 289.532 431.736V431.619ZM291.905 431.824C291.905 432.911 292.129 433.764 292.579 434.383C293.028 434.995 293.653 435.301 294.454 435.301C295.254 435.301 295.876 434.988 296.319 434.363C296.768 433.738 296.993 432.824 296.993 431.619C296.993 430.551 296.761 429.705 296.299 429.08C295.843 428.455 295.222 428.143 294.434 428.143C293.659 428.143 293.044 428.452 292.588 429.07C292.133 429.682 291.905 430.6 291.905 431.824ZM307.045 428.602C306.732 428.549 306.41 428.523 306.078 428.523C304.991 428.523 304.258 428.94 303.881 429.773V437H301.508V426.434H303.773L303.832 427.615C304.405 426.697 305.199 426.238 306.215 426.238C306.553 426.238 306.833 426.284 307.055 426.375L307.045 428.602ZM63.5293 461C63.4251 460.798 63.334 460.469 63.2559 460.014C62.5007 460.801 61.5762 461.195 60.4824 461.195C59.4212 461.195 58.5553 460.893 57.8848 460.287C57.2142 459.682 56.8789 458.933 56.8789 458.041C56.8789 456.915 57.2956 456.052 58.1289 455.453C58.9688 454.848 60.1667 454.545 61.7227 454.545H63.1777V453.852C63.1777 453.305 63.0247 452.868 62.7188 452.543C62.4128 452.211 61.9473 452.045 61.3223 452.045C60.7819 452.045 60.3392 452.182 59.9941 452.455C59.6491 452.722 59.4766 453.064 59.4766 453.48H57.1035C57.1035 452.901 57.2956 452.361 57.6797 451.859C58.0638 451.352 58.5846 450.954 59.2422 450.668C59.9062 450.382 60.6452 450.238 61.459 450.238C62.696 450.238 63.6823 450.551 64.418 451.176C65.1536 451.794 65.5312 452.667 65.5508 453.793V458.559C65.5508 459.509 65.6842 460.268 65.9512 460.834V461H63.5293ZM60.9219 459.291C61.3906 459.291 61.8301 459.177 62.2402 458.949C62.6569 458.721 62.9694 458.415 63.1777 458.031V456.039H61.8984C61.0195 456.039 60.3587 456.192 59.916 456.498C59.4733 456.804 59.252 457.237 59.252 457.797C59.252 458.253 59.4017 458.617 59.7012 458.891C60.0072 459.158 60.4141 459.291 60.9219 459.291ZM74.4996 461C74.3954 460.798 74.3043 460.469 74.2262 460.014C73.471 460.801 72.5465 461.195 71.4527 461.195C70.3915 461.195 69.5257 460.893 68.8551 460.287C68.1845 459.682 67.8492 458.933 67.8492 458.041C67.8492 456.915 68.2659 456.052 69.0992 455.453C69.9391 454.848 71.137 454.545 72.693 454.545H74.148V453.852C74.148 453.305 73.9951 452.868 73.6891 452.543C73.3831 452.211 72.9176 452.045 72.2926 452.045C71.7522 452.045 71.3095 452.182 70.9645 452.455C70.6194 452.722 70.4469 453.064 70.4469 453.48H68.0738C68.0738 452.901 68.2659 452.361 68.65 451.859C69.0341 451.352 69.5549 450.954 70.2125 450.668C70.8766 450.382 71.6155 450.238 72.4293 450.238C73.6663 450.238 74.6526 450.551 75.3883 451.176C76.124 451.794 76.5016 452.667 76.5211 453.793V458.559C76.5211 459.509 76.6546 460.268 76.9215 460.834V461H74.4996ZM71.8922 459.291C72.3609 459.291 72.8004 459.177 73.2105 458.949C73.6272 458.721 73.9397 458.415 74.148 458.031V456.039H72.8687C71.9898 456.039 71.329 456.192 70.8863 456.498C70.4436 456.804 70.2223 457.237 70.2223 457.797C70.2223 458.253 70.372 458.617 70.6715 458.891C70.9775 459.158 71.3844 459.291 71.8922 459.291ZM81.3586 450.434L81.427 451.654C82.2082 450.71 83.2336 450.238 84.5031 450.238C86.7036 450.238 87.8234 451.498 87.8625 454.018V461H85.4895V454.154C85.4895 453.484 85.343 452.989 85.05 452.67C84.7635 452.344 84.2915 452.182 83.634 452.182C82.677 452.182 81.9641 452.615 81.4953 453.48V461H79.1223V450.434H81.3586ZM95.1254 455.639C95.1254 454.011 95.503 452.706 96.2582 451.723C97.0134 450.733 98.0258 450.238 99.2953 450.238C100.415 450.238 101.32 450.629 102.01 451.41V446H104.383V461H102.235L102.118 459.906C101.408 460.766 100.461 461.195 99.2758 461.195C98.0388 461.195 97.0362 460.697 96.268 459.701C95.5062 458.705 95.1254 457.351 95.1254 455.639ZM97.4984 455.844C97.4984 456.918 97.7035 457.758 98.1137 458.363C98.5303 458.962 99.1195 459.262 99.8812 459.262C100.851 459.262 101.561 458.829 102.01 457.963V453.451C101.574 452.605 100.871 452.182 99.9008 452.182C99.1326 452.182 98.5401 452.488 98.1234 453.1C97.7068 453.705 97.4984 454.62 97.4984 455.844ZM111.662 461.195C110.158 461.195 108.938 460.723 108 459.779C107.069 458.829 106.604 457.566 106.604 455.99V455.697C106.604 454.643 106.805 453.702 107.209 452.875C107.619 452.042 108.192 451.394 108.928 450.932C109.663 450.469 110.484 450.238 111.389 450.238C112.827 450.238 113.938 450.697 114.719 451.615C115.507 452.533 115.9 453.832 115.9 455.512V456.469H108.996C109.068 457.341 109.357 458.031 109.865 458.539C110.38 459.047 111.024 459.301 111.799 459.301C112.886 459.301 113.771 458.861 114.455 457.982L115.734 459.203C115.311 459.835 114.745 460.326 114.035 460.678C113.332 461.023 112.541 461.195 111.662 461.195ZM111.379 452.143C110.728 452.143 110.201 452.37 109.797 452.826C109.4 453.282 109.146 453.917 109.035 454.73H113.557V454.555C113.505 453.76 113.293 453.161 112.922 452.758C112.551 452.348 112.036 452.143 111.379 452.143ZM134.159 459.154C133.645 459.825 132.932 460.333 132.021 460.678C131.109 461.023 130.074 461.195 128.915 461.195C127.724 461.195 126.669 460.925 125.751 460.385C124.833 459.844 124.124 459.073 123.622 458.07C123.127 457.061 122.87 455.886 122.851 454.545V453.432C122.851 451.283 123.365 449.607 124.394 448.402C125.422 447.191 126.858 446.586 128.7 446.586C130.282 446.586 131.539 446.977 132.47 447.758C133.401 448.539 133.961 449.665 134.15 451.137H131.728C131.454 449.424 130.461 448.568 128.749 448.568C127.642 448.568 126.799 448.969 126.22 449.77C125.647 450.564 125.351 451.732 125.331 453.275V454.369C125.331 455.906 125.654 457.1 126.298 457.953C126.949 458.799 127.851 459.223 129.003 459.223C130.266 459.223 131.165 458.936 131.698 458.363V455.58H128.769V453.705H134.159V459.154ZM147.923 459.154C147.408 459.825 146.695 460.333 145.784 460.678C144.873 461.023 143.837 461.195 142.679 461.195C141.487 461.195 140.432 460.925 139.514 460.385C138.596 459.844 137.887 459.073 137.386 458.07C136.891 457.061 136.634 455.886 136.614 454.545V453.432C136.614 451.283 137.128 449.607 138.157 448.402C139.186 447.191 140.621 446.586 142.464 446.586C144.046 446.586 145.302 446.977 146.233 447.758C147.164 448.539 147.724 449.665 147.913 451.137H145.491C145.218 449.424 144.225 448.568 142.512 448.568C141.406 448.568 140.563 448.969 139.983 449.77C139.41 450.564 139.114 451.732 139.095 453.275V454.369C139.095 455.906 139.417 457.1 140.061 457.953C140.712 458.799 141.614 459.223 142.766 459.223C144.029 459.223 144.928 458.936 145.462 458.363V455.58H142.532V453.705H147.923V459.154ZM150.787 461V446.781H154.987C156.243 446.781 157.357 447.061 158.327 447.621C159.303 448.181 160.058 448.975 160.592 450.004C161.126 451.033 161.393 452.211 161.393 453.539V454.252C161.393 455.6 161.123 456.785 160.582 457.807C160.049 458.829 159.284 459.617 158.287 460.17C157.298 460.723 156.162 461 154.879 461H150.787ZM153.258 448.773V459.027H154.87C156.165 459.027 157.158 458.624 157.848 457.816C158.545 457.003 158.899 455.837 158.912 454.32V453.529C158.912 451.986 158.577 450.808 157.907 449.994C157.236 449.18 156.263 448.773 154.987 448.773H153.258ZM168.379 455.912H163.252V453.998H168.379V455.912ZM172.718 450.434L172.787 451.537C173.529 450.671 174.545 450.238 175.834 450.238C177.246 450.238 178.213 450.779 178.734 451.859C179.502 450.779 180.583 450.238 181.976 450.238C183.142 450.238 184.007 450.561 184.574 451.205C185.147 451.85 185.44 452.8 185.453 454.057V461H183.08V454.125C183.08 453.454 182.933 452.963 182.64 452.65C182.347 452.338 181.862 452.182 181.185 452.182C180.645 452.182 180.202 452.328 179.857 452.621C179.518 452.908 179.281 453.285 179.144 453.754L179.154 461H176.781V454.047C176.748 452.803 176.114 452.182 174.877 452.182C173.926 452.182 173.252 452.569 172.855 453.344V461H170.482V450.434H172.718ZM192.693 461.195C191.189 461.195 189.968 460.723 189.03 459.779C188.099 458.829 187.634 457.566 187.634 455.99V455.697C187.634 454.643 187.836 453.702 188.239 452.875C188.65 452.042 189.223 451.394 189.958 450.932C190.694 450.469 191.514 450.238 192.419 450.238C193.858 450.238 194.968 450.697 195.749 451.615C196.537 452.533 196.931 453.832 196.931 455.512V456.469H190.027C190.098 457.341 190.388 458.031 190.896 458.539C191.41 459.047 192.055 459.301 192.829 459.301C193.917 459.301 194.802 458.861 195.486 457.982L196.765 459.203C196.342 459.835 195.775 460.326 195.066 460.678C194.363 461.023 193.571 461.195 192.693 461.195ZM192.409 452.143C191.758 452.143 191.231 452.37 190.827 452.826C190.43 453.282 190.176 453.917 190.066 454.73H194.587V454.555C194.535 453.76 194.323 453.161 193.952 452.758C193.581 452.348 193.067 452.143 192.409 452.143ZM198.487 455.639C198.487 454.011 198.865 452.706 199.62 451.723C200.375 450.733 201.387 450.238 202.657 450.238C203.777 450.238 204.682 450.629 205.372 451.41V446H207.745V461H205.596L205.479 459.906C204.77 460.766 203.822 461.195 202.637 461.195C201.401 461.195 200.398 460.697 199.63 459.701C198.868 458.705 198.487 457.351 198.487 455.639ZM200.86 455.844C200.86 456.918 201.065 457.758 201.475 458.363C201.892 458.962 202.481 459.262 203.243 459.262C204.213 459.262 204.923 458.829 205.372 457.963V453.451C204.936 452.605 204.233 452.182 203.262 452.182C202.494 452.182 201.902 452.488 201.485 453.1C201.068 453.705 200.86 454.62 200.86 455.844ZM215.024 461.195C213.52 461.195 212.299 460.723 211.362 459.779C210.431 458.829 209.965 457.566 209.965 455.99V455.697C209.965 454.643 210.167 453.702 210.571 452.875C210.981 452.042 211.554 451.394 212.289 450.932C213.025 450.469 213.845 450.238 214.75 450.238C216.189 450.238 217.299 450.697 218.08 451.615C218.868 452.533 219.262 453.832 219.262 455.512V456.469H212.358C212.429 457.341 212.719 458.031 213.227 458.539C213.741 459.047 214.386 459.301 215.161 459.301C216.248 459.301 217.133 458.861 217.817 457.982L219.096 459.203C218.673 459.835 218.107 460.326 217.397 460.678C216.694 461.023 215.903 461.195 215.024 461.195ZM214.741 452.143C214.09 452.143 213.562 452.37 213.159 452.826C212.761 453.282 212.508 453.917 212.397 454.73H216.918V454.555C216.866 453.76 216.655 453.161 216.284 452.758C215.913 452.348 215.398 452.143 214.741 452.143ZM230.545 457.729L232.225 450.434H234.539L231.658 461H229.705L227.439 453.744L225.213 461H223.26L220.369 450.434H222.684L224.393 457.65L226.561 450.434H228.348L230.545 457.729ZM240.929 461.195C239.425 461.195 238.205 460.723 237.267 459.779C236.336 458.829 235.871 457.566 235.871 455.99V455.697C235.871 454.643 236.073 453.702 236.476 452.875C236.886 452.042 237.459 451.394 238.195 450.932C238.931 450.469 239.751 450.238 240.656 450.238C242.095 450.238 243.205 450.697 243.986 451.615C244.774 452.533 245.168 453.832 245.168 455.512V456.469H238.263C238.335 457.341 238.625 458.031 239.132 458.539C239.647 459.047 240.291 459.301 241.066 459.301C242.153 459.301 243.039 458.861 243.722 457.982L245.002 459.203C244.578 459.835 244.012 460.326 243.302 460.678C242.599 461.023 241.808 461.195 240.929 461.195ZM240.646 452.143C239.995 452.143 239.468 452.37 239.064 452.826C238.667 453.282 238.413 453.917 238.302 454.73H242.824V454.555C242.772 453.76 242.56 453.161 242.189 452.758C241.818 452.348 241.304 452.143 240.646 452.143ZM252.7 452.602C252.388 452.549 252.066 452.523 251.734 452.523C250.646 452.523 249.914 452.94 249.536 453.773V461H247.163V450.434H249.429L249.488 451.615C250.06 450.697 250.855 450.238 251.87 450.238C252.209 450.238 252.489 450.284 252.71 450.375L252.7 452.602ZM257.782 456.469L256.727 457.553V461H254.354V446H256.727V454.652L257.47 453.725L260.389 450.434H263.241L259.315 454.838L263.661 461H260.917L257.782 456.469ZM269.407 461.195C267.903 461.195 266.682 460.723 265.745 459.779C264.814 458.829 264.348 457.566 264.348 455.99V455.697C264.348 454.643 264.55 453.702 264.954 452.875C265.364 452.042 265.937 451.394 266.672 450.932C267.408 450.469 268.228 450.238 269.133 450.238C270.572 450.238 271.682 450.697 272.463 451.615C273.251 452.533 273.645 453.832 273.645 455.512V456.469H266.741C266.812 457.341 267.102 458.031 267.61 458.539C268.124 459.047 268.769 459.301 269.543 459.301C270.631 459.301 271.516 458.861 272.2 457.982L273.479 459.203C273.056 459.835 272.489 460.326 271.78 460.678C271.077 461.023 270.286 461.195 269.407 461.195ZM269.123 452.143C268.472 452.143 267.945 452.37 267.541 452.826C267.144 453.282 266.89 453.917 266.78 454.73H271.301V454.555C271.249 453.76 271.038 453.161 270.666 452.758C270.295 452.348 269.781 452.143 269.123 452.143ZM281.178 452.602C280.865 452.549 280.543 452.523 280.211 452.523C279.124 452.523 278.391 452.94 278.014 453.773V461H275.641V450.434H277.906L277.965 451.615C278.538 450.697 279.332 450.238 280.348 450.238C280.686 450.238 280.966 450.284 281.188 450.375L281.178 452.602ZM284.257 458.5C284.7 458.5 285.042 458.627 285.283 458.881C285.524 459.128 285.644 459.441 285.644 459.818C285.644 460.189 285.524 460.499 285.283 460.746C285.042 460.987 284.7 461.107 284.257 461.107C283.834 461.107 283.499 460.987 283.252 460.746C283.004 460.505 282.88 460.196 282.88 459.818C282.88 459.441 283.001 459.128 283.242 458.881C283.483 458.627 283.821 458.5 284.257 458.5ZM284.257 450.209C284.7 450.209 285.042 450.336 285.283 450.59C285.524 450.837 285.644 451.15 285.644 451.527C285.644 451.898 285.524 452.208 285.283 452.455C285.042 452.696 284.7 452.816 284.257 452.816C283.834 452.816 283.499 452.696 283.252 452.455C283.004 452.214 282.88 451.905 282.88 451.527C282.88 451.15 283.001 450.837 283.242 450.59C283.483 450.336 283.821 450.209 284.257 450.209Z" fill="black"/>
<rect x="56" y="482" width="288" height="88" rx="4" fill="#F2F2F7"/>
<path d="M115.26 531.074L116.409 535H119.327L113.866 517.938H111.37L105.815 535H108.745L109.905 531.074H115.26ZM110.62 528.66L112.612 521.91L114.569 528.66H110.62ZM136.656 526.539L138.894 527.09C139.042 526.949 139.195 526.82 139.351 526.703C139.515 526.578 139.695 526.469 139.89 526.375C140.077 526.289 140.292 526.219 140.534 526.164C140.784 526.109 141.077 526.082 141.413 526.082C141.921 526.082 142.366 526.168 142.749 526.34C143.132 526.504 143.452 526.738 143.71 527.043C143.968 527.348 144.159 527.707 144.284 528.121C144.417 528.527 144.484 528.977 144.484 529.469C144.484 529.977 144.429 530.449 144.32 530.887C144.21 531.316 144.042 531.684 143.816 531.988C143.589 532.301 143.304 532.543 142.96 532.715C142.616 532.887 142.21 532.973 141.741 532.973C140.945 532.973 140.288 532.75 139.773 532.305C139.265 531.859 138.96 531.219 138.859 530.383H136.128C136.175 531.172 136.359 531.871 136.679 532.48C137.007 533.082 137.425 533.586 137.933 533.992C138.441 534.406 139.023 534.719 139.679 534.93C140.335 535.133 141.023 535.234 141.741 535.234C142.687 535.234 143.507 535.086 144.202 534.789C144.898 534.492 145.472 534.086 145.925 533.57C146.386 533.055 146.726 532.453 146.945 531.766C147.171 531.07 147.284 530.332 147.284 529.551C147.284 528.668 147.167 527.875 146.933 527.172C146.698 526.461 146.359 525.859 145.913 525.367C145.476 524.867 144.937 524.484 144.296 524.219C143.663 523.953 142.945 523.82 142.14 523.82C141.546 523.82 141.019 523.895 140.558 524.043C140.105 524.191 139.738 524.348 139.456 524.512L139.902 520.422H146.745V517.938H137.581L136.656 526.539ZM173.789 517.855H173.461C172.133 517.855 170.953 518.062 169.922 518.477C168.891 518.891 168.023 519.484 167.32 520.258C166.492 521.156 165.898 522.23 165.539 523.48C165.187 524.723 165.012 526.031 165.012 527.406V528.566C165.012 529.48 165.144 530.352 165.41 531.18C165.676 532 166.062 532.715 166.57 533.324C167.062 533.91 167.66 534.375 168.363 534.719C169.066 535.062 169.867 535.234 170.766 535.234C171.641 535.234 172.418 535.086 173.098 534.789C173.785 534.484 174.367 534.066 174.844 533.535C175.312 533.012 175.668 532.398 175.91 531.695C176.16 530.984 176.285 530.223 176.285 529.41C176.285 528.668 176.187 527.953 175.992 527.266C175.805 526.578 175.508 525.969 175.101 525.438C174.703 524.906 174.195 524.484 173.578 524.172C172.969 523.859 172.25 523.703 171.422 523.703C171.031 523.703 170.66 523.75 170.308 523.844C169.957 523.93 169.633 524.051 169.336 524.207C169.039 524.355 168.766 524.531 168.516 524.734C168.266 524.93 168.047 525.133 167.859 525.344C167.922 524.617 168.082 523.938 168.34 523.305C168.605 522.672 168.976 522.129 169.453 521.676C169.922 521.223 170.496 520.871 171.176 520.621C171.863 520.363 172.672 520.234 173.601 520.234H173.789V517.855ZM170.73 525.977C171.183 525.977 171.582 526.07 171.926 526.258C172.277 526.438 172.57 526.688 172.805 527.008C173.039 527.328 173.215 527.703 173.332 528.133C173.457 528.555 173.519 529.004 173.519 529.48C173.519 529.98 173.457 530.445 173.332 530.875C173.207 531.297 173.023 531.664 172.781 531.977C172.539 532.281 172.246 532.523 171.902 532.703C171.558 532.875 171.168 532.961 170.73 532.961C170.332 532.961 169.957 532.871 169.605 532.691C169.254 532.512 168.945 532.25 168.68 531.906C168.414 531.562 168.203 531.133 168.047 530.617C167.898 530.102 167.824 529.504 167.824 528.824V527.957C167.949 527.668 168.105 527.406 168.293 527.172C168.48 526.938 168.691 526.73 168.926 526.551C169.183 526.371 169.465 526.23 169.769 526.129C170.074 526.027 170.394 525.977 170.73 525.977ZM205.215 528.637V526.363H195.782V528.637H205.215ZM226.763 525.203V527.406H228.439C228.923 527.406 229.361 527.465 229.751 527.582C230.15 527.691 230.489 527.859 230.771 528.086C231.052 528.32 231.267 528.613 231.415 528.965C231.564 529.316 231.638 529.738 231.638 530.23C231.638 530.668 231.571 531.059 231.439 531.402C231.314 531.738 231.13 532.02 230.888 532.246C230.638 532.488 230.329 532.672 229.962 532.797C229.603 532.914 229.196 532.973 228.743 532.973C228.321 532.973 227.935 532.91 227.583 532.785C227.239 532.66 226.943 532.484 226.693 532.258C226.435 532.039 226.236 531.773 226.095 531.461C225.962 531.141 225.896 530.793 225.896 530.418H223.095C223.095 531.215 223.247 531.914 223.552 532.516C223.864 533.109 224.278 533.609 224.794 534.016C225.31 534.422 225.907 534.727 226.587 534.93C227.267 535.133 227.974 535.234 228.708 535.234C229.521 535.234 230.275 535.125 230.97 534.906C231.673 534.68 232.282 534.352 232.798 533.922C233.306 533.5 233.704 532.98 233.993 532.363C234.29 531.738 234.439 531.027 234.439 530.23C234.439 529.801 234.388 529.387 234.286 528.988C234.185 528.582 234.021 528.203 233.794 527.852C233.568 527.508 233.275 527.199 232.915 526.926C232.564 526.645 232.134 526.418 231.626 526.246C232.056 526.051 232.431 525.812 232.751 525.531C233.071 525.25 233.337 524.949 233.548 524.629C233.759 524.301 233.915 523.961 234.017 523.609C234.126 523.258 234.181 522.906 234.181 522.555C234.181 521.758 234.048 521.059 233.782 520.457C233.517 519.855 233.142 519.348 232.657 518.934C232.181 518.527 231.603 518.223 230.923 518.02C230.251 517.809 229.513 517.703 228.708 517.703C227.919 517.703 227.193 517.82 226.528 518.055C225.872 518.289 225.302 518.613 224.818 519.027C224.333 519.449 223.954 519.945 223.681 520.516C223.407 521.086 223.271 521.711 223.271 522.391H226.071C226.071 522.023 226.138 521.691 226.271 521.395C226.411 521.098 226.603 520.844 226.845 520.633C227.079 520.422 227.357 520.262 227.677 520.152C228.005 520.035 228.361 519.977 228.743 519.977C229.173 519.977 229.552 520.035 229.88 520.152C230.216 520.27 230.493 520.434 230.712 520.645C230.931 520.871 231.095 521.145 231.204 521.465C231.321 521.785 231.38 522.148 231.38 522.555C231.38 522.93 231.318 523.281 231.193 523.609C231.075 523.93 230.903 524.199 230.677 524.418C230.435 524.668 230.126 524.863 229.751 525.004C229.376 525.137 228.939 525.203 228.439 525.203H226.763ZM262.197 528.918V517.938H259.314L251.943 529.469L252.013 531.191H259.396V535H262.197V531.191H264.342V528.918H262.197ZM254.803 528.918L259.068 522.297L259.396 521.688V528.918H254.803ZM292.37 527.734V525.414H285.151V520.27H293.401V517.938H282.315V535H285.151V527.734H292.37Z" fill="black"/>
<path d="M68.5977 625.484L70.7852 614.781H73.2363L69.9551 629H67.5918L64.8867 618.619L62.123 629H59.75L56.4688 614.781H58.9199L61.127 625.465L63.8418 614.781H65.9121L68.5977 625.484ZM80.9449 629C80.8408 628.798 80.7496 628.469 80.6715 628.014C79.9163 628.801 78.9918 629.195 77.898 629.195C76.8368 629.195 75.971 628.893 75.3004 628.287C74.6298 627.682 74.2945 626.933 74.2945 626.041C74.2945 624.915 74.7112 624.052 75.5445 623.453C76.3844 622.848 77.5823 622.545 79.1383 622.545H80.5934V621.852C80.5934 621.305 80.4404 620.868 80.1344 620.543C79.8284 620.211 79.3629 620.045 78.7379 620.045C78.1975 620.045 77.7548 620.182 77.4098 620.455C77.0647 620.722 76.8922 621.064 76.8922 621.48H74.5191C74.5191 620.901 74.7112 620.361 75.0953 619.859C75.4794 619.352 76.0003 618.954 76.6578 618.668C77.3219 618.382 78.0608 618.238 78.8746 618.238C80.1116 618.238 81.0979 618.551 81.8336 619.176C82.5693 619.794 82.9469 620.667 82.9664 621.793V626.559C82.9664 627.509 83.0999 628.268 83.3668 628.834V629H80.9449ZM78.3375 627.291C78.8062 627.291 79.2457 627.177 79.6559 626.949C80.0725 626.721 80.385 626.415 80.5934 626.031V624.039H79.3141C78.4352 624.039 77.7743 624.192 77.3316 624.498C76.8889 624.804 76.6676 625.237 76.6676 625.797C76.6676 626.253 76.8173 626.617 77.1168 626.891C77.4228 627.158 77.8297 627.291 78.3375 627.291ZM89.9426 627.301C90.535 627.301 91.0266 627.128 91.4172 626.783C91.8078 626.438 92.0161 626.012 92.0422 625.504H94.2785C94.2525 626.161 94.0474 626.777 93.6633 627.35C93.2792 627.916 92.7583 628.365 92.1008 628.697C91.4432 629.029 90.7336 629.195 89.9719 629.195C88.494 629.195 87.3221 628.717 86.4562 627.76C85.5904 626.803 85.1574 625.481 85.1574 623.795V623.551C85.1574 621.943 85.5871 620.657 86.4465 619.693C87.3059 618.723 88.4777 618.238 89.9621 618.238C91.2186 618.238 92.2408 618.606 93.0285 619.342C93.8228 620.071 94.2395 621.031 94.2785 622.223H92.0422C92.0161 621.617 91.8078 621.119 91.4172 620.729C91.0331 620.338 90.5415 620.143 89.9426 620.143C89.1743 620.143 88.5819 620.423 88.1652 620.982C87.7486 621.536 87.537 622.379 87.5305 623.512V623.893C87.5305 625.038 87.7355 625.895 88.1457 626.461C88.5624 627.021 89.1613 627.301 89.9426 627.301ZM98.5594 619.586C99.3341 618.688 100.314 618.238 101.499 618.238C103.751 618.238 104.894 619.524 104.927 622.096V629H102.554V622.184C102.554 621.454 102.394 620.94 102.075 620.641C101.763 620.335 101.3 620.182 100.688 620.182C99.7378 620.182 99.0281 620.605 98.5594 621.451V629H96.1863V614H98.5594V619.586ZM110.457 615.865V618.434H112.323V620.191H110.457V626.09C110.457 626.493 110.536 626.786 110.692 626.969C110.855 627.145 111.141 627.232 111.551 627.232C111.825 627.232 112.101 627.2 112.381 627.135V628.971C111.841 629.12 111.32 629.195 110.819 629.195C108.996 629.195 108.084 628.189 108.084 626.178V620.191H106.346V618.434H108.084V615.865H110.457ZM118.98 623.619C118.98 622.584 119.185 621.653 119.595 620.826C120.005 619.993 120.582 619.355 121.324 618.912C122.066 618.463 122.919 618.238 123.882 618.238C125.308 618.238 126.464 618.697 127.349 619.615C128.241 620.533 128.723 621.751 128.795 623.268L128.804 623.824C128.804 624.866 128.602 625.797 128.199 626.617C127.802 627.438 127.229 628.072 126.48 628.521C125.738 628.971 124.879 629.195 123.902 629.195C122.411 629.195 121.216 628.701 120.318 627.711C119.426 626.715 118.98 625.39 118.98 623.736V623.619ZM121.353 623.824C121.353 624.911 121.578 625.764 122.027 626.383C122.476 626.995 123.101 627.301 123.902 627.301C124.703 627.301 125.324 626.988 125.767 626.363C126.216 625.738 126.441 624.824 126.441 623.619C126.441 622.551 126.21 621.705 125.748 621.08C125.292 620.455 124.67 620.143 123.882 620.143C123.108 620.143 122.492 620.452 122.037 621.07C121.581 621.682 121.353 622.6 121.353 623.824ZM140.214 623.824C140.214 625.458 139.843 626.764 139.101 627.74C138.359 628.71 137.363 629.195 136.113 629.195C134.954 629.195 134.026 628.814 133.329 628.053V633.062H130.956V618.434H133.144L133.241 619.508C133.938 618.661 134.885 618.238 136.083 618.238C137.372 618.238 138.381 618.72 139.111 619.684C139.846 620.641 140.214 621.972 140.214 623.678V623.824ZM137.851 623.619C137.851 622.564 137.639 621.728 137.216 621.109C136.799 620.491 136.2 620.182 135.419 620.182C134.449 620.182 133.752 620.582 133.329 621.383V626.07C133.759 626.891 134.462 627.301 135.439 627.301C136.194 627.301 136.783 626.998 137.206 626.393C137.636 625.781 137.851 624.856 137.851 623.619ZM147.067 623.639C147.067 622.011 147.444 620.706 148.2 619.723C148.955 618.733 149.967 618.238 151.237 618.238C152.357 618.238 153.261 618.629 153.952 619.41V614H156.325V629H154.176L154.059 627.906C153.349 628.766 152.402 629.195 151.217 629.195C149.98 629.195 148.978 628.697 148.209 627.701C147.448 626.705 147.067 625.351 147.067 623.639ZM149.44 623.844C149.44 624.918 149.645 625.758 150.055 626.363C150.472 626.962 151.061 627.262 151.823 627.262C152.793 627.262 153.502 626.829 153.952 625.963V621.451C153.515 620.605 152.812 620.182 151.842 620.182C151.074 620.182 150.482 620.488 150.065 621.1C149.648 621.705 149.44 622.62 149.44 623.844ZM163.604 629.195C162.1 629.195 160.879 628.723 159.941 627.779C159.01 626.829 158.545 625.566 158.545 623.99V623.697C158.545 622.643 158.747 621.702 159.15 620.875C159.561 620.042 160.133 619.394 160.869 618.932C161.605 618.469 162.425 618.238 163.33 618.238C164.769 618.238 165.879 618.697 166.66 619.615C167.448 620.533 167.842 621.832 167.842 623.512V624.469H160.938C161.009 625.341 161.299 626.031 161.807 626.539C162.321 627.047 162.965 627.301 163.74 627.301C164.827 627.301 165.713 626.861 166.396 625.982L167.676 627.203C167.253 627.835 166.686 628.326 165.977 628.678C165.273 629.023 164.482 629.195 163.604 629.195ZM163.32 620.143C162.669 620.143 162.142 620.37 161.738 620.826C161.341 621.282 161.087 621.917 160.977 622.73H165.498V622.555C165.446 621.76 165.234 621.161 164.863 620.758C164.492 620.348 163.978 620.143 163.32 620.143ZM186.101 627.154C185.586 627.825 184.874 628.333 183.962 628.678C183.051 629.023 182.015 629.195 180.857 629.195C179.665 629.195 178.611 628.925 177.693 628.385C176.775 627.844 176.065 627.073 175.564 626.07C175.069 625.061 174.812 623.886 174.792 622.545V621.432C174.792 619.283 175.307 617.607 176.335 616.402C177.364 615.191 178.799 614.586 180.642 614.586C182.224 614.586 183.48 614.977 184.411 615.758C185.342 616.539 185.902 617.665 186.091 619.137H183.669C183.396 617.424 182.403 616.568 180.691 616.568C179.584 616.568 178.741 616.969 178.161 617.77C177.588 618.564 177.292 619.732 177.273 621.275V622.369C177.273 623.906 177.595 625.1 178.239 625.953C178.89 626.799 179.792 627.223 180.945 627.223C182.208 627.223 183.106 626.936 183.64 626.363V623.58H180.71V621.705H186.101V627.154ZM199.864 627.154C199.35 627.825 198.637 628.333 197.725 628.678C196.814 629.023 195.779 629.195 194.62 629.195C193.429 629.195 192.374 628.925 191.456 628.385C190.538 627.844 189.828 627.073 189.327 626.07C188.832 625.061 188.575 623.886 188.555 622.545V621.432C188.555 619.283 189.07 617.607 190.098 616.402C191.127 615.191 192.563 614.586 194.405 614.586C195.987 614.586 197.244 614.977 198.175 615.758C199.106 616.539 199.665 617.665 199.854 619.137H197.432C197.159 617.424 196.166 616.568 194.454 616.568C193.347 616.568 192.504 616.969 191.925 617.77C191.352 618.564 191.055 619.732 191.036 621.275V622.369C191.036 623.906 191.358 625.1 192.003 625.953C192.654 626.799 193.555 627.223 194.708 627.223C195.971 627.223 196.869 626.936 197.403 626.363V623.58H194.473V621.705H199.864V627.154ZM202.729 629V614.781H206.928C208.185 614.781 209.298 615.061 210.268 615.621C211.245 616.181 212 616.975 212.534 618.004C213.067 619.033 213.334 620.211 213.334 621.539V622.252C213.334 623.6 213.064 624.785 212.524 625.807C211.99 626.829 211.225 627.617 210.229 628.17C209.239 628.723 208.103 629 206.821 629H202.729ZM205.2 616.773V627.027H206.811C208.107 627.027 209.099 626.624 209.789 625.816C210.486 625.003 210.841 623.837 210.854 622.32V621.529C210.854 619.986 210.519 618.808 209.848 617.994C209.177 617.18 208.204 616.773 206.928 616.773H205.2ZM220.32 623.912H215.193V621.998H220.32V623.912ZM224.66 618.434L224.728 619.537C225.47 618.671 226.486 618.238 227.775 618.238C229.188 618.238 230.155 618.779 230.675 619.859C231.444 618.779 232.524 618.238 233.918 618.238C235.083 618.238 235.949 618.561 236.515 619.205C237.088 619.85 237.381 620.8 237.394 622.057V629H235.021V622.125C235.021 621.454 234.875 620.963 234.582 620.65C234.289 620.338 233.804 620.182 233.127 620.182C232.586 620.182 232.143 620.328 231.798 620.621C231.46 620.908 231.222 621.285 231.086 621.754L231.095 629H228.722V622.047C228.69 620.803 228.055 620.182 226.818 620.182C225.867 620.182 225.194 620.569 224.796 621.344V629H222.423V618.434H224.66ZM244.634 629.195C243.13 629.195 241.909 628.723 240.972 627.779C240.041 626.829 239.575 625.566 239.575 623.99V623.697C239.575 622.643 239.777 621.702 240.181 620.875C240.591 620.042 241.164 619.394 241.9 618.932C242.635 618.469 243.456 618.238 244.361 618.238C245.799 618.238 246.909 618.697 247.691 619.615C248.478 620.533 248.872 621.832 248.872 623.512V624.469H241.968C242.04 625.341 242.329 626.031 242.837 626.539C243.351 627.047 243.996 627.301 244.771 627.301C245.858 627.301 246.743 626.861 247.427 625.982L248.706 627.203C248.283 627.835 247.717 628.326 247.007 628.678C246.304 629.023 245.513 629.195 244.634 629.195ZM244.351 620.143C243.7 620.143 243.172 620.37 242.769 620.826C242.372 621.282 242.118 621.917 242.007 622.73H246.529V622.555C246.476 621.76 246.265 621.161 245.894 620.758C245.523 620.348 245.008 620.143 244.351 620.143ZM250.429 623.639C250.429 622.011 250.806 620.706 251.561 619.723C252.317 618.733 253.329 618.238 254.598 618.238C255.718 618.238 256.623 618.629 257.313 619.41V614H259.686V629H257.538L257.421 627.906C256.711 628.766 255.764 629.195 254.579 629.195C253.342 629.195 252.339 628.697 251.571 627.701C250.809 626.705 250.429 625.351 250.429 623.639ZM252.802 623.844C252.802 624.918 253.007 625.758 253.417 626.363C253.833 626.962 254.423 627.262 255.184 627.262C256.154 627.262 256.864 626.829 257.313 625.963V621.451C256.877 620.605 256.174 620.182 255.204 620.182C254.436 620.182 253.843 620.488 253.427 621.1C253.01 621.705 252.802 622.62 252.802 623.844ZM266.965 629.195C265.461 629.195 264.241 628.723 263.303 627.779C262.372 626.829 261.907 625.566 261.907 623.99V623.697C261.907 622.643 262.108 621.702 262.512 620.875C262.922 620.042 263.495 619.394 264.231 618.932C264.967 618.469 265.787 618.238 266.692 618.238C268.131 618.238 269.241 618.697 270.022 619.615C270.81 620.533 271.204 621.832 271.204 623.512V624.469H264.299C264.371 625.341 264.661 626.031 265.168 626.539C265.683 627.047 266.327 627.301 267.102 627.301C268.189 627.301 269.075 626.861 269.758 625.982L271.038 627.203C270.614 627.835 270.048 628.326 269.338 628.678C268.635 629.023 267.844 629.195 266.965 629.195ZM266.682 620.143C266.031 620.143 265.504 620.37 265.1 620.826C264.703 621.282 264.449 621.917 264.338 622.73H268.86V622.555C268.808 621.76 268.596 621.161 268.225 620.758C267.854 620.348 267.34 620.143 266.682 620.143ZM282.486 625.729L284.166 618.434H286.48L283.6 629H281.646L279.381 621.744L277.154 629H275.201L272.311 618.434H274.625L276.334 625.65L278.502 618.434H280.289L282.486 625.729ZM292.871 629.195C291.367 629.195 290.146 628.723 289.209 627.779C288.278 626.829 287.812 625.566 287.812 623.99V623.697C287.812 622.643 288.014 621.702 288.418 620.875C288.828 620.042 289.401 619.394 290.136 618.932C290.872 618.469 291.692 618.238 292.597 618.238C294.036 618.238 295.146 618.697 295.927 619.615C296.715 620.533 297.109 621.832 297.109 623.512V624.469H290.205C290.276 625.341 290.566 626.031 291.074 626.539C291.588 627.047 292.233 627.301 293.007 627.301C294.095 627.301 294.98 626.861 295.664 625.982L296.943 627.203C296.52 627.835 295.953 628.326 295.244 628.678C294.541 629.023 293.75 629.195 292.871 629.195ZM292.587 620.143C291.936 620.143 291.409 620.37 291.005 620.826C290.608 621.282 290.354 621.917 290.244 622.73H294.765V622.555C294.713 621.76 294.502 621.161 294.13 620.758C293.759 620.348 293.245 620.143 292.587 620.143ZM304.642 620.602C304.329 620.549 304.007 620.523 303.675 620.523C302.588 620.523 301.855 620.94 301.478 621.773V629H299.105V618.434H301.37L301.429 619.615C302.002 618.697 302.796 618.238 303.812 618.238C304.15 618.238 304.43 618.284 304.652 618.375L304.642 620.602ZM309.723 624.469L308.669 625.553V629H306.296V614H308.669V622.652L309.411 621.725L312.331 618.434H315.182L311.257 622.838L315.602 629H312.858L309.723 624.469ZM321.348 629.195C319.844 629.195 318.623 628.723 317.686 627.779C316.755 626.829 316.289 625.566 316.289 623.99V623.697C316.289 622.643 316.491 621.702 316.895 620.875C317.305 620.042 317.878 619.394 318.614 618.932C319.349 618.469 320.17 618.238 321.075 618.238C322.513 618.238 323.623 618.697 324.405 619.615C325.192 620.533 325.586 621.832 325.586 623.512V624.469H318.682C318.754 625.341 319.043 626.031 319.551 626.539C320.066 627.047 320.71 627.301 321.485 627.301C322.572 627.301 323.457 626.861 324.141 625.982L325.42 627.203C324.997 627.835 324.431 628.326 323.721 628.678C323.018 629.023 322.227 629.195 321.348 629.195ZM321.065 620.143C320.414 620.143 319.886 620.37 319.483 620.826C319.086 621.282 318.832 621.917 318.721 622.73H323.243V622.555C323.191 621.76 322.979 621.161 322.608 620.758C322.237 620.348 321.722 620.143 321.065 620.143ZM333.119 620.602C332.807 620.549 332.484 620.523 332.152 620.523C331.065 620.523 330.333 620.94 329.955 621.773V629H327.582V618.434H329.848L329.906 619.615C330.479 618.697 331.273 618.238 332.289 618.238C332.628 618.238 332.908 618.284 333.129 618.375L333.119 620.602ZM60.9414 649.992L63.1777 642.434H65.6289L61.9668 653H59.9062L56.2148 642.434H58.6758L60.9414 649.992ZM66.6676 647.619C66.6676 646.584 66.8727 645.653 67.2828 644.826C67.693 643.993 68.2691 643.355 69.0113 642.912C69.7535 642.463 70.6064 642.238 71.5699 642.238C72.9957 642.238 74.1513 642.697 75.0367 643.615C75.9286 644.533 76.4104 645.751 76.482 647.268L76.4918 647.824C76.4918 648.866 76.29 649.797 75.8863 650.617C75.4892 651.438 74.9163 652.072 74.1676 652.521C73.4254 652.971 72.566 653.195 71.5895 653.195C70.0986 653.195 68.9039 652.701 68.0055 651.711C67.1135 650.715 66.6676 649.39 66.6676 647.736V647.619ZM69.0406 647.824C69.0406 648.911 69.2652 649.764 69.7145 650.383C70.1637 650.995 70.7887 651.301 71.5895 651.301C72.3902 651.301 73.012 650.988 73.4547 650.363C73.9039 649.738 74.1285 648.824 74.1285 647.619C74.1285 646.551 73.8974 645.705 73.4352 645.08C72.9794 644.455 72.3577 644.143 71.5699 644.143C70.7952 644.143 70.1799 644.452 69.7242 645.07C69.2685 645.682 69.0406 646.6 69.0406 647.824ZM78.2043 647.619C78.2043 646.584 78.4094 645.653 78.8195 644.826C79.2297 643.993 79.8059 643.355 80.548 642.912C81.2902 642.463 82.1431 642.238 83.1066 642.238C84.5324 642.238 85.688 642.697 86.5734 643.615C87.4654 644.533 87.9471 645.751 88.0187 647.268L88.0285 647.824C88.0285 648.866 87.8267 649.797 87.423 650.617C87.0259 651.438 86.453 652.072 85.7043 652.521C84.9621 652.971 84.1027 653.195 83.1262 653.195C81.6353 653.195 80.4406 652.701 79.5422 651.711C78.6503 650.715 78.2043 649.39 78.2043 647.736V647.619ZM80.5773 647.824C80.5773 648.911 80.802 649.764 81.2512 650.383C81.7004 650.995 82.3254 651.301 83.1262 651.301C83.927 651.301 84.5487 650.988 84.9914 650.363C85.4406 649.738 85.6652 648.824 85.6652 647.619C85.6652 646.551 85.4341 645.705 84.9719 645.08C84.5161 644.455 83.8944 644.143 83.1066 644.143C82.3319 644.143 81.7167 644.452 81.2609 645.07C80.8052 645.682 80.5773 646.6 80.5773 647.824ZM95.7176 644.602C95.4051 644.549 95.0828 644.523 94.7508 644.523C93.6635 644.523 92.9311 644.94 92.5535 645.773V653H90.1805V642.434H92.4461L92.5047 643.615C93.0776 642.697 93.8719 642.238 94.8875 642.238C95.226 642.238 95.506 642.284 95.7273 642.375L95.7176 644.602ZM102.053 647.639C102.053 646.011 102.43 644.706 103.186 643.723C103.941 642.733 104.953 642.238 106.223 642.238C107.342 642.238 108.247 642.629 108.938 643.41V638H111.311V653H109.162L109.045 651.906C108.335 652.766 107.388 653.195 106.203 653.195C104.966 653.195 103.964 652.697 103.195 651.701C102.434 650.705 102.053 649.351 102.053 647.639ZM104.426 647.844C104.426 648.918 104.631 649.758 105.041 650.363C105.458 650.962 106.047 651.262 106.809 651.262C107.779 651.262 108.488 650.829 108.938 649.963V645.451C108.501 644.605 107.798 644.182 106.828 644.182C106.06 644.182 105.467 644.488 105.051 645.1C104.634 645.705 104.426 646.62 104.426 647.844ZM118.589 653.195C117.086 653.195 115.865 652.723 114.927 651.779C113.996 650.829 113.531 649.566 113.531 647.99V647.697C113.531 646.643 113.733 645.702 114.136 644.875C114.546 644.042 115.119 643.394 115.855 642.932C116.591 642.469 117.411 642.238 118.316 642.238C119.755 642.238 120.865 642.697 121.646 643.615C122.434 644.533 122.828 645.832 122.828 647.512V648.469H115.923C115.995 649.341 116.285 650.031 116.793 650.539C117.307 651.047 117.951 651.301 118.726 651.301C119.813 651.301 120.699 650.861 121.382 649.982L122.662 651.203C122.239 651.835 121.672 652.326 120.963 652.678C120.259 653.023 119.468 653.195 118.589 653.195ZM118.306 644.143C117.655 644.143 117.128 644.37 116.724 644.826C116.327 645.282 116.073 645.917 115.963 646.73H120.484V646.555C120.432 645.76 120.22 645.161 119.849 644.758C119.478 644.348 118.964 644.143 118.306 644.143ZM133.684 649.992L135.921 642.434H138.372L134.71 653H132.649L128.958 642.434H131.419L133.684 649.992ZM139.411 647.619C139.411 646.584 139.616 645.653 140.026 644.826C140.436 643.993 141.012 643.355 141.754 642.912C142.496 642.463 143.349 642.238 144.313 642.238C145.739 642.238 146.894 642.697 147.78 643.615C148.672 644.533 149.153 645.751 149.225 647.268L149.235 647.824C149.235 648.866 149.033 649.797 148.629 650.617C148.232 651.438 147.659 652.072 146.911 652.521C146.168 652.971 145.309 653.195 144.332 653.195C142.842 653.195 141.647 652.701 140.748 651.711C139.857 650.715 139.411 649.39 139.411 647.736V647.619ZM141.784 647.824C141.784 648.911 142.008 649.764 142.457 650.383C142.907 650.995 143.532 651.301 144.332 651.301C145.133 651.301 145.755 650.988 146.198 650.363C146.647 649.738 146.871 648.824 146.871 647.619C146.871 646.551 146.64 645.705 146.178 645.08C145.722 644.455 145.101 644.143 144.313 644.143C143.538 644.143 142.923 644.452 142.467 645.07C142.011 645.682 141.784 646.6 141.784 647.824ZM153.916 653H151.543V638H153.916V653ZM156.244 647.639C156.244 645.998 156.628 644.689 157.396 643.713C158.171 642.73 159.196 642.238 160.472 642.238C161.677 642.238 162.624 642.658 163.314 643.498L163.421 642.434H165.56V652.678C165.56 654.064 165.127 655.158 164.261 655.959C163.402 656.76 162.24 657.16 160.775 657.16C160 657.16 159.242 656.997 158.5 656.672C157.764 656.353 157.204 655.933 156.82 655.412L157.943 653.986C158.672 654.852 159.571 655.285 160.638 655.285C161.426 655.285 162.048 655.07 162.504 654.641C162.959 654.217 163.187 653.592 163.187 652.766V652.053C162.504 652.814 161.592 653.195 160.453 653.195C159.216 653.195 158.203 652.704 157.416 651.721C156.634 650.738 156.244 649.377 156.244 647.639ZM158.607 647.844C158.607 648.905 158.822 649.742 159.252 650.354C159.688 650.959 160.29 651.262 161.058 651.262C162.015 651.262 162.725 650.852 163.187 650.031V645.383C162.738 644.582 162.035 644.182 161.078 644.182C160.296 644.182 159.688 644.491 159.252 645.109C158.822 645.728 158.607 646.639 158.607 647.844ZM172.81 653.195C171.306 653.195 170.085 652.723 169.148 651.779C168.217 650.829 167.751 649.566 167.751 647.99V647.697C167.751 646.643 167.953 645.702 168.357 644.875C168.767 644.042 169.34 643.394 170.075 642.932C170.811 642.469 171.631 642.238 172.536 642.238C173.975 642.238 175.085 642.697 175.866 643.615C176.654 644.533 177.048 645.832 177.048 647.512V648.469H170.144C170.215 649.341 170.505 650.031 171.013 650.539C171.527 651.047 172.172 651.301 172.946 651.301C174.034 651.301 174.919 650.861 175.603 649.982L176.882 651.203C176.459 651.835 175.892 652.326 175.183 652.678C174.48 653.023 173.689 653.195 172.81 653.195ZM172.527 644.143C171.876 644.143 171.348 644.37 170.945 644.826C170.547 645.282 170.293 645.917 170.183 646.73H174.704V646.555C174.652 645.76 174.441 645.161 174.07 644.758C173.698 644.348 173.184 644.143 172.527 644.143ZM181.251 642.434L181.319 643.654C182.1 642.71 183.126 642.238 184.395 642.238C186.596 642.238 187.716 643.498 187.755 646.018V653H185.382V646.154C185.382 645.484 185.235 644.989 184.942 644.67C184.656 644.344 184.184 644.182 183.526 644.182C182.569 644.182 181.856 644.615 181.387 645.48V653H179.014V642.434H181.251ZM189.887 647.639C189.887 646.011 190.265 644.706 191.02 643.723C191.775 642.733 192.788 642.238 194.057 642.238C195.177 642.238 196.082 642.629 196.772 643.41V638H199.145V653H196.996L196.879 651.906C196.17 652.766 195.222 653.195 194.038 653.195C192.801 653.195 191.798 652.697 191.03 651.701C190.268 650.705 189.887 649.351 189.887 647.639ZM192.26 647.844C192.26 648.918 192.465 649.758 192.875 650.363C193.292 650.962 193.881 651.262 194.643 651.262C195.613 651.262 196.323 650.829 196.772 649.963V645.451C196.336 644.605 195.633 644.182 194.663 644.182C193.894 644.182 193.302 644.488 192.885 645.1C192.468 645.705 192.26 646.62 192.26 647.844ZM206.424 653.195C204.92 653.195 203.699 652.723 202.762 651.779C201.831 650.829 201.365 649.566 201.365 647.99V647.697C201.365 646.643 201.567 645.702 201.971 644.875C202.381 644.042 202.954 643.394 203.689 642.932C204.425 642.469 205.245 642.238 206.15 642.238C207.589 642.238 208.699 642.697 209.48 643.615C210.268 644.533 210.662 645.832 210.662 647.512V648.469H203.758C203.829 649.341 204.119 650.031 204.627 650.539C205.141 651.047 205.786 651.301 206.561 651.301C207.648 651.301 208.533 650.861 209.217 649.982L210.496 651.203C210.073 651.835 209.507 652.326 208.797 652.678C208.094 653.023 207.303 653.195 206.424 653.195ZM206.141 644.143C205.49 644.143 204.962 644.37 204.559 644.826C204.161 645.282 203.908 645.917 203.797 646.73H208.318V646.555C208.266 645.76 208.055 645.161 207.684 644.758C207.312 644.348 206.798 644.143 206.141 644.143ZM223.716 650.129C223.716 649.706 223.54 649.383 223.189 649.162C222.844 648.941 222.267 648.745 221.46 648.576C220.653 648.407 219.979 648.192 219.439 647.932C218.254 647.359 217.661 646.529 217.661 645.441C217.661 644.53 218.045 643.768 218.814 643.156C219.582 642.544 220.558 642.238 221.743 642.238C223.006 642.238 224.025 642.551 224.8 643.176C225.581 643.801 225.972 644.611 225.972 645.607H223.599C223.599 645.152 223.43 644.774 223.091 644.475C222.752 644.169 222.303 644.016 221.743 644.016C221.223 644.016 220.796 644.136 220.464 644.377C220.139 644.618 219.976 644.94 219.976 645.344C219.976 645.708 220.129 645.992 220.435 646.193C220.741 646.395 221.359 646.6 222.29 646.809C223.221 647.01 223.95 647.255 224.478 647.541C225.012 647.821 225.405 648.16 225.659 648.557C225.92 648.954 226.05 649.436 226.05 650.002C226.05 650.952 225.656 651.724 224.868 652.316C224.081 652.902 223.049 653.195 221.773 653.195C220.907 653.195 220.135 653.039 219.458 652.727C218.781 652.414 218.254 651.984 217.876 651.438C217.499 650.891 217.31 650.301 217.31 649.67H219.614C219.647 650.23 219.859 650.663 220.249 650.969C220.64 651.268 221.157 651.418 221.802 651.418C222.427 651.418 222.902 651.301 223.228 651.066C223.553 650.826 223.716 650.513 223.716 650.129ZM231.249 639.865V642.434H233.114V644.191H231.249V650.09C231.249 650.493 231.327 650.786 231.483 650.969C231.646 651.145 231.932 651.232 232.343 651.232C232.616 651.232 232.893 651.2 233.173 651.135V652.971C232.632 653.12 232.111 653.195 231.61 653.195C229.787 653.195 228.876 652.189 228.876 650.178V644.191H227.137V642.434H228.876V639.865H231.249ZM241.399 653C241.295 652.798 241.204 652.469 241.125 652.014C240.37 652.801 239.446 653.195 238.352 653.195C237.291 653.195 236.425 652.893 235.754 652.287C235.084 651.682 234.748 650.933 234.748 650.041C234.748 648.915 235.165 648.052 235.998 647.453C236.838 646.848 238.036 646.545 239.592 646.545H241.047V645.852C241.047 645.305 240.894 644.868 240.588 644.543C240.282 644.211 239.817 644.045 239.192 644.045C238.651 644.045 238.209 644.182 237.864 644.455C237.519 644.722 237.346 645.064 237.346 645.48H234.973C234.973 644.901 235.165 644.361 235.549 643.859C235.933 643.352 236.454 642.954 237.112 642.668C237.776 642.382 238.515 642.238 239.329 642.238C240.566 642.238 241.552 642.551 242.288 643.176C243.023 643.794 243.401 644.667 243.42 645.793V650.559C243.42 651.509 243.554 652.268 243.821 652.834V653H241.399ZM238.791 651.291C239.26 651.291 239.7 651.177 240.11 650.949C240.526 650.721 240.839 650.415 241.047 650.031V648.039H239.768C238.889 648.039 238.228 648.192 237.786 648.498C237.343 648.804 237.121 649.237 237.121 649.797C237.121 650.253 237.271 650.617 237.571 650.891C237.877 651.158 238.284 651.291 238.791 651.291ZM255.309 647.824C255.309 649.458 254.938 650.764 254.195 651.74C253.453 652.71 252.457 653.195 251.207 653.195C250.048 653.195 249.12 652.814 248.424 652.053V657.062H246.051V642.434H248.238L248.336 643.508C249.033 642.661 249.98 642.238 251.178 642.238C252.467 642.238 253.476 642.72 254.205 643.684C254.941 644.641 255.309 645.972 255.309 647.678V647.824ZM252.945 647.619C252.945 646.564 252.734 645.728 252.311 645.109C251.894 644.491 251.295 644.182 250.514 644.182C249.544 644.182 248.847 644.582 248.424 645.383V650.07C248.854 650.891 249.557 651.301 250.533 651.301C251.288 651.301 251.878 650.998 252.301 650.393C252.73 649.781 252.945 648.856 252.945 647.619Z" fill="black"/>
<rect x="28" y="451" width="4" height="250" fill="#F2F2F7"/>
<circle cx="30" cy="432" r="15" fill="#0047FF" stroke="white" stroke-width="2"/>
<path d="M31.4453 437H29.5547V427.867L26.7656 428.82V427.219L31.2031 425.586H31.4453V437Z" fill="white"/>
<circle cx="30" cy="624" r="15" fill="#0047FF" stroke="white" stroke-width="2"/>
<path d="M33.459 629H26.7666V627.858L30.082 624.242C30.5605 623.709 30.9001 623.265 31.1006 622.909C31.3057 622.549 31.4082 622.189 31.4082 621.829C31.4082 621.355 31.2738 620.972 31.0049 620.681C30.7406 620.389 30.3828 620.243 29.9316 620.243C29.3939 620.243 28.9769 620.407 28.6807 620.735C28.3844 621.063 28.2363 621.512 28.2363 622.082H26.5752C26.5752 621.476 26.7119 620.931 26.9854 620.448C27.2633 619.961 27.6576 619.582 28.168 619.313C28.6829 619.045 29.2754 618.91 29.9453 618.91C30.9115 618.91 31.6725 619.154 32.2285 619.642C32.7891 620.125 33.0693 620.795 33.0693 621.651C33.0693 622.148 32.9281 622.67 32.6455 623.217C32.3675 623.759 31.9095 624.377 31.2715 625.069L28.8379 627.674H33.459V629Z" fill="white"/>
<rect x="16" y="318" width="279" height="12" rx="6" fill="#EEEEEE"/>
<rect x="16" y="342" width="308" height="12" rx="6" fill="#EEEEEE"/>
<rect x="16" y="366" width="240" height="12" rx="6" fill="#EEEEEE"/>
<g filter="url(#filter0_dd)">
<rect width="360" height="80" fill="white"/>
</g>
<path d="M76.6484 44.7812L80.75 55.6797L84.8418 44.7812H88.0352V59H85.5742V54.3125L85.8184 48.043L81.6191 59H79.8516L75.6621 48.0527L75.9062 54.3125V59H73.4453V44.7812H76.6484ZM95.5387 59.1953C94.0348 59.1953 92.8141 58.7233 91.8766 57.7793C90.9456 56.8288 90.4801 55.5658 90.4801 53.9902V53.6973C90.4801 52.6426 90.6819 51.7018 91.0855 50.875C91.4957 50.0417 92.0686 49.3939 92.8043 48.9316C93.54 48.4694 94.3603 48.2383 95.2652 48.2383C96.704 48.2383 97.8141 48.6973 98.5953 49.6152C99.3831 50.5332 99.777 51.832 99.777 53.5117V54.4688H92.8727C92.9443 55.3411 93.234 56.0312 93.7418 56.5391C94.2561 57.0469 94.9007 57.3008 95.6754 57.3008C96.7626 57.3008 97.648 56.8613 98.3316 55.9824L99.6109 57.2031C99.1878 57.8346 98.6214 58.3262 97.9117 58.6777C97.2086 59.0228 96.4176 59.1953 95.5387 59.1953ZM95.2555 50.1426C94.6044 50.1426 94.0771 50.3704 93.6734 50.8262C93.2763 51.2819 93.0224 51.9167 92.9117 52.7305H97.4332V52.5547C97.3811 51.7604 97.1695 51.1615 96.7984 50.7578C96.4273 50.3477 95.913 50.1426 95.2555 50.1426ZM104.302 59H101.929V44H104.302V59ZM106.6 53.6387C106.6 52.0111 106.978 50.7057 107.733 49.7227C108.488 48.7331 109.501 48.2383 110.77 48.2383C111.89 48.2383 112.795 48.6289 113.485 49.4102V44H115.858V59H113.71L113.593 57.9062C112.883 58.7656 111.936 59.1953 110.751 59.1953C109.514 59.1953 108.511 58.6973 107.743 57.7012C106.981 56.7051 106.6 55.3509 106.6 53.6387ZM108.973 53.8438C108.973 54.918 109.179 55.7578 109.589 56.3633C110.005 56.9622 110.595 57.2617 111.356 57.2617C112.326 57.2617 113.036 56.8288 113.485 55.9629V51.4512C113.049 50.6048 112.346 50.1816 111.376 50.1816C110.608 50.1816 110.015 50.4876 109.598 51.0996C109.182 51.7051 108.973 52.6198 108.973 53.8438ZM121.008 59H118.635V48.4336H121.008V59ZM118.489 45.6895C118.489 45.3249 118.603 45.0221 118.83 44.7812C119.065 44.5404 119.397 44.4199 119.827 44.4199C120.256 44.4199 120.588 44.5404 120.823 44.7812C121.057 45.0221 121.174 45.3249 121.174 45.6895C121.174 46.0475 121.057 46.347 120.823 46.5879C120.588 46.8223 120.256 46.9395 119.827 46.9395C119.397 46.9395 119.065 46.8223 118.83 46.5879C118.603 46.347 118.489 46.0475 118.489 45.6895ZM125.953 48.4336L126.021 49.6543C126.803 48.7103 127.828 48.2383 129.098 48.2383C131.298 48.2383 132.418 49.498 132.457 52.0176V59H130.084V52.1543C130.084 51.4837 129.938 50.9889 129.645 50.6699C129.358 50.3444 128.886 50.1816 128.229 50.1816C127.271 50.1816 126.559 50.6146 126.09 51.4805V59H123.717V48.4336H125.953ZM134.619 53.6387C134.619 51.998 135.003 50.6895 135.771 49.7129C136.546 48.7298 137.571 48.2383 138.847 48.2383C140.052 48.2383 140.999 48.6582 141.689 49.498L141.796 48.4336H143.935V58.6777C143.935 60.0645 143.502 61.1582 142.636 61.959C141.777 62.7598 140.615 63.1602 139.15 63.1602C138.375 63.1602 137.617 62.9974 136.875 62.6719C136.139 62.3529 135.579 61.9329 135.195 61.4121L136.318 59.9863C137.047 60.8522 137.946 61.2852 139.013 61.2852C139.801 61.2852 140.423 61.0703 140.879 60.6406C141.334 60.2174 141.562 59.5924 141.562 58.7656V58.0527C140.879 58.8145 139.967 59.1953 138.828 59.1953C137.591 59.1953 136.578 58.7038 135.791 57.7207C135.009 56.7376 134.619 55.377 134.619 53.6387ZM136.982 53.8438C136.982 54.9049 137.197 55.7415 137.627 56.3535C138.063 56.959 138.665 57.2617 139.433 57.2617C140.39 57.2617 141.1 56.8516 141.562 56.0312V51.3828C141.113 50.582 140.41 50.1816 139.453 50.1816C138.671 50.1816 138.063 50.4909 137.627 51.1094C137.197 51.7279 136.982 52.6393 136.982 53.8438ZM157.585 56.1289C157.585 55.7057 157.409 55.3835 157.057 55.1621C156.712 54.9408 156.136 54.7454 155.329 54.5762C154.522 54.4069 153.848 54.1921 153.307 53.9316C152.123 53.3587 151.53 52.5286 151.53 51.4414C151.53 50.5299 151.914 49.7682 152.682 49.1562C153.451 48.5443 154.427 48.2383 155.612 48.2383C156.875 48.2383 157.894 48.5508 158.669 49.1758C159.45 49.8008 159.841 50.6113 159.841 51.6074H157.468C157.468 51.1517 157.298 50.7741 156.96 50.4746C156.621 50.1686 156.172 50.0156 155.612 50.0156C155.091 50.0156 154.665 50.1361 154.333 50.377C154.007 50.6178 153.845 50.9401 153.845 51.3438C153.845 51.7083 153.998 51.9915 154.304 52.1934C154.61 52.3952 155.228 52.6003 156.159 52.8086C157.09 53.0104 157.819 53.2546 158.346 53.541C158.88 53.821 159.274 54.1595 159.528 54.5566C159.789 54.9538 159.919 55.4355 159.919 56.002C159.919 56.9525 159.525 57.724 158.737 58.3164C157.949 58.9023 156.917 59.1953 155.641 59.1953C154.776 59.1953 154.004 59.0391 153.327 58.7266C152.65 58.4141 152.123 57.9844 151.745 57.4375C151.367 56.8906 151.179 56.3014 151.179 55.6699H153.483C153.516 56.2298 153.727 56.6628 154.118 56.9688C154.509 57.2682 155.026 57.418 155.671 57.418C156.296 57.418 156.771 57.3008 157.096 57.0664C157.422 56.8255 157.585 56.513 157.585 56.1289ZM165.118 45.8652V48.4336H166.983V50.1914H165.118V56.0898C165.118 56.4935 165.196 56.7865 165.352 56.9688C165.515 57.1445 165.801 57.2324 166.211 57.2324C166.485 57.2324 166.761 57.1999 167.041 57.1348V58.9707C166.501 59.1204 165.98 59.1953 165.479 59.1953C163.656 59.1953 162.745 58.1895 162.745 56.1777V50.1914H161.006V48.4336H162.745V45.8652H165.118ZM175.355 57.9648C174.659 58.7852 173.669 59.1953 172.387 59.1953C171.241 59.1953 170.372 58.86 169.779 58.1895C169.193 57.5189 168.9 56.5488 168.9 55.2793V48.4336H171.273V55.25C171.273 56.5911 171.83 57.2617 172.943 57.2617C174.096 57.2617 174.874 56.8483 175.277 56.0215V48.4336H177.65V59H175.414L175.355 57.9648ZM185.75 50.6016C185.437 50.5495 185.115 50.5234 184.783 50.5234C183.696 50.5234 182.963 50.9401 182.586 51.7734V59H180.213V48.4336H182.478L182.537 49.6152C183.11 48.6973 183.904 48.2383 184.92 48.2383C185.258 48.2383 185.538 48.2839 185.759 48.375L185.75 50.6016ZM191.857 59.1953C190.353 59.1953 189.132 58.7233 188.195 57.7793C187.264 56.8288 186.798 55.5658 186.798 53.9902V53.6973C186.798 52.6426 187 51.7018 187.404 50.875C187.814 50.0417 188.387 49.3939 189.122 48.9316C189.858 48.4694 190.678 48.2383 191.583 48.2383C193.022 48.2383 194.132 48.6973 194.913 49.6152C195.701 50.5332 196.095 51.832 196.095 53.5117V54.4688H189.191C189.262 55.3411 189.552 56.0312 190.06 56.5391C190.574 57.0469 191.219 57.3008 191.993 57.3008C193.081 57.3008 193.966 56.8613 194.65 55.9824L195.929 57.2031C195.506 57.8346 194.939 58.3262 194.23 58.6777C193.527 59.0228 192.736 59.1953 191.857 59.1953ZM191.573 50.1426C190.922 50.1426 190.395 50.3704 189.991 50.8262C189.594 51.2819 189.34 51.9167 189.23 52.7305H193.751V52.5547C193.699 51.7604 193.488 51.1615 193.116 50.7578C192.745 50.3477 192.231 50.1426 191.573 50.1426ZM200.298 48.4336L200.366 49.6543C201.147 48.7103 202.173 48.2383 203.442 48.2383C205.643 48.2383 206.762 49.498 206.802 52.0176V59H204.429V52.1543C204.429 51.4837 204.282 50.9889 203.989 50.6699C203.703 50.3444 203.231 50.1816 202.573 50.1816C201.616 50.1816 200.903 50.6146 200.434 51.4805V59H198.061V48.4336H200.298Z" fill="black"/>
<path d="M36 51H23.83L29.42 45.41L28 44L20 52L28 60L29.41 58.59L23.83 53H36V51Z" fill="#69696F"/>
<rect width="360" height="24" fill="#212121" fill-opacity="0.08"/>
<path fill-rule="evenodd" clip-rule="evenodd" d="M316 7H306V17H316V7ZM324 12C324 9.23858 326.239 7 329 7C331.761 7 334 9.23858 334 12C334 14.7614 331.761 17 329 17C326.239 17 324 14.7614 324 12ZM346 17L352 7H340L346 17Z" fill="black" fill-opacity="0.12"/>
<rect y="80" width="360" height="200" fill="#E1F6F8"/>
<rect width="320" height="200" transform="translate(20 80)" fill="#E1F6F8"/>
<mask id="mask0" mask-type="alpha" maskUnits="userSpaceOnUse" x="20" y="80" width="320" height="200">
<path d="M20 80H340V280H20V80Z" fill="white"/>
</mask>
<g mask="url(#mask0)">
<path fill-rule="evenodd" clip-rule="evenodd" d="M121.619 130.3C121.619 130.3 82.8288 127.77 88.1688 194.33H153.659C153.949 192.7 157.319 128.05 121.619 130.3Z" fill="black"/>
<path d="M165.889 184.35L166.599 183.48C167.759 182.06 167.699 180.01 166.469 178.65L157.559 168.23C155.969 166.48 153.599 165.66 151.279 166.07L146.469 166.91L148.789 171.82L165.889 184.35Z" fill="#FF7254"/>
<path d="M178.99 215.01L146.9 201.71L153.85 232.78C153.85 232.78 191.21 243.6 202.82 240.25C208.19 238.7 213.48 230.96 207.09 221.31C196.86 205.86 175.17 184.35 167.78 176.94C166.87 176.03 165.54 175.72 164.44 176.38L154.24 189.55L178.99 215.01Z" fill="#FFB512"/>
<path d="M145.929 163.53L160.459 178.62C161.779 179.99 161.739 182.16 160.369 183.48L154.119 189.49C152.759 190.8 150.579 190.77 149.259 189.4L134.729 174.31C134.529 174.1 134.369 173.88 134.239 173.64C133.469 172.3 133.679 170.57 134.829 169.45L141.079 163.44C142.249 162.32 143.979 162.18 145.289 163.01C145.509 163.16 145.729 163.33 145.929 163.53Z" fill="#96DFE6"/>
<path d="M145.099 164.33L159.209 178.99L148.839 188.97L134.729 174.31C134.529 174.1 134.369 173.88 134.229 173.65L144.459 163.8C144.689 163.95 144.899 164.13 145.099 164.33Z" fill="white"/>
<path d="M166.491 279.49H89.3005L82.6405 260.68L80.4705 233.31C79.0305 226.09 80.0505 218.94 83.3605 213.03C85.7705 208.74 89.2305 205.31 93.4205 202.98C97.6005 200.62 102.501 199.35 107.721 199.35H134.771C155.151 199.35 158.051 212.86 162.391 235.46L160.241 247.15L165.551 275.08L166.491 279.49Z" fill="#FFB512"/>
<path d="M151.21 166.09L148.89 166.69C147.66 167 146.97 168.3 147.4 169.49C147.77 170.52 148.85 171.11 149.92 170.86L155.2 169.61L153.01 166.68L151.21 166.09Z" fill="#FF7254"/>
<path d="M154.74 169.36L152.14 170.02C150.91 170.33 150.22 171.63 150.65 172.82C151.02 173.85 152.1 174.44 153.17 174.19L158.45 172.94L156.26 170.01L154.74 169.36Z" fill="#FF7254"/>
<path d="M157.919 172.64L155.319 173.3C154.089 173.61 153.399 174.91 153.829 176.1C154.199 177.13 155.279 177.72 156.349 177.47L161.629 176.22L159.439 173.29L157.919 172.64Z" fill="#FF7254"/>
<path fill-rule="evenodd" clip-rule="evenodd" d="M112.369 198.05L134.909 198.61L130.169 168.96L111.029 164.04L112.369 198.05Z" fill="#FF7254"/>
<path d="M133.449 189.38C127.319 186.48 117.159 179.67 116.949 179.67L131.869 180.29L133.449 189.38Z" fill="#F15A37"/>
<path fill-rule="evenodd" clip-rule="evenodd" d="M146.16 165.97C145.82 174.16 142.52 179.99 132.77 181.72L132.49 181.74C131.93 181.77 127.46 182.33 126.04 182.14C120.94 181.61 115.82 180.8 111.37 177.13C110.2 176.36 109.18 173.6 107.99 172.55C107.69 172.29 107.38 171.74 107.08 171.48C106.76 170.94 106.17 170.41 105.85 169.87C105.55 169.61 105.24 169.06 105.22 168.78C103.35 165.8 102.02 162.5 101.53 159.15C100.52 151.89 101.01 146.23 103 141.88C104.23 138.99 106.07 136.9 108.23 135.36C109.58 134.43 110.95 133.78 112.6 133.12C113.42 132.79 113.99 132.75 114.81 132.42C115.65 132.37 116.2 132.05 117.04 132C117.04 132 117.04 132 117.32 131.98L117.6 131.96C118.44 131.91 119.28 131.86 119.84 131.82C120.68 131.77 121.8 131.7 122.65 131.65C123.21 131.62 124.05 131.56 124.63 131.81L124.91 131.79C125.19 131.77 125.19 131.77 125.47 131.76C126.05 132.01 126.61 131.97 127.19 132.22L127.47 132.2C128.05 132.45 128.61 132.41 129.19 132.66C129.49 132.92 130.05 132.89 130.63 133.13C131.21 133.38 131.51 133.64 132.08 133.88C132.38 134.14 132.96 134.39 133.25 134.65C134.42 135.42 135.6 136.19 136.51 137.26C136.81 137.52 137.11 137.79 137.4 138.05C137.7 138.31 137.7 138.31 138 138.58C142.54 143.65 145.25 151.09 146 158.64C146.02 158.92 146.03 159.2 146.07 159.76C146.18 161.74 146.04 164 146.16 165.97Z" fill="#FF7254"/>
<path d="M138.75 172.54C138.74 172.54 138.72 172.54 138.71 172.54C134.51 172.18 129.81 170.86 129.76 170.85C129.52 170.78 129.38 170.53 129.44 170.29C129.51 170.05 129.77 169.91 130 169.97C130.05 169.98 134.67 171.28 138.78 171.63C139.03 171.65 139.22 171.87 139.2 172.12C139.18 172.36 138.98 172.54 138.75 172.54Z" fill="black"/>
<path fill-rule="evenodd" clip-rule="evenodd" d="M148.07 158.93C144.39 147.5 143.1 152.04 138.75 143.09L139.67 139.73L142.27 140.49L144.49 143.78L147.17 150.48L148.07 158.93Z" fill="black"/>
<path fill-rule="evenodd" clip-rule="evenodd" d="M124.429 130.55C129.169 132.66 126.459 137.43 125.899 142.77C125.019 152.96 111.929 162.12 111.449 178.33C106.949 175.52 97.8393 163.41 97.8393 160.32C97.2793 153.01 99.9393 143.93 102.189 139.72C103.599 136.91 108.399 134.76 110.929 133.36C112.339 132.52 114.579 131.96 116.269 131.68C117.109 131.4 118.519 130.83 119.359 130.83C119.939 130.55 123.589 130.83 124.429 130.55Z" fill="black"/>
<path d="M115.708 165.64C112.918 165.64 110.648 163.37 110.648 160.58C110.648 157.79 112.918 155.52 115.708 155.52C118.498 155.52 120.768 157.79 120.768 160.58C120.768 163.37 118.498 165.64 115.708 165.64Z" fill="#FF7254"/>
<path fill-rule="evenodd" clip-rule="evenodd" d="M124.43 131.99C125.27 131.99 126.4 131.99 127.24 131.99C128.08 131.99 128.93 132.27 129.49 132.27C129.77 132.27 129.77 132.27 130.05 132.27C130.61 132.27 131.17 132.55 131.74 132.83H132.02C135.96 134.24 139.92 137.94 142.74 141.31C137.73 149.53 112.12 154.45 112.12 154.73L111.51 135.08C115.16 132.55 119.94 132.27 121.63 131.99H121.91C122.75 132.27 123.59 132.27 124.43 131.99Z" fill="black"/>
<path fill-rule="evenodd" clip-rule="evenodd" d="M109.119 202.89L109.339 195.42C109.379 193.9 110.629 192.7 112.139 192.7H133.869C134.959 192.7 135.899 193.45 136.149 194.51L137.619 200.79L123.949 205.3L109.119 202.89Z" fill="#FFB512"/>
<path d="M121.62 267.01L129.19 269.61L133.73 267.83C135.77 267.03 138 267.17 139.95 268.23L153.63 275.65C154.87 276.32 155.66 277.78 155.66 279.39H118.15L121.62 267.01Z" fill="#FF7254"/>
<path d="M86.2696 208.83C74.9296 223.1 61.8896 243.9 55.4696 257.27C50.9696 266.63 56.0696 279.39 68.3896 279.39H127.35V268.09L82.0496 259.79L102.9 222.14L86.2696 208.83Z" fill="#FFB512"/>
<path d="M73.1796 261.74C72.8396 261.74 72.5196 261.51 72.4196 261.17C72.2996 260.75 72.5396 260.31 72.9596 260.19C76.1096 259.28 81.7996 259.27 82.0396 259.27C82.4796 259.27 82.8296 259.63 82.8296 260.06C82.8296 260.49 82.4796 260.85 82.0396 260.85C81.9796 260.85 76.3396 260.86 73.3996 261.71C73.3296 261.73 73.2496 261.74 73.1796 261.74Z" fill="#FFCA55"/>
<path d="M126.439 268.89C126.389 268.89 126.349 268.89 126.299 268.88L81.3988 260.79C81.1488 260.74 80.9388 260.58 80.8188 260.35C80.7088 260.12 80.7188 259.85 80.8388 259.63L93.4388 236.54C93.6488 236.16 94.1288 236.01 94.5188 236.22C94.8988 236.43 95.0488 236.91 94.8388 237.3L82.7688 259.42L126.589 267.32C127.019 267.4 127.309 267.81 127.229 268.24C127.149 268.62 126.819 268.89 126.439 268.89Z" fill="#FFCA55"/>
<path d="M220.629 272.77H162.669C160.799 272.77 159.279 274.29 159.279 276.16C159.279 278.03 160.799 279.55 162.669 279.55H219.429L220.629 272.77Z" fill="white"/>
<path d="M242.069 212.18H231.009C228.159 212.18 225.439 214.5 224.939 217.34L215.049 273.34L220.599 279.5H222.629H230.189C233.029 279.5 235.749 277.18 236.259 274.34L246.309 217.35C246.829 214.49 244.919 212.18 242.069 212.18Z" fill="white"/>
<path d="M222.01 276.63H216.41V279.54H222.01V276.63Z" fill="#79D3E6"/>
<path d="M311.45 217.39L301.4 274.38C300.89 277.22 298.17 279.54 295.33 279.54H219.43L230.38 217.39C230.88 214.55 233.61 212.23 236.45 212.23H307.19C310.06 212.23 311.96 214.54 311.45 217.39Z" fill="#79D3E6"/>
<path d="M216.65 279.55C218.522 279.55 220.04 278.032 220.04 276.16C220.04 274.288 218.522 272.77 216.65 272.77C214.778 272.77 213.26 274.288 213.26 276.16C213.26 278.032 214.778 279.55 216.65 279.55Z" fill="#D0F0F3"/>
<path d="M172.34 274.26H171.18V277.65H172.34V274.26Z" fill="#D0F0F3"/>
<path d="M174.24 274.26H173.08V277.65H174.24V274.26Z" fill="#D0F0F3"/>
<path d="M176.15 274.26H174.99V277.65H176.15V274.26Z" fill="#D0F0F3"/>
<path d="M178.049 274.26H176.889V277.65H178.049V274.26Z" fill="#D0F0F3"/>
<path d="M179.949 274.26H178.789V277.65H179.949V274.26Z" fill="#D0F0F3"/>
<path d="M181.859 274.26H180.699V277.65H181.859V274.26Z" fill="#D0F0F3"/>
<path d="M211.129 277.45H189.419C188.809 277.45 188.309 276.95 188.309 276.34C188.309 275.73 188.809 275.23 189.419 275.23H211.129C211.739 275.23 212.239 275.73 212.239 276.34C212.239 276.96 211.749 277.45 211.129 277.45Z" fill="#D0F0F3"/>
<path d="M275.339 247.47C274.829 246.21 274.619 244.81 274.919 243.36C274.929 243.33 274.929 243.31 274.929 243.31C275.229 241.76 274.459 240.45 273.139 240C273.269 239.18 273.439 236.68 270.639 236.14C270.639 236.14 269.419 238.92 271.339 239.92C269.789 240.26 268.429 241.57 268.109 243.17C268.109 243.17 268.109 243.19 268.099 243.23C267.839 244.62 267.199 245.99 266.209 247.13C265.299 248.18 264.699 249.5 264.639 250.92C264.519 253.31 266.119 255.25 268.449 255.58C271.649 256.03 274.939 253.52 275.569 250.31C275.779 249.28 275.679 248.31 275.339 247.47Z" fill="#D0F0F3"/>
<path d="M277.229 145.76H169.189C165.009 145.76 161.619 142.37 161.619 138.19V117.57C161.619 113.39 165.009 110 169.189 110H277.229C281.409 110 284.799 113.39 284.799 117.57V138.19C284.799 142.37 281.409 145.76 277.229 145.76Z" fill="#004CBB"/>
<path d="M179.59 143.08V154.25C179.59 155.47 181.07 156.07 181.92 155.19L193.58 143.08H179.59Z" fill="#004CBB"/>
<path d="M172.398 125.63L173.338 123.88L176.628 125.9L176.498 122H178.648L178.518 125.9L181.818 123.88L182.758 125.63L179.398 127.51L182.758 129.36L181.818 131.14L178.518 129.12L178.648 133.02H176.498L176.628 129.12L173.338 131.14L172.398 129.36L175.758 127.51L172.398 125.63Z" fill="white"/>
<path d="M187.619 125.63L188.559 123.88L191.849 125.9L191.719 122H193.869L193.739 125.9L197.039 123.88L197.979 125.63L194.619 127.51L197.979 129.36L197.039 131.14L193.739 129.12L193.869 133.02H191.719L191.849 129.12L188.559 131.14L187.619 129.36L190.979 127.51L187.619 125.63Z" fill="white"/>
<path d="M202.838 125.52L203.778 123.77L207.068 125.79L206.938 121.89H209.088L208.958 125.79L212.258 123.77L213.198 125.52L209.838 127.4L213.198 129.25L212.258 131.03L208.958 129.01L209.088 132.91H206.938L207.068 129.01L203.778 131.03L202.838 129.25L206.198 127.4L202.838 125.52Z" fill="white"/>
<path d="M232.459 125.63L233.399 123.88L236.689 125.9L236.559 122H238.709L238.579 125.9L241.879 123.88L242.819 125.63L239.459 127.51L242.819 129.36L241.879 131.14L238.579 129.12L238.709 133.02H236.559L236.689 129.12L233.399 131.14L232.459 129.36L235.819 127.51L232.459 125.63Z" fill="white"/>
<path d="M247.689 125.63L248.629 123.88L251.919 125.9L251.789 122H253.939L253.809 125.9L257.109 123.88L258.049 125.63L254.689 127.51L258.049 129.36L257.109 131.14L253.809 129.12L253.939 133.02H251.789L251.919 129.12L248.629 131.14L247.689 129.36L251.049 127.51L247.689 125.63Z" fill="white"/>
<path d="M262.908 125.52L263.848 123.77L267.138 125.79L267.008 121.89H269.158L269.028 125.79L272.328 123.77L273.268 125.52L269.908 127.4L273.268 129.25L272.328 131.03L269.028 129.01L269.158 132.91H267.008L267.138 129.01L263.848 131.03L262.908 129.25L266.268 127.4L262.908 125.52Z" fill="white"/>
<path d="M226.379 126.59H220.219V128.87H226.379V126.59Z" fill="white"/>
</g>
</g>
<path fill-rule="evenodd" clip-rule="evenodd" d="M360 0H0V688H360V0ZM13 403C10.2386 403 8 405.239 8 408V588C8 590.761 10.2386 593 13 593H347C349.761 593 352 590.761 352 588V408C352 405.239 349.761 403 347 403H13Z" fill="black" fill-opacity="0.2"/>
<rect x="9.5" y="401.5" width="341" height="193" rx="3.5" stroke="#0047FF" stroke-width="3"/>
</g>
<defs>
<filter id="filter0_dd" x="-14" y="-8" width="388" height="108" filterUnits="userSpaceOnUse" color-interpolation-filters="sRGB">
<feFlood flood-opacity="0" result="BackgroundImageFix"/>
<feColorMatrix in="SourceAlpha" type="matrix" values="0 0 0 0 0 0 0 0 0 0 0 0 0 0 0 0 0 0 127 0"/>
<feOffset dy="6"/>
<feGaussianBlur stdDeviation="7"/>
<feColorMatrix type="matrix" values="0 0 0 0 0 0 0 0 0 0 0 0 0 0 0 0 0 0 0.05 0"/>
<feBlend mode="normal" in2="BackgroundImageFix" result="effect1_dropShadow"/>
<feColorMatrix in="SourceAlpha" type="matrix" values="0 0 0 0 0 0 0 0 0 0 0 0 0 0 0 0 0 0 127 0"/>
<feOffset dy="4"/>
<feGaussianBlur stdDeviation="3"/>
<feColorMatrix type="matrix" values="0 0 0 0 0 0 0 0 0 0 0 0 0 0 0 0 0 0 0.06 0"/>
<feBlend mode="normal" in2="effect1_dropShadow" result="effect2_dropShadow"/>
<feBlend mode="normal" in="SourceGraphic" in2="effect2_dropShadow" result="shape"/>
</filter>
<clipPath id="clip0">
<rect width="360" height="688" fill="white"/>
</clipPath>
<clipPath id="clip1">
<rect width="360" height="920" fill="white"/>
</clipPath>
</defs>
</svg>
