<svg width="360" height="688" viewBox="0 0 360 688" fill="none" xmlns="http://www.w3.org/2000/svg">
<g clip-path="url(#clip0)">
<rect width="360" height="688" fill="white"/>
<path d="M0 0H360V688H0V0Z" fill="#C4C4C4"/>
<g filter="url(#filter0_ddd)">
<rect x="24" y="222" width="312" height="243" rx="4" fill="white"/>
</g>
<path d="M60.5977 269.484L62.7852 258.781H65.2363L61.9551 273H59.5918L56.8867 262.619L54.123 273H51.75L48.4688 258.781H50.9199L53.127 269.465L55.8418 258.781H57.9121L60.5977 269.484ZM69.4879 273H67.1148V262.434H69.4879V273ZM66.9684 259.689C66.9684 259.325 67.0823 259.022 67.3102 258.781C67.5445 258.54 67.8766 258.42 68.3062 258.42C68.7359 258.42 69.068 258.54 69.3023 258.781C69.5367 259.022 69.6539 259.325 69.6539 259.689C69.6539 260.048 69.5367 260.347 69.3023 260.588C69.068 260.822 68.7359 260.939 68.3062 260.939C67.8766 260.939 67.5445 260.822 67.3102 260.588C67.0823 260.347 66.9684 260.048 66.9684 259.689ZM74.7551 273H72.382V258H74.7551V273ZM80.0223 273H77.6492V258H80.0223V273ZM87.4184 273.195C85.9145 273.195 84.6937 272.723 83.7562 271.779C82.8253 270.829 82.3598 269.566 82.3598 267.99V267.697C82.3598 266.643 82.5616 265.702 82.9652 264.875C83.3754 264.042 83.9483 263.394 84.684 262.932C85.4197 262.469 86.24 262.238 87.1449 262.238C88.5837 262.238 89.6937 262.697 90.475 263.615C91.2628 264.533 91.6566 265.832 91.6566 267.512V268.469H84.7523C84.824 269.341 85.1137 270.031 85.6215 270.539C86.1358 271.047 86.7803 271.301 87.5551 271.301C88.6423 271.301 89.5277 270.861 90.2113 269.982L91.4906 271.203C91.0674 271.835 90.501 272.326 89.7914 272.678C89.0883 273.023 88.2973 273.195 87.4184 273.195ZM87.1352 264.143C86.4841 264.143 85.9568 264.37 85.5531 264.826C85.156 265.282 84.9021 265.917 84.7914 266.73H89.3129V266.555C89.2608 265.76 89.0492 265.161 88.6781 264.758C88.307 264.348 87.7927 264.143 87.1352 264.143ZM97.0898 268.469L96.0352 269.553V273H93.6621V258H96.0352V266.652L96.7773 265.725L99.6973 262.434H102.549L98.623 266.838L102.969 273H100.225L97.0898 268.469ZM108.714 273.195C107.211 273.195 105.99 272.723 105.052 271.779C104.121 270.829 103.656 269.566 103.656 267.99V267.697C103.656 266.643 103.858 265.702 104.261 264.875C104.671 264.042 105.244 263.394 105.98 262.932C106.716 262.469 107.536 262.238 108.441 262.238C109.88 262.238 110.99 262.697 111.771 263.615C112.559 264.533 112.953 265.832 112.953 267.512V268.469H106.048C106.12 269.341 106.41 270.031 106.918 270.539C107.432 271.047 108.076 271.301 108.851 271.301C109.938 271.301 110.824 270.861 111.507 269.982L112.787 271.203C112.364 271.835 111.797 272.326 111.088 272.678C110.384 273.023 109.593 273.195 108.714 273.195ZM108.431 264.143C107.78 264.143 107.253 264.37 106.849 264.826C106.452 265.282 106.198 265.917 106.088 266.73H110.609V266.555C110.557 265.76 110.345 265.161 109.974 264.758C109.603 264.348 109.089 264.143 108.431 264.143ZM121.355 271.965C120.658 272.785 119.668 273.195 118.386 273.195C117.24 273.195 116.371 272.86 115.779 272.189C115.193 271.519 114.9 270.549 114.9 269.279V262.434H117.273V269.25C117.273 270.591 117.829 271.262 118.943 271.262C120.095 271.262 120.873 270.848 121.277 270.021V262.434H123.65V273H121.413L121.355 271.965ZM131.749 264.602C131.436 264.549 131.114 264.523 130.782 264.523C129.695 264.523 128.962 264.94 128.585 265.773V273H126.212V262.434H128.477L128.536 263.615C129.109 262.697 129.903 262.238 130.919 262.238C131.257 262.238 131.537 262.284 131.759 262.375L131.749 264.602ZM135.922 273H133.549V262.434H135.922V273ZM133.403 259.689C133.403 259.325 133.517 259.022 133.745 258.781C133.979 258.54 134.311 258.42 134.741 258.42C135.17 258.42 135.502 258.54 135.737 258.781C135.971 259.022 136.088 259.325 136.088 259.689C136.088 260.048 135.971 260.347 135.737 260.588C135.502 260.822 135.17 260.939 134.741 260.939C134.311 260.939 133.979 260.822 133.745 260.588C133.517 260.347 133.403 260.048 133.403 259.689ZM138.25 267.639C138.25 265.998 138.634 264.689 139.402 263.713C140.177 262.73 141.202 262.238 142.479 262.238C143.683 262.238 144.63 262.658 145.32 263.498L145.428 262.434H147.566V272.678C147.566 274.064 147.133 275.158 146.268 275.959C145.408 276.76 144.246 277.16 142.781 277.16C142.007 277.16 141.248 276.997 140.506 276.672C139.77 276.353 139.21 275.933 138.826 275.412L139.949 273.986C140.678 274.852 141.577 275.285 142.645 275.285C143.432 275.285 144.054 275.07 144.51 274.641C144.965 274.217 145.193 273.592 145.193 272.766V272.053C144.51 272.814 143.598 273.195 142.459 273.195C141.222 273.195 140.21 272.704 139.422 271.721C138.641 270.738 138.25 269.377 138.25 267.639ZM140.613 267.844C140.613 268.905 140.828 269.742 141.258 270.354C141.694 270.959 142.296 271.262 143.064 271.262C144.021 271.262 144.731 270.852 145.193 270.031V265.383C144.744 264.582 144.041 264.182 143.084 264.182C142.303 264.182 141.694 264.491 141.258 265.109C140.828 265.728 140.613 266.639 140.613 267.844ZM154.816 273.195C153.312 273.195 152.091 272.723 151.154 271.779C150.223 270.829 149.757 269.566 149.757 267.99V267.697C149.757 266.643 149.959 265.702 150.363 264.875C150.773 264.042 151.346 263.394 152.082 262.932C152.817 262.469 153.638 262.238 154.543 262.238C155.981 262.238 157.091 262.697 157.873 263.615C158.66 264.533 159.054 265.832 159.054 267.512V268.469H152.15C152.222 269.341 152.511 270.031 153.019 270.539C153.533 271.047 154.178 271.301 154.953 271.301C156.04 271.301 156.925 270.861 157.609 269.982L158.888 271.203C158.465 271.835 157.899 272.326 157.189 272.678C156.486 273.023 155.695 273.195 154.816 273.195ZM154.533 264.143C153.882 264.143 153.354 264.37 152.951 264.826C152.554 265.282 152.3 265.917 152.189 266.73H156.711V266.555C156.658 265.76 156.447 265.161 156.076 264.758C155.705 264.348 155.19 264.143 154.533 264.143ZM169.022 273H166.561V258.781H169.022V273ZM172.209 273V258.781H176.409C177.665 258.781 178.778 259.061 179.748 259.621C180.725 260.181 181.48 260.975 182.014 262.004C182.548 263.033 182.815 264.211 182.815 265.539V266.252C182.815 267.6 182.545 268.785 182.004 269.807C181.47 270.829 180.705 271.617 179.709 272.17C178.72 272.723 177.584 273 176.301 273H172.209ZM174.68 260.773V271.027H176.291C177.587 271.027 178.58 270.624 179.27 269.816C179.967 269.003 180.321 267.837 180.334 266.32V265.529C180.334 263.986 179.999 262.808 179.329 261.994C178.658 261.18 177.685 260.773 176.409 260.773H174.68ZM185.689 263L184.479 262.248C185.064 261.395 185.367 260.493 185.387 259.543V258H187.467V259.348C187.467 260.018 187.294 260.695 186.949 261.379C186.611 262.056 186.191 262.596 185.689 263ZM193.339 270.129C193.339 269.706 193.164 269.383 192.812 269.162C192.467 268.941 191.891 268.745 191.084 268.576C190.276 268.407 189.602 268.192 189.062 267.932C187.877 267.359 187.285 266.529 187.285 265.441C187.285 264.53 187.669 263.768 188.437 263.156C189.205 262.544 190.182 262.238 191.367 262.238C192.63 262.238 193.649 262.551 194.423 263.176C195.205 263.801 195.595 264.611 195.595 265.607H193.222C193.222 265.152 193.053 264.774 192.714 264.475C192.376 264.169 191.927 264.016 191.367 264.016C190.846 264.016 190.42 264.136 190.087 264.377C189.762 264.618 189.599 264.94 189.599 265.344C189.599 265.708 189.752 265.992 190.058 266.193C190.364 266.395 190.983 266.6 191.914 266.809C192.845 267.01 193.574 267.255 194.101 267.541C194.635 267.821 195.029 268.16 195.283 268.557C195.543 268.954 195.673 269.436 195.673 270.002C195.673 270.952 195.28 271.724 194.492 272.316C193.704 272.902 192.672 273.195 191.396 273.195C190.53 273.195 189.759 273.039 189.082 272.727C188.405 272.414 187.877 271.984 187.5 271.438C187.122 270.891 186.933 270.301 186.933 269.67H189.238C189.27 270.23 189.482 270.663 189.873 270.969C190.263 271.268 190.781 271.418 191.425 271.418C192.05 271.418 192.526 271.301 192.851 271.066C193.177 270.826 193.339 270.513 193.339 270.129ZM202.585 267.639C202.585 266.011 202.962 264.706 203.718 263.723C204.473 262.733 205.485 262.238 206.755 262.238C207.874 262.238 208.779 262.629 209.47 263.41V258H211.843V273H209.694L209.577 271.906C208.867 272.766 207.92 273.195 206.735 273.195C205.498 273.195 204.496 272.697 203.727 271.701C202.966 270.705 202.585 269.351 202.585 267.639ZM204.958 267.844C204.958 268.918 205.163 269.758 205.573 270.363C205.99 270.962 206.579 271.262 207.341 271.262C208.311 271.262 209.02 270.829 209.47 269.963V265.451C209.033 264.605 208.33 264.182 207.36 264.182C206.592 264.182 205.999 264.488 205.583 265.1C205.166 265.705 204.958 266.62 204.958 267.844ZM219.121 273.195C217.618 273.195 216.397 272.723 215.459 271.779C214.528 270.829 214.063 269.566 214.063 267.99V267.697C214.063 266.643 214.265 265.702 214.668 264.875C215.079 264.042 215.651 263.394 216.387 262.932C217.123 262.469 217.943 262.238 218.848 262.238C220.287 262.238 221.397 262.697 222.178 263.615C222.966 264.533 223.36 265.832 223.36 267.512V268.469H216.455C216.527 269.341 216.817 270.031 217.325 270.539C217.839 271.047 218.483 271.301 219.258 271.301C220.345 271.301 221.231 270.861 221.914 269.982L223.194 271.203C222.771 271.835 222.204 272.326 221.495 272.678C220.791 273.023 220 273.195 219.121 273.195ZM218.838 264.143C218.187 264.143 217.66 264.37 217.256 264.826C216.859 265.282 216.605 265.917 216.495 266.73H221.016V266.555C220.964 265.76 220.752 265.161 220.381 264.758C220.01 264.348 219.496 264.143 218.838 264.143ZM227.885 273H225.512V258H227.885V273ZM235.281 273.195C233.777 273.195 232.556 272.723 231.619 271.779C230.688 270.829 230.222 269.566 230.222 267.99V267.697C230.222 266.643 230.424 265.702 230.828 264.875C231.238 264.042 231.811 263.394 232.546 262.932C233.282 262.469 234.102 262.238 235.007 262.238C236.446 262.238 237.556 262.697 238.337 263.615C239.125 264.533 239.519 265.832 239.519 267.512V268.469H232.615C232.686 269.341 232.976 270.031 233.484 270.539C233.998 271.047 234.643 271.301 235.418 271.301C236.505 271.301 237.39 270.861 238.074 269.982L239.353 271.203C238.93 271.835 238.364 272.326 237.654 272.678C236.951 273.023 236.16 273.195 235.281 273.195ZM234.998 264.143C234.347 264.143 233.819 264.37 233.416 264.826C233.018 265.282 232.765 265.917 232.654 266.73H237.175V266.555C237.123 265.76 236.912 265.161 236.541 264.758C236.17 264.348 235.655 264.143 234.998 264.143ZM243.722 262.434L243.79 263.654C244.571 262.71 245.597 262.238 246.866 262.238C249.067 262.238 250.187 263.498 250.226 266.018V273H247.853V266.154C247.853 265.484 247.706 264.989 247.413 264.67C247.127 264.344 246.655 264.182 245.997 264.182C245.04 264.182 244.327 264.615 243.859 265.48V273H241.486V262.434H243.722ZM255.005 268.82C255.005 267.954 255.112 267.264 255.327 266.75C255.542 266.236 255.965 265.673 256.596 265.061C257.235 264.442 257.638 264.003 257.807 263.742C258.068 263.345 258.198 262.915 258.198 262.453C258.198 261.841 258.045 261.376 257.739 261.057C257.44 260.731 256.997 260.568 256.411 260.568C255.851 260.568 255.399 260.728 255.054 261.047C254.715 261.359 254.546 261.786 254.546 262.326H252.173C252.186 261.174 252.576 260.262 253.345 259.592C254.119 258.921 255.141 258.586 256.411 258.586C257.72 258.586 258.738 258.918 259.468 259.582C260.203 260.246 260.571 261.174 260.571 262.365C260.571 263.426 260.076 264.471 259.087 265.5L257.886 266.682C257.456 267.17 257.235 267.883 257.221 268.82H255.005ZM254.839 271.857C254.839 271.473 254.959 271.164 255.2 270.93C255.441 270.689 255.766 270.568 256.177 270.568C256.593 270.568 256.922 270.692 257.163 270.939C257.404 271.18 257.524 271.486 257.524 271.857C257.524 272.215 257.407 272.515 257.173 272.756C256.938 272.997 256.606 273.117 256.177 273.117C255.747 273.117 255.415 272.997 255.18 272.756C254.953 272.515 254.839 272.215 254.839 271.857Z" fill="black"/>
<rect x="48" y="293" width="236" height="16" rx="8" fill="#E6E6E6"/>
<rect x="48" y="321" width="264" height="16" rx="8" fill="#E6E6E6"/>
<rect x="48" y="349" width="200" height="16" rx="8" fill="#E6E6E6"/>
<path d="M139.594 422V410.625H142.953C143.958 410.625 144.849 410.849 145.625 411.297C146.406 411.745 147.01 412.38 147.438 413.203C147.865 414.026 148.078 414.969 148.078 416.031V416.602C148.078 417.68 147.862 418.628 147.43 419.445C147.003 420.263 146.391 420.893 145.594 421.336C144.802 421.779 143.893 422 142.867 422H139.594ZM141.57 412.219V420.422H142.859C143.896 420.422 144.69 420.099 145.242 419.453C145.799 418.802 146.083 417.87 146.094 416.656V416.023C146.094 414.789 145.826 413.846 145.289 413.195C144.753 412.544 143.974 412.219 142.953 412.219H141.57ZM157.945 416.922H153.273V420.422H158.734V422H151.297V410.625H158.68V412.219H153.273V415.359H157.945V416.922ZM163.57 420.422H168.734V422H161.594V410.625H163.57V420.422ZM178.148 416.922H173.477V420.422H178.938V422H171.5V410.625H178.883V412.219H173.477V415.359H178.148V416.922ZM190.82 422H188.844L183.773 413.93V422H181.797V410.625H183.773L188.859 418.727V410.625H190.82V422Z" fill="white"/>
<path d="M48 403.4C48 401.16 48 400.04 48.436 399.184C48.8195 398.431 49.4314 397.819 50.184 397.436C51.0397 397 52.1598 397 54.4 397H305.6C307.84 397 308.96 397 309.816 397.436C310.569 397.819 311.181 398.431 311.564 399.184C312 400.04 312 401.16 312 403.4V434.6C312 436.84 312 437.96 311.564 438.816C311.181 439.569 310.569 440.181 309.816 440.564C308.96 441 307.84 441 305.6 441H54.4C52.1598 441 51.0397 441 50.184 440.564C49.4314 440.181 48.8195 439.569 48.436 438.816C48 437.96 48 436.84 48 434.6V403.4Z" fill="#0047FF"/>
<path d="M159.536 424V412.625H162.895C163.901 412.625 164.791 412.849 165.567 413.297C166.348 413.745 166.953 414.38 167.38 415.203C167.807 416.026 168.02 416.969 168.02 418.031V418.602C168.02 419.68 167.804 420.628 167.372 421.445C166.945 422.263 166.333 422.893 165.536 423.336C164.744 423.779 163.835 424 162.809 424H159.536ZM161.513 414.219V422.422H162.802C163.838 422.422 164.632 422.099 165.184 421.453C165.742 420.802 166.026 419.87 166.036 418.656V418.023C166.036 416.789 165.768 415.846 165.231 415.195C164.695 414.544 163.916 414.219 162.895 414.219H161.513ZM173.678 424.156C172.475 424.156 171.498 423.779 170.748 423.023C170.004 422.263 169.631 421.253 169.631 419.992V419.758C169.631 418.914 169.793 418.161 170.116 417.5C170.444 416.833 170.902 416.315 171.491 415.945C172.079 415.576 172.735 415.391 173.459 415.391C174.61 415.391 175.498 415.758 176.123 416.492C176.754 417.227 177.069 418.266 177.069 419.609V420.375H171.545C171.603 421.073 171.834 421.625 172.241 422.031C172.652 422.438 173.168 422.641 173.788 422.641C174.657 422.641 175.366 422.289 175.913 421.586L176.936 422.562C176.597 423.068 176.144 423.461 175.577 423.742C175.014 424.018 174.381 424.156 173.678 424.156ZM173.452 416.914C172.931 416.914 172.509 417.096 172.186 417.461C171.868 417.826 171.665 418.333 171.577 418.984H175.194V418.844C175.152 418.208 174.983 417.729 174.686 417.406C174.389 417.078 173.978 416.914 173.452 416.914ZM180.719 424H178.82V412H180.719V424ZM186.666 424.156C185.463 424.156 184.486 423.779 183.736 423.023C182.991 422.263 182.619 421.253 182.619 419.992V419.758C182.619 418.914 182.78 418.161 183.103 417.5C183.431 416.833 183.89 416.315 184.478 415.945C185.067 415.576 185.723 415.391 186.447 415.391C187.598 415.391 188.486 415.758 189.111 416.492C189.741 417.227 190.056 418.266 190.056 419.609V420.375H184.533C184.59 421.073 184.822 421.625 185.228 422.031C185.64 422.438 186.155 422.641 186.775 422.641C187.645 422.641 188.353 422.289 188.9 421.586L189.923 422.562C189.585 423.068 189.132 423.461 188.564 423.742C188.002 424.018 187.369 424.156 186.666 424.156ZM186.439 416.914C185.918 416.914 185.496 417.096 185.173 417.461C184.856 417.826 184.653 418.333 184.564 418.984H188.181V418.844C188.14 418.208 187.97 417.729 187.673 417.406C187.377 417.078 186.965 416.914 186.439 416.914ZM193.448 415.547L193.503 416.523C194.128 415.768 194.948 415.391 195.964 415.391C197.724 415.391 198.62 416.398 198.652 418.414V424H196.753V418.523C196.753 417.987 196.636 417.591 196.402 417.336C196.172 417.076 195.795 416.945 195.269 416.945C194.503 416.945 193.933 417.292 193.558 417.984V424H191.659V415.547H193.448Z" fill="white"/>
</g>
<defs>
<filter id="filter0_ddd" x="-22" y="185" width="404" height="342" filterUnits="userSpaceOnUse" color-interpolation-filters="sRGB">
<feFlood flood-opacity="0" result="BackgroundImageFix"/>
<feColorMatrix in="SourceAlpha" type="matrix" values="0 0 0 0 0 0 0 0 0 0 0 0 0 0 0 0 0 0 127 0"/>
<feOffset dy="11"/>
<feGaussianBlur stdDeviation="7.5"/>
<feColorMatrix type="matrix" values="0 0 0 0 0 0 0 0 0 0 0 0 0 0 0 0 0 0 0.2 0"/>
<feBlend mode="normal" in2="BackgroundImageFix" result="effect1_dropShadow"/>
<feColorMatrix in="SourceAlpha" type="matrix" values="0 0 0 0 0 0 0 0 0 0 0 0 0 0 0 0 0 0 127 0"/>
<feOffset dy="9"/>
<feGaussianBlur stdDeviation="23"/>
<feColorMatrix type="matrix" values="0 0 0 0 0 0 0 0 0 0 0 0 0 0 0 0 0 0 0.12 0"/>
<feBlend mode="normal" in2="effect1_dropShadow" result="effect2_dropShadow"/>
<feColorMatrix in="SourceAlpha" type="matrix" values="0 0 0 0 0 0 0 0 0 0 0 0 0 0 0 0 0 0 127 0"/>
<feOffset dy="24"/>
<feGaussianBlur stdDeviation="19"/>
<feColorMatrix type="matrix" values="0 0 0 0 0 0 0 0 0 0 0 0 0 0 0 0 0 0 0.14 0"/>
<feBlend mode="normal" in2="effect2_dropShadow" result="effect3_dropShadow"/>
<feBlend mode="normal" in="SourceGraphic" in2="effect3_dropShadow" result="shape"/>
</filter>
<clipPath id="clip0">
<rect width="360" height="688" fill="white"/>
</clipPath>
</defs>
</svg>
